<svg width="25" height="24" viewBox="0 0 25 24" fill="none" xmlns="http://www.w3.org/2000/svg">
<g clip-path="url(#clip0_511_16727)">
<path d="M2.12164 21.0095C2.61164 21.4995 3.40164 21.4995 3.89164 21.0095L12.2016 12.6995C12.5916 12.3095 12.5916 11.6795 12.2016 11.2895L3.89164 2.97945C3.40164 2.48945 2.61164 2.48945 2.12164 2.97945C1.63164 3.46945 1.63164 4.25945 2.12164 4.74945L9.36164 11.9995L2.11164 19.2495C1.63164 19.7295 1.63164 20.5295 2.12164 21.0095Z" fill="#323232"/>
<path d="M12.8629 21.0095C13.3529 21.4995 14.1429 21.4995 14.6329 21.0095L22.9429 12.6995C23.3329 12.3095 23.3329 11.6795 22.9429 11.2895L14.6329 2.97945C14.1429 2.48945 13.3529 2.48945 12.8629 2.97945C12.3729 3.46945 12.3729 4.25945 12.8629 4.74945L20.1029 11.9995L12.8529 19.2495C12.3729 19.7295 12.3729 20.5295 12.8629 21.0095Z" fill="#323232"/>
</g>
<defs>
<clipPath id="clip0_511_16727">
<rect width="24" height="24" fill="white" transform="matrix(-1 0 0 -1 24.4941 24)"/>
</clipPath>
</defs>
</svg>
