<svg width="25" height="24" viewBox="0 0 25 24" fill="none" xmlns="http://www.w3.org/2000/svg">
<g clip-path="url(#clip0_301_155)">
<path d="M19.9883 10.9997L8.81826 10.9997L13.6983 6.11973C14.0883 5.72973 14.0883 5.08973 13.6983 4.69973C13.3083 4.30973 12.6783 4.30973 12.2883 4.69973L5.69826 11.2897C5.30826 11.6797 5.30826 12.3097 5.69826 12.6997L12.2883 19.2897C12.6783 19.6797 13.3083 19.6797 13.6983 19.2897C14.0883 18.8997 14.0883 18.2697 13.6983 17.8797L8.81826 12.9997L19.9883 12.9997C20.5383 12.9997 20.9883 12.5497 20.9883 11.9997C20.9883 11.4497 20.5383 10.9997 19.9883 10.9997Z" fill="#191919"/>
</g>
<defs>
<clipPath id="clip0_301_155">
<rect width="24" height="24" fill="white" transform="translate(0.988281)"/>
</clipPath>
</defs>
</svg>
