<svg width="25" height="24" viewBox="0 0 25 24" fill="none" xmlns="http://www.w3.org/2000/svg">
<g clip-path="url(#clip0_511_16732)">
<path d="M22.8666 2.99055C22.3766 2.50055 21.5866 2.50055 21.0966 2.99055L12.7866 11.3005C12.3966 11.6905 12.3966 12.3205 12.7866 12.7105L21.0966 21.0205C21.5866 21.5105 22.3766 21.5105 22.8666 21.0205C23.3566 20.5305 23.3566 19.7405 22.8666 19.2505L15.6266 12.0005L22.8766 4.75055C23.3566 4.27055 23.3566 3.47055 22.8666 2.99055Z" fill="#323232"/>
<path d="M12.1254 2.99055C11.6354 2.50055 10.8454 2.50055 10.3554 2.99055L2.04543 11.3005C1.65543 11.6905 1.65543 12.3205 2.04543 12.7105L10.3554 21.0205C10.8454 21.5105 11.6354 21.5105 12.1254 21.0205C12.6154 20.5305 12.6154 19.7405 12.1254 19.2505L4.88543 12.0005L12.1354 4.75055C12.6154 4.27055 12.6154 3.47055 12.1254 2.99055Z" fill="#323232"/>
</g>
<defs>
<clipPath id="clip0_511_16732">
<rect width="24" height="24" fill="white" transform="translate(0.494141)"/>
</clipPath>
</defs>
</svg>
