<svg width="25" height="24" viewBox="0 0 25 24" fill="none" xmlns="http://www.w3.org/2000/svg">
<path fill-rule="evenodd" clip-rule="evenodd" d="M14.9788 21.01C14.9788 22.11 14.0888 23 12.9888 23C11.8888 23 10.9988 22.11 10.9988 21.01H14.9788ZM19.9888 17L21.2788 18.29C21.9088 18.92 21.4688 20 20.5688 20H5.39882C4.50882 20 4.06882 18.92 4.69882 18.29L5.98882 17V11C5.98882 7.65 8.34882 4.85 11.4888 4.17V3C11.4888 2.17 12.1588 1.5 12.9888 1.5C13.8188 1.5 14.4888 2.17 14.4888 3V4.17C17.6288 4.85 19.9888 7.65 19.9888 11V17Z" fill="#323232"/>
</svg>
