<svg width="21" height="22" viewBox="0 0 21 22" fill="none" xmlns="http://www.w3.org/2000/svg">
<path d="M18.9883 2H17.9883V1C17.9883 0.45 17.5383 0 16.9883 0C16.4383 0 15.9883 0.45 15.9883 1V2H5.98828V1C5.98828 0.45 5.53828 0 4.98828 0C4.43828 0 3.98828 0.45 3.98828 1V2H2.98828C1.88828 2 0.988281 2.9 0.988281 4V20C0.988281 21.1 1.88828 22 2.98828 22H18.9883C20.0883 22 20.9883 21.1 20.9883 20V4C20.9883 2.9 20.0883 2 18.9883 2ZM17.9883 20H3.98828C3.43828 20 2.98828 19.55 2.98828 19V7H18.9883V19C18.9883 19.55 18.5383 20 17.9883 20Z" fill="#323232"/>
</svg>
