<svg width="43" height="23" viewBox="0 0 43 23" fill="none" xmlns="http://www.w3.org/2000/svg">
<g clip-path="url(#clip0_1583_47530)">
<path d="M6.37233 7.34375H9.51773C9.51773 7.34375 11.2992 7.34375 11.5397 7.34375C11.7802 7.34375 12.0341 7.40385 12.0341 7.70397C12.0341 8.00409 12.0341 13.1504 12.0341 14.3967L39.4524 14.3967C42.0301 14.3967 41.9688 14.3167 41.9688 16.1674V17.0366C41.9688 18.4116 40.8364 18.5938 39.4524 18.5938C39.4524 20.6688 37.7665 22.3438 35.6779 22.3438C33.5894 22.3438 31.9034 20.6688 31.9034 18.5938L12.0341 18.5938C12.0341 20.6687 10.3481 22.3437 8.25957 22.3437C6.17102 22.3437 4.48508 20.6687 4.48508 18.5938H3.22691C2.53492 18.5938 1.96875 18.0313 1.96875 17.3438V13.1812C1.96875 12.6437 2.14489 12.1187 2.47202 11.6812L5.3658 7.84375C5.60485 7.53125 5.9823 7.34375 6.37233 7.34375ZM35.6779 19.8438C36.3699 19.8438 36.9361 19.2813 36.9361 18.5938C36.9361 17.9063 36.3699 17.3438 35.6779 17.3438C34.9859 17.3438 34.4198 17.9063 34.4198 18.5938C34.4198 19.2813 34.9859 19.8438 35.6779 19.8438ZM6.37233 9.21874L3.90632 12.3437H9.51773V9.21874H6.37233ZM8.25957 19.8438C8.95156 19.8438 9.51773 19.2813 9.51773 18.5938C9.51773 17.9063 8.95156 17.3438 8.25957 17.3438C7.56758 17.3438 7.00141 17.9063 7.00141 18.5938C7.00141 19.2813 7.56758 19.8438 8.25957 19.8438Z" fill="#333333"/>
</g>
<defs>
<clipPath id="clip0_1583_47530">
<rect width="42" height="22" fill="white" transform="translate(0.96875 0.34375)"/>
</clipPath>
</defs>
</svg>
