<svg width="43" height="23" viewBox="0 0 43 23" fill="none" xmlns="http://www.w3.org/2000/svg">
<g clip-path="url(#clip0_1583_49544)">
<path d="M5.70827 7.34375H8.85367C8.85367 7.34375 10.6351 7.34375 10.8757 7.34375C11.1162 7.34375 11.37 7.40385 11.37 7.70397C11.37 8.00409 11.37 13.1504 11.37 14.3967L38.7884 14.3967C41.366 14.3967 41.3047 14.3167 41.3047 16.1674V17.0366C41.3047 18.4116 40.1723 18.5938 38.7884 18.5938C38.7884 20.6688 37.1024 22.3438 35.0139 22.3438C32.9253 22.3438 31.2394 20.6688 31.2394 18.5938L11.37 18.5938C11.37 20.6687 9.68406 22.3437 7.59551 22.3437C5.50696 22.3437 3.82102 20.6687 3.82102 18.5938H2.56285C1.87086 18.5938 1.30469 18.0313 1.30469 17.3438V13.1812C1.30469 12.6437 1.48083 12.1187 1.80795 11.6812L4.70174 7.84375C4.94079 7.53125 5.31823 7.34375 5.70827 7.34375ZM35.0139 19.8438C35.7059 19.8438 36.272 19.2813 36.272 18.5938C36.272 17.9063 35.7059 17.3438 35.0139 17.3438C34.3219 17.3438 33.7557 17.9063 33.7557 18.5938C33.7557 19.2813 34.3219 19.8438 35.0139 19.8438ZM5.70827 9.21874L3.24226 12.3437H8.85367V9.21874H5.70827ZM7.59551 19.8438C8.2875 19.8438 8.85367 19.2813 8.85367 18.5938C8.85367 17.9063 8.2875 17.3438 7.59551 17.3438C6.90352 17.3438 6.33735 17.9063 6.33735 18.5938C6.33735 19.2813 6.90352 19.8438 7.59551 19.8438Z" fill="#333333"/>
</g>
<path d="M20.0898 12.4609C19.5078 12.4609 18.9824 12.3535 18.5137 12.1387C18.0488 11.9238 17.6816 11.627 17.4121 11.248C17.1426 10.8652 17.0039 10.4336 16.9961 9.95312H18.707C18.7188 10.168 18.7871 10.3613 18.9121 10.5332C19.041 10.7012 19.207 10.832 19.4102 10.9258C19.6172 11.0195 19.8438 11.0664 20.0898 11.0664C20.3789 11.0664 20.6367 11.0039 20.8633 10.8789C21.0938 10.75 21.2715 10.5723 21.3965 10.3457C21.5254 10.1191 21.5898 9.85938 21.5898 9.56641C21.5898 9.26953 21.5254 9.00586 21.3965 8.77539C21.2676 8.54102 21.0859 8.35938 20.8516 8.23047C20.6211 8.09766 20.3594 8.03125 20.0664 8.03125C19.4297 8.03125 18.9844 8.26953 18.7305 8.74609H17.1367L17.5938 3.85938H22.8203V5.30078H19.0469L18.8125 7.44531H18.8828C19.0391 7.23047 19.2715 7.05859 19.5801 6.92969C19.8887 6.79688 20.2266 6.73047 20.5938 6.73047C21.1055 6.73047 21.5664 6.84961 21.9766 7.08789C22.3906 7.32617 22.7148 7.6582 22.9492 8.08398C23.1836 8.50977 23.3008 8.98828 23.3008 9.51953C23.3008 10.0859 23.166 10.5938 22.8965 11.043C22.627 11.4883 22.248 11.8359 21.7598 12.0859C21.2754 12.3359 20.7188 12.4609 20.0898 12.4609ZM24.2148 3.85938H31.1641V5.3125H28.5625V12.3438H26.8164V5.3125H24.2148V3.85938Z" fill="#333333"/>
<defs>
<clipPath id="clip0_1583_49544">
<rect width="42" height="22" fill="white" transform="translate(0.304688 0.34375)"/>
</clipPath>
</defs>
</svg>
