<svg width="43" height="23" viewBox="0 0 43 23" fill="none" xmlns="http://www.w3.org/2000/svg">
<g clip-path="url(#clip0_1583_49549)">
<path d="M5.70827 7.34375H8.85367C8.85367 7.34375 10.6351 7.34375 10.8757 7.34375C11.1162 7.34375 11.37 7.40385 11.37 7.70397C11.37 8.00409 11.37 13.1504 11.37 14.3967L38.7884 14.3967C41.366 14.3967 41.3047 14.3167 41.3047 16.1674V17.0366C41.3047 18.4116 40.1723 18.5938 38.7884 18.5938C38.7884 20.6688 37.1024 22.3438 35.0139 22.3438C32.9253 22.3438 31.2394 20.6688 31.2394 18.5938L11.37 18.5938C11.37 20.6687 9.68406 22.3437 7.59551 22.3437C5.50696 22.3437 3.82102 20.6687 3.82102 18.5938H2.56285C1.87086 18.5938 1.30469 18.0313 1.30469 17.3438V13.1812C1.30469 12.6437 1.48083 12.1187 1.80795 11.6812L4.70174 7.84375C4.94079 7.53125 5.31823 7.34375 5.70827 7.34375ZM35.0139 19.8438C35.7059 19.8438 36.272 19.2813 36.272 18.5938C36.272 17.9063 35.7059 17.3438 35.0139 17.3438C34.3219 17.3438 33.7557 17.9063 33.7557 18.5938C33.7557 19.2813 34.3219 19.8438 35.0139 19.8438ZM5.70827 9.21874L3.24226 12.3437H8.85367V9.21874H5.70827ZM7.59551 19.8438C8.2875 19.8438 8.85367 19.2813 8.85367 18.5938C8.85367 17.9063 8.2875 17.3438 7.59551 17.3438C6.90352 17.3438 6.33735 17.9063 6.33735 18.5938C6.33735 19.2813 6.90352 19.8438 7.59551 19.8438Z" fill="#333333"/>
</g>
<path d="M20.1602 12.4609C19.5234 12.4609 18.9512 12.3574 18.4434 12.1504C17.9395 11.9434 17.5449 11.6582 17.2598 11.2949C16.9746 10.9277 16.832 10.5156 16.832 10.0586C16.832 9.71094 16.9141 9.38672 17.0781 9.08594C17.2422 8.78516 17.4668 8.53711 17.752 8.3418C18.041 8.14258 18.3594 8.01562 18.707 7.96094V7.90234C18.4023 7.84375 18.1328 7.72656 17.8984 7.55078C17.6641 7.37109 17.4824 7.15039 17.3535 6.88867C17.2246 6.62305 17.1602 6.33594 17.1602 6.02734C17.1602 5.59375 17.2891 5.20312 17.5469 4.85547C17.8047 4.50781 18.1621 4.23633 18.6191 4.04102C19.0762 3.8418 19.5898 3.74219 20.1602 3.74219C20.7305 3.74219 21.2441 3.8418 21.7012 4.04102C22.1582 4.23633 22.5176 4.50781 22.7793 4.85547C23.041 5.20312 23.1719 5.59375 23.1719 6.02734C23.1719 6.33203 23.1035 6.61719 22.9668 6.88281C22.834 7.14844 22.6504 7.37109 22.416 7.55078C22.1816 7.72656 21.918 7.84375 21.625 7.90234V7.96094C21.9688 8.01562 22.2812 8.14258 22.5625 8.3418C22.8477 8.53711 23.0723 8.78516 23.2363 9.08594C23.4043 9.38672 23.4883 9.71094 23.4883 10.0586C23.4883 10.5156 23.3457 10.9277 23.0605 11.2949C22.7754 11.6582 22.3789 11.9434 21.8711 12.1504C21.3672 12.3574 20.7969 12.4609 20.1602 12.4609ZM18.6719 9.88281C18.6719 10.1211 18.7324 10.334 18.8535 10.5215C18.9785 10.709 19.1543 10.8555 19.3809 10.9609C19.6074 11.0625 19.8672 11.1133 20.1602 11.1133C20.4531 11.1133 20.7129 11.0625 20.9395 10.9609C21.166 10.8555 21.3398 10.709 21.4609 10.5215C21.5859 10.334 21.6484 10.1211 21.6484 9.88281C21.6484 9.64062 21.584 9.42383 21.4551 9.23242C21.3301 9.03711 21.1543 8.88477 20.9277 8.77539C20.7012 8.66211 20.4453 8.60547 20.1602 8.60547C19.875 8.60547 19.6191 8.66211 19.3926 8.77539C19.166 8.88477 18.9883 9.03711 18.8594 9.23242C18.7344 9.42383 18.6719 9.64062 18.6719 9.88281ZM18.8828 6.20312C18.8828 6.42578 18.9355 6.625 19.041 6.80078C19.1504 6.97656 19.3027 7.11523 19.498 7.2168C19.6934 7.31445 19.9141 7.36328 20.1602 7.36328C20.4062 7.36328 20.627 7.31445 20.8223 7.2168C21.0176 7.11523 21.1699 6.97656 21.2793 6.80078C21.3926 6.625 21.4492 6.42578 21.4492 6.20312C21.4492 5.98438 21.3926 5.79102 21.2793 5.62305C21.1699 5.45117 21.0176 5.31836 20.8223 5.22461C20.6309 5.12695 20.4102 5.07812 20.1602 5.07812C19.9102 5.07812 19.6875 5.12695 19.4922 5.22461C19.2969 5.31836 19.1465 5.45117 19.041 5.62305C18.9355 5.79102 18.8828 5.98438 18.8828 6.20312ZM24.4141 3.85938H31.3633V5.3125H28.7617V12.3438H27.0156V5.3125H24.4141V3.85938Z" fill="#333333"/>
<defs>
<clipPath id="clip0_1583_49549">
<rect width="42" height="22" fill="white" transform="translate(0.304688 0.34375)"/>
</clipPath>
</defs>
</svg>
