<svg width="43" height="23" viewBox="0 0 43 23" fill="none" xmlns="http://www.w3.org/2000/svg">
<g clip-path="url(#clip0_1583_49559)">
<path d="M5.70827 7.34375H8.85367C8.85367 7.34375 10.6351 7.34375 10.8757 7.34375C11.1162 7.34375 11.37 7.40385 11.37 7.70397C11.37 8.00409 11.37 13.1504 11.37 14.3967L38.7884 14.3967C41.366 14.3967 41.3047 14.3167 41.3047 16.1674V17.0366C41.3047 18.4116 40.1723 18.5938 38.7884 18.5938C38.7884 20.6688 37.1024 22.3438 35.0139 22.3438C32.9253 22.3438 31.2394 20.6688 31.2394 18.5938L11.37 18.5938C11.37 20.6687 9.68406 22.3437 7.59551 22.3437C5.50696 22.3437 3.82102 20.6687 3.82102 18.5938H2.56285C1.87086 18.5938 1.30469 18.0313 1.30469 17.3438V13.1812C1.30469 12.6437 1.48083 12.1187 1.80795 11.6812L4.70174 7.84375C4.94079 7.53125 5.31823 7.34375 5.70827 7.34375ZM35.0139 19.8438C35.7059 19.8438 36.272 19.2813 36.272 18.5938C36.272 17.9063 35.7059 17.3438 35.0139 17.3438C34.3219 17.3438 33.7557 17.9063 33.7557 18.5938C33.7557 19.2813 34.3219 19.8438 35.0139 19.8438ZM5.70827 9.21874L3.24226 12.3437H8.85367V9.21874H5.70827ZM7.59551 19.8438C8.2875 19.8438 8.85367 19.2813 8.85367 18.5938C8.85367 17.9063 8.2875 17.3438 7.59551 17.3438C6.90352 17.3438 6.33735 17.9063 6.33735 18.5938C6.33735 19.2813 6.90352 19.8438 7.59551 19.8438Z" fill="#333333"/>
</g>
<path d="M17.1133 12.4609C16.5 12.4609 15.9492 12.3555 15.4609 12.1445C14.9766 11.9336 14.5938 11.6387 14.3125 11.2598C14.0352 10.877 13.8906 10.4414 13.8789 9.95312H15.6602C15.668 10.1602 15.7363 10.3438 15.8652 10.5039C15.9941 10.6602 16.168 10.7832 16.3867 10.873C16.6055 10.9629 16.8516 11.0078 17.125 11.0078C17.4023 11.0078 17.6504 10.959 17.8691 10.8613C18.0918 10.7598 18.2637 10.623 18.3848 10.4512C18.5059 10.2754 18.5664 10.0742 18.5664 9.84766C18.5664 9.61719 18.502 9.41406 18.373 9.23828C18.2441 9.05859 18.0586 8.91797 17.8164 8.81641C17.5742 8.71484 17.2891 8.66406 16.9609 8.66406H16.1758V7.36328H16.9609C17.2383 7.36328 17.4844 7.31641 17.6992 7.22266C17.9141 7.12891 18.0801 6.99609 18.1973 6.82422C18.3184 6.65234 18.3789 6.45703 18.3789 6.23828C18.3789 6.02344 18.3281 5.83398 18.2266 5.66992C18.125 5.50586 17.9805 5.37891 17.793 5.28906C17.6094 5.19531 17.3945 5.14844 17.1484 5.14844C16.8984 5.14844 16.668 5.19336 16.457 5.2832C16.2461 5.36914 16.0762 5.49219 15.9473 5.65234C15.8184 5.8125 15.75 6 15.7422 6.21484H14.0547C14.0625 5.73828 14.2012 5.3125 14.4707 4.9375C14.7441 4.55859 15.1133 4.26562 15.5781 4.05859C16.043 3.84766 16.5625 3.74219 17.1367 3.74219C17.7148 3.74219 18.2266 3.84766 18.6719 4.05859C19.1211 4.26953 19.4668 4.55664 19.709 4.91992C19.9551 5.2832 20.0781 5.6875 20.0781 6.13281C20.0781 6.44141 20.0117 6.72266 19.8789 6.97656C19.7461 7.22656 19.5566 7.43359 19.3105 7.59766C19.0684 7.75781 18.7891 7.86719 18.4727 7.92578V7.99609C19.0898 8.07031 19.5664 8.2832 19.9023 8.63477C20.2383 8.98633 20.4023 9.42969 20.3945 9.96484C20.3984 10.4414 20.2598 10.8711 19.9785 11.2539C19.7012 11.6328 19.3125 11.9297 18.8125 12.1445C18.3125 12.3555 17.7461 12.4609 17.1133 12.4609ZM22.4219 12.4492C22.2422 12.4492 22.0762 12.4062 21.9238 12.3203C21.7715 12.2305 21.6504 12.1113 21.5605 11.9629C21.4746 11.8105 21.4336 11.6445 21.4375 11.4648C21.4336 11.2891 21.4746 11.127 21.5605 10.9785C21.6504 10.8262 21.7715 10.707 21.9238 10.6211C22.0762 10.5352 22.2422 10.4922 22.4219 10.4922C22.5938 10.4922 22.7539 10.5352 22.9023 10.6211C23.0508 10.707 23.1699 10.8262 23.2598 10.9785C23.3496 11.127 23.3945 11.2891 23.3945 11.4648C23.3945 11.6445 23.3496 11.8105 23.2598 11.9629C23.1699 12.1113 23.0508 12.2305 22.9023 12.3203C22.7539 12.4062 22.5938 12.4492 22.4219 12.4492ZM27.8242 12.4609C27.2422 12.4609 26.7168 12.3535 26.248 12.1387C25.7832 11.9238 25.416 11.627 25.1465 11.248C24.877 10.8652 24.7383 10.4336 24.7305 9.95312H26.4414C26.4531 10.168 26.5215 10.3613 26.6465 10.5332C26.7754 10.7012 26.9414 10.832 27.1445 10.9258C27.3516 11.0195 27.5781 11.0664 27.8242 11.0664C28.1133 11.0664 28.3711 11.0039 28.5977 10.8789C28.8281 10.75 29.0059 10.5723 29.1309 10.3457C29.2598 10.1191 29.3242 9.85938 29.3242 9.56641C29.3242 9.26953 29.2598 9.00586 29.1309 8.77539C29.002 8.54102 28.8203 8.35938 28.5859 8.23047C28.3555 8.09766 28.0938 8.03125 27.8008 8.03125C27.1641 8.03125 26.7188 8.26953 26.4648 8.74609H24.8711L25.3281 3.85938H30.5547V5.30078H26.7812L26.5469 7.44531H26.6172C26.7734 7.23047 27.0059 7.05859 27.3145 6.92969C27.623 6.79688 27.9609 6.73047 28.3281 6.73047C28.8398 6.73047 29.3008 6.84961 29.7109 7.08789C30.125 7.32617 30.4492 7.6582 30.6836 8.08398C30.918 8.50977 31.0352 8.98828 31.0352 9.51953C31.0352 10.0859 30.9004 10.5938 30.6309 11.043C30.3613 11.4883 29.9824 11.8359 29.4941 12.0859C29.0098 12.3359 28.4531 12.4609 27.8242 12.4609ZM31.9492 3.85938H38.8984V5.3125H36.2969V12.3438H34.5508V5.3125H31.9492V3.85938Z" fill="#333333"/>
<defs>
<clipPath id="clip0_1583_49559">
<rect width="42" height="22" fill="white" transform="translate(0.304688 0.34375)"/>
</clipPath>
</defs>
</svg>
