<svg width="43" height="23" viewBox="0 0 43 23" fill="none" xmlns="http://www.w3.org/2000/svg">
<g clip-path="url(#clip0_1583_49558)">
<path d="M5.70827 7.34375H8.85367C8.85367 7.34375 10.6351 7.34375 10.8757 7.34375C11.1162 7.34375 11.37 7.40385 11.37 7.70397C11.37 8.00409 11.37 13.1504 11.37 14.3967L38.7884 14.3967C41.366 14.3967 41.3047 14.3167 41.3047 16.1674V17.0366C41.3047 18.4116 40.1723 18.5938 38.7884 18.5938C38.7884 20.6688 37.1024 22.3438 35.0139 22.3438C32.9253 22.3438 31.2394 20.6688 31.2394 18.5938L11.37 18.5938C11.37 20.6687 9.68406 22.3437 7.59551 22.3437C5.50696 22.3437 3.82102 20.6687 3.82102 18.5938H2.56285C1.87086 18.5938 1.30469 18.0313 1.30469 17.3438V13.1812C1.30469 12.6437 1.48083 12.1187 1.80795 11.6812L4.70174 7.84375C4.94079 7.53125 5.31823 7.34375 5.70827 7.34375ZM35.0139 19.8438C35.7059 19.8438 36.272 19.2813 36.272 18.5938C36.272 17.9063 35.7059 17.3438 35.0139 17.3438C34.3219 17.3438 33.7557 17.9063 33.7557 18.5938C33.7557 19.2813 34.3219 19.8438 35.0139 19.8438ZM5.70827 9.21874L3.24226 12.3437H8.85367V9.21874H5.70827ZM7.59551 19.8438C8.2875 19.8438 8.85367 19.2813 8.85367 18.5938C8.85367 17.9063 8.2875 17.3438 7.59551 17.3438C6.90352 17.3438 6.33735 17.9063 6.33735 18.5938C6.33735 19.2813 6.90352 19.8438 7.59551 19.8438Z" fill="#333333"/>
</g>
<path d="M20.6289 12.3438H18.8594V5.53516H18.8125L16.8672 6.75391V5.19531L18.9648 3.85938H20.6289V12.3438ZM22.3164 3.85938H29.2656V5.3125H26.6641V12.3438H24.918V5.3125H22.3164V3.85938Z" fill="#333333"/>
<defs>
<clipPath id="clip0_1583_49558">
<rect width="42" height="22" fill="white" transform="translate(0.304688 0.34375)"/>
</clipPath>
</defs>
</svg>
