<svg width="43" height="23" viewBox="0 0 43 23" fill="none" xmlns="http://www.w3.org/2000/svg">
<g clip-path="url(#clip0_1583_49556)">
<path d="M5.70827 7.34375H8.85367C8.85367 7.34375 10.6351 7.34375 10.8757 7.34375C11.1162 7.34375 11.37 7.40385 11.37 7.70397C11.37 8.00409 11.37 13.1504 11.37 14.3967L38.7884 14.3967C41.366 14.3967 41.3047 14.3167 41.3047 16.1674V17.0366C41.3047 18.4116 40.1723 18.5938 38.7884 18.5938C38.7884 20.6688 37.1024 22.3438 35.0139 22.3438C32.9253 22.3438 31.2394 20.6688 31.2394 18.5938L11.37 18.5938C11.37 20.6687 9.68406 22.3437 7.59551 22.3437C5.50696 22.3437 3.82102 20.6687 3.82102 18.5938H2.56285C1.87086 18.5938 1.30469 18.0313 1.30469 17.3438V13.1812C1.30469 12.6437 1.48083 12.1187 1.80795 11.6812L4.70174 7.84375C4.94079 7.53125 5.31823 7.34375 5.70827 7.34375ZM35.0139 19.8438C35.7059 19.8438 36.272 19.2813 36.272 18.5938C36.272 17.9063 35.7059 17.3438 35.0139 17.3438C34.3219 17.3438 33.7557 17.9063 33.7557 18.5938C33.7557 19.2813 34.3219 19.8438 35.0139 19.8438ZM5.70827 9.21874L3.24226 12.3437H8.85367V9.21874H5.70827ZM7.59551 19.8438C8.2875 19.8438 8.85367 19.2813 8.85367 18.5938C8.85367 17.9063 8.2875 17.3438 7.59551 17.3438C6.90352 17.3438 6.33735 17.9063 6.33735 18.5938C6.33735 19.2813 6.90352 19.8438 7.59551 19.8438Z" fill="#333333"/>
</g>
<path d="M14.4609 11.0664L17.5078 8.26562C17.8086 7.97656 18.041 7.73828 18.2051 7.55078C18.373 7.35938 18.502 7.16992 18.5918 6.98242C18.6816 6.79102 18.7266 6.58594 18.7266 6.36719C18.7266 6.12109 18.668 5.90625 18.5508 5.72266C18.4375 5.53516 18.2773 5.39258 18.0703 5.29492C17.8672 5.19727 17.6367 5.14844 17.3789 5.14844C16.9766 5.14453 16.6562 5.26172 16.418 5.5C16.1797 5.73438 16.0625 6.05469 16.0664 6.46094H14.3906C14.3906 5.91797 14.5156 5.44141 14.7656 5.03125C15.0195 4.61719 15.373 4.29883 15.8262 4.07617C16.2832 3.85352 16.8086 3.74219 17.4023 3.74219C18 3.74219 18.5273 3.84961 18.9844 4.06445C19.4414 4.27539 19.7949 4.57031 20.0449 4.94922C20.2988 5.32812 20.4258 5.76172 20.4258 6.25C20.4258 6.58594 20.3613 6.9082 20.2324 7.2168C20.1035 7.52148 19.8789 7.86133 19.5586 8.23633C19.2422 8.61133 18.793 9.0625 18.2109 9.58984L16.9219 10.8438V10.8906H20.543V12.3438H14.4727L14.4609 11.0664ZM22.8281 12.4492C22.6484 12.4492 22.4824 12.4062 22.3301 12.3203C22.1777 12.2305 22.0566 12.1113 21.9668 11.9629C21.8809 11.8105 21.8398 11.6445 21.8438 11.4648C21.8398 11.2891 21.8809 11.127 21.9668 10.9785C22.0566 10.8262 22.1777 10.707 22.3301 10.6211C22.4824 10.5352 22.6484 10.4922 22.8281 10.4922C23 10.4922 23.1602 10.5352 23.3086 10.6211C23.457 10.707 23.5762 10.8262 23.666 10.9785C23.7559 11.127 23.8008 11.2891 23.8008 11.4648C23.8008 11.6445 23.7559 11.8105 23.666 11.9629C23.5762 12.1113 23.457 12.2305 23.3086 12.3203C23.1602 12.4062 23 12.4492 22.8281 12.4492ZM28.2305 12.4609C27.6484 12.4609 27.123 12.3535 26.6543 12.1387C26.1895 11.9238 25.8223 11.627 25.5527 11.248C25.2832 10.8652 25.1445 10.4336 25.1367 9.95312H26.8477C26.8594 10.168 26.9277 10.3613 27.0527 10.5332C27.1816 10.7012 27.3477 10.832 27.5508 10.9258C27.7578 11.0195 27.9844 11.0664 28.2305 11.0664C28.5195 11.0664 28.7773 11.0039 29.0039 10.8789C29.2344 10.75 29.4121 10.5723 29.5371 10.3457C29.666 10.1191 29.7305 9.85938 29.7305 9.56641C29.7305 9.26953 29.666 9.00586 29.5371 8.77539C29.4082 8.54102 29.2266 8.35938 28.9922 8.23047C28.7617 8.09766 28.5 8.03125 28.207 8.03125C27.5703 8.03125 27.125 8.26953 26.8711 8.74609H25.2773L25.7344 3.85938H30.9609V5.30078H27.1875L26.9531 7.44531H27.0234C27.1797 7.23047 27.4121 7.05859 27.7207 6.92969C28.0293 6.79688 28.3672 6.73047 28.7344 6.73047C29.2461 6.73047 29.707 6.84961 30.1172 7.08789C30.5312 7.32617 30.8555 7.6582 31.0898 8.08398C31.3242 8.50977 31.4414 8.98828 31.4414 9.51953C31.4414 10.0859 31.3066 10.5938 31.0371 11.043C30.7676 11.4883 30.3887 11.8359 29.9004 12.0859C29.416 12.3359 28.8594 12.4609 28.2305 12.4609ZM32.3555 3.85938H39.3047V5.3125H36.7031V12.3438H34.957V5.3125H32.3555V3.85938Z" fill="#333333"/>
<defs>
<clipPath id="clip0_1583_49556">
<rect width="42" height="22" fill="white" transform="translate(0.304688 0.34375)"/>
</clipPath>
</defs>
</svg>
