<svg width="25" height="24" viewBox="0 0 25 24" fill="none" xmlns="http://www.w3.org/2000/svg">
<g clip-path="url(#clip0_315_15141)">
<path d="M19.9893 3H5.98926C4.88926 3 3.98926 3.9 3.98926 5V19C3.98926 20.1 4.88926 21 5.98926 21H19.9893C21.0893 21 21.9893 20.1 21.9893 19V5C21.9893 3.9 21.0893 3 19.9893 3ZM8.98926 17C8.43926 17 7.98926 16.55 7.98926 16V11C7.98926 10.45 8.43926 10 8.98926 10C9.53926 10 9.98926 10.45 9.98926 11V16C9.98926 16.55 9.53926 17 8.98926 17ZM12.9893 17C12.4393 17 11.9893 16.55 11.9893 16V8C11.9893 7.45 12.4393 7 12.9893 7C13.5393 7 13.9893 7.45 13.9893 8V16C13.9893 16.55 13.5393 17 12.9893 17ZM16.9893 17C16.4393 17 15.9893 16.55 15.9893 16V14C15.9893 13.45 16.4393 13 16.9893 13C17.5393 13 17.9893 13.45 17.9893 14V16C17.9893 16.55 17.5393 17 16.9893 17Z" fill="#323232"/>
</g>
<defs>
<clipPath id="clip0_315_15141">
<rect width="24" height="24" fill="white" transform="translate(0.989258)"/>
</clipPath>
</defs>
</svg>
