<svg width="40" height="40" viewBox="0 0 40 40" fill="none" xmlns="http://www.w3.org/2000/svg">
<g id="loading_circle" clip-path="url(#clip0_3209_77195)">
<path id="Ellipse 370" d="M40 20C40 31.0457 31.0457 40 20 40C8.9543 40 0 31.0457 0 20C0 8.9543 8.9543 0 20 0C31.0457 0 40 8.9543 40 20ZM4 20C4 28.8366 11.1634 36 20 36C28.8366 36 36 28.8366 36 20C36 11.1634 28.8366 4 20 4C11.1634 4 4 11.1634 4 20Z" fill="#CCCCCC"/>
<path id="Ellipse 371" d="M35.5885 29C36.545 29.5523 36.8807 30.7826 36.2356 31.6792C35.0962 33.2632 33.7289 34.6749 32.1752 35.8671C30.0915 37.4659 27.7133 38.6387 25.1764 39.3185C22.6394 39.9983 19.9934 40.1717 17.3895 39.8289C14.7855 39.4861 12.2746 38.6337 10 37.3205C7.72544 36.0073 5.7318 34.2589 4.13293 32.1752C2.53406 30.0915 1.36125 27.7133 0.681483 25.1764C0.00171096 22.6394 -0.171716 19.9934 0.171103 17.3895C0.426726 15.4478 0.965644 13.5579 1.76768 11.7791C2.22171 10.7722 3.45496 10.4477 4.41154 11C5.36813 11.5523 5.68301 12.772 5.2543 13.79C4.7005 15.105 4.32391 16.491 4.13688 17.9116C3.86263 19.9948 4.00137 22.1115 4.54519 24.1411C5.089 26.1707 6.02725 28.0732 7.30634 29.7402C8.58544 31.4071 10.1803 32.8058 12 33.8564C13.8196 34.907 15.8284 35.5889 17.9116 35.8631C19.9948 36.1374 22.1115 35.9986 24.1411 35.4548C26.1707 34.911 28.0732 33.9728 29.7402 32.6937C30.8769 31.8214 31.889 30.8023 32.7509 29.6651C33.4181 28.7849 34.6319 28.4477 35.5885 29Z" fill="#323232"/>
</g>
<defs>
<clipPath id="clip0_3209_77195">
<rect width="40" height="40" fill="white"/>
</clipPath>
</defs>
</svg>
