<svg width="25" height="24" viewBox="0 0 25 24" fill="none" xmlns="http://www.w3.org/2000/svg">
<g clip-path="url(#clip0_1508_47079)">
<path d="M12.9893 2C7.45926 2 2.98926 6.47 2.98926 12C2.98926 17.53 7.45926 22 12.9893 22C18.5193 22 22.9893 17.53 22.9893 12C22.9893 6.47 18.5193 2 12.9893 2ZM17.2893 16.3C16.8993 16.69 16.2693 16.69 15.8793 16.3L12.9893 13.41L10.0993 16.3C9.70926 16.69 9.07926 16.69 8.68926 16.3C8.29926 15.91 8.29926 15.28 8.68926 14.89L11.5793 12L8.68926 9.11C8.29926 8.72 8.29926 8.09 8.68926 7.7C9.07926 7.31 9.70926 7.31 10.0993 7.7L12.9893 10.59L15.8793 7.7C16.2693 7.31 16.8993 7.31 17.2893 7.7C17.6793 8.09 17.6793 8.72 17.2893 9.11L14.3993 12L17.2893 14.89C17.6693 15.27 17.6693 15.91 17.2893 16.3Z" fill="#323232"/>
</g>
<defs>
<clipPath id="clip0_1508_47079">
<rect width="24" height="24" fill="white" transform="translate(0.989258)"/>
</clipPath>
</defs>
</svg>
