<svg width="25" height="24" viewBox="0 0 25 24" fill="none" xmlns="http://www.w3.org/2000/svg">
<g clip-path="url(#clip0_75_8198)">
<path d="M12.9793 2C7.45926 2 2.98926 6.48 2.98926 12C2.98926 17.52 7.45926 22 12.9793 22C18.5093 22 22.9893 17.52 22.9893 12C22.9893 6.48 18.5093 2 12.9793 2ZM12.9893 20C8.56926 20 4.98926 16.42 4.98926 12C4.98926 7.58 8.56926 4 12.9893 4C17.4093 4 20.9893 7.58 20.9893 12C20.9893 16.42 17.4093 20 12.9893 20ZM12.7693 7H12.7093C12.3093 7 11.9893 7.32 11.9893 7.72V12.44C11.9893 12.79 12.1693 13.12 12.4793 13.3L16.6293 15.79C16.9693 15.99 17.4093 15.89 17.6093 15.55C17.8193 15.21 17.7093 14.76 17.3593 14.56L13.4893 12.26V7.72C13.4893 7.32 13.1693 7 12.7693 7Z" fill="#323232"/>
</g>
<defs>
<clipPath id="clip0_75_8198">
<rect width="24" height="24" fill="white" transform="translate(0.989258)"/>
</clipPath>
</defs>
</svg>
