<svg width="25" height="24" viewBox="0 0 25 24" fill="none" xmlns="http://www.w3.org/2000/svg">
<g clip-path="url(#clip0_3771_116217)">
<path d="M20.9883 3H6.98828C5.88828 3 4.98828 3.9 4.98828 5V13C4.98828 15.21 6.77828 17 8.98828 17H14.9883C17.1983 17 18.9883 15.21 18.9883 13V10H20.9883C22.0983 10 22.9883 9.1 22.9883 8V5C22.9883 3.9 22.0883 3 20.9883 3ZM20.9883 8H18.9883V5H20.9883V8ZM5.98828 19H19.9883C20.5383 19 20.9883 19.45 20.9883 20C20.9883 20.55 20.5383 21 19.9883 21H5.98828C5.43828 21 4.98828 20.55 4.98828 20C4.98828 19.45 5.43828 19 5.98828 19Z" fill="#323232"/>
</g>
<defs>
<clipPath id="clip0_3771_116217">
<rect width="24" height="24" fill="white" transform="translate(0.988281)"/>
</clipPath>
</defs>
</svg>
