<svg width="25" height="24" viewBox="0 0 25 24" fill="none" xmlns="http://www.w3.org/2000/svg">
<g clip-path="url(#clip0_555_20270)">
<path d="M15.9893 1H4.98926C3.88926 1 2.98926 1.9 2.98926 3V16C2.98926 16.55 3.43926 17 3.98926 17C4.53926 17 4.98926 16.55 4.98926 16V4C4.98926 3.45 5.43926 3 5.98926 3H15.9893C16.5393 3 16.9893 2.55 16.9893 2C16.9893 1.45 16.5393 1 15.9893 1ZM19.9893 5H8.98926C7.88926 5 6.98926 5.9 6.98926 7V21C6.98926 22.1 7.88926 23 8.98926 23H19.9893C21.0893 23 21.9893 22.1 21.9893 21V7C21.9893 5.9 21.0893 5 19.9893 5ZM18.9893 21H9.98926C9.43926 21 8.98926 20.55 8.98926 20V8C8.98926 7.45 9.43926 7 9.98926 7H18.9893C19.5393 7 19.9893 7.45 19.9893 8V20C19.9893 20.55 19.5393 21 18.9893 21Z" fill="#323232"/>
</g>
<defs>
<clipPath id="clip0_555_20270">
<rect width="24" height="24" fill="white" transform="translate(0.989258)"/>
</clipPath>
</defs>
</svg>
