<svg width="25" height="24" viewBox="0 0 25 24" fill="none" xmlns="http://www.w3.org/2000/svg">
<g clip-path="url(#clip0_686_22973)">
<path d="M6.98926 19C6.98926 20.1 7.88926 21 8.98926 21H16.9893C18.0893 21 18.9893 20.1 18.9893 19V9C18.9893 7.9 18.0893 7 16.9893 7H8.98926C7.88926 7 6.98926 7.9 6.98926 9V19ZM18.9893 4H16.4893L15.7793 3.29C15.5993 3.11 15.3393 3 15.0793 3H10.8993C10.6393 3 10.3793 3.11 10.1993 3.29L9.48926 4H6.98926C6.43926 4 5.98926 4.45 5.98926 5C5.98926 5.55 6.43926 6 6.98926 6H18.9893C19.5393 6 19.9893 5.55 19.9893 5C19.9893 4.45 19.5393 4 18.9893 4Z" fill="#323232"/>
</g>
<defs>
<clipPath id="clip0_686_22973">
<rect width="24" height="24" fill="white" transform="translate(0.989258)"/>
</clipPath>
</defs>
</svg>
