<svg width="19" height="18" viewBox="0 0 19 18" fill="none" xmlns="http://www.w3.org/2000/svg">
<path d="M16.9883 10V15C16.9883 15.55 16.5383 16 15.9883 16H3.98828C3.43828 16 2.98828 15.55 2.98828 15V10C2.98828 9.45 2.53828 9 1.98828 9C1.43828 9 0.988281 9.45 0.988281 10V16C0.988281 17.1 1.88828 18 2.98828 18H16.9883C18.0883 18 18.9883 17.1 18.9883 16V10C18.9883 9.45 18.5383 9 17.9883 9C17.4383 9 16.9883 9.45 16.9883 10ZM10.9883 9.67L12.8683 7.79C13.2583 7.4 13.8883 7.4 14.2783 7.79C14.6683 8.18 14.6683 8.81 14.2783 9.2L10.6883 12.79C10.2983 13.18 9.66828 13.18 9.27828 12.79L5.68828 9.2C5.29828 8.81 5.29828 8.18 5.68828 7.79C6.07828 7.4 6.70828 7.4 7.09828 7.79L8.98828 9.67V1C8.98828 0.45 9.43828 0 9.98828 0C10.5383 0 10.9883 0.45 10.9883 1V9.67Z" fill="#191919"/>
</svg>
