<svg width="25" height="24" viewBox="0 0 25 24" fill="none" xmlns="http://www.w3.org/2000/svg">
<path d="M19.9883 13V18C19.9883 18.55 19.5383 19 18.9883 19H6.98828C6.43828 19 5.98828 18.55 5.98828 18V13C5.98828 12.45 5.53828 12 4.98828 12C4.43828 12 3.98828 12.45 3.98828 13V19C3.98828 20.1 4.88828 21 5.98828 21H19.9883C21.0883 21 21.9883 20.1 21.9883 19V13C21.9883 12.45 21.5383 12 20.9883 12C20.4383 12 19.9883 12.45 19.9883 13ZM13.9883 12.67L15.8683 10.79C16.2583 10.4 16.8883 10.4 17.2783 10.79C17.6683 11.18 17.6683 11.81 17.2783 12.2L13.6883 15.79C13.2983 16.18 12.6683 16.18 12.2783 15.79L8.68828 12.2C8.29828 11.81 8.29828 11.18 8.68828 10.79C9.07828 10.4 9.70828 10.4 10.0983 10.79L11.9883 12.67V4C11.9883 3.45 12.4383 3 12.9883 3C13.5383 3 13.9883 3.45 13.9883 4V12.67Z" fill="#191919"/>
</svg>
