<svg width="20" height="20" viewBox="0 0 20 20" fill="none" xmlns="http://www.w3.org/2000/svg">
<g clip-path="url(#clip0_3312_95902)">
<path d="M13.3333 8.33203H6.66667C6.20833 8.33203 5.83333 8.70703 5.83333 9.16536C5.83333 9.6237 6.20833 9.9987 6.66667 9.9987H13.3333C13.7917 9.9987 14.1667 9.6237 14.1667 9.16536C14.1667 8.70703 13.7917 8.33203 13.3333 8.33203ZM15.8333 2.4987H15V1.66536C15 1.20703 14.625 0.832031 14.1667 0.832031C13.7083 0.832031 13.3333 1.20703 13.3333 1.66536V2.4987H6.66667V1.66536C6.66667 1.20703 6.29167 0.832031 5.83333 0.832031C5.375 0.832031 5 1.20703 5 1.66536V2.4987H4.16667C3.24167 2.4987 2.5 3.2487 2.5 4.16536V15.832C2.5 16.7487 3.24167 17.4987 4.16667 17.4987H15.8333C16.75 17.4987 17.5 16.7487 17.5 15.832V4.16536C17.5 3.2487 16.75 2.4987 15.8333 2.4987ZM15 15.832H5C4.54167 15.832 4.16667 15.457 4.16667 14.9987V6.66536H15.8333V14.9987C15.8333 15.457 15.4583 15.832 15 15.832ZM10.8333 11.6654H6.66667C6.20833 11.6654 5.83333 12.0404 5.83333 12.4987C5.83333 12.957 6.20833 13.332 6.66667 13.332H10.8333C11.2917 13.332 11.6667 12.957 11.6667 12.4987C11.6667 12.0404 11.2917 11.6654 10.8333 11.6654Z" fill="#333333"/>
</g>
<defs>
<clipPath id="clip0_3312_95902">
<rect width="20" height="20" fill="white"/>
</clipPath>
</defs>
</svg>
