<svg width="25" height="24" viewBox="0 0 25 24" fill="none" xmlns="http://www.w3.org/2000/svg">
<g clip-path="url(#clip0_75_8132)">
<path d="M10.9869 19.3279V14.3279H14.9869V19.3279C14.9869 19.8779 15.4369 20.3279 15.9869 20.3279H18.9869C19.5369 20.3279 19.9869 19.8779 19.9869 19.3279V12.3279H21.6869C22.1469 12.3279 22.3669 11.7579 22.0169 11.4579L13.6569 3.92785C13.2769 3.58785 12.6969 3.58785 12.3169 3.92785L3.95691 11.4579C3.61691 11.7579 3.82691 12.3279 4.28691 12.3279H5.98691V19.3279C5.98691 19.8779 6.43691 20.3279 6.98691 20.3279H9.98691C10.5369 20.3279 10.9869 19.8779 10.9869 19.3279Z" fill="#323232"/>
</g>
<defs>
<clipPath id="clip0_75_8132">
<rect width="24" height="24" fill="white" transform="translate(0.989258)"/>
</clipPath>
</defs>
</svg>
