<svg width="25" height="24" viewBox="0 0 25 24" fill="none" xmlns="http://www.w3.org/2000/svg">
<path d="M4.98828 13C5.53828 13 5.98828 12.55 5.98828 12C5.98828 11.45 5.53828 11 4.98828 11C4.43828 11 3.98828 11.45 3.98828 12C3.98828 12.55 4.43828 13 4.98828 13ZM4.98828 17C5.53828 17 5.98828 16.55 5.98828 16C5.98828 15.45 5.53828 15 4.98828 15C4.43828 15 3.98828 15.45 3.98828 16C3.98828 16.55 4.43828 17 4.98828 17ZM4.98828 9C5.53828 9 5.98828 8.55 5.98828 8C5.98828 7.45 5.53828 7 4.98828 7C4.43828 7 3.98828 7.45 3.98828 8C3.98828 8.55 4.43828 9 4.98828 9ZM8.98828 13H20.9883C21.5383 13 21.9883 12.55 21.9883 12C21.9883 11.45 21.5383 11 20.9883 11H8.98828C8.43828 11 7.98828 11.45 7.98828 12C7.98828 12.55 8.43828 13 8.98828 13ZM8.98828 17H20.9883C21.5383 17 21.9883 16.55 21.9883 16C21.9883 15.45 21.5383 15 20.9883 15H8.98828C8.43828 15 7.98828 15.45 7.98828 16C7.98828 16.55 8.43828 17 8.98828 17ZM7.98828 8C7.98828 8.55 8.43828 9 8.98828 9H20.9883C21.5383 9 21.9883 8.55 21.9883 8C21.9883 7.45 21.5383 7 20.9883 7H8.98828C8.43828 7 7.98828 7.45 7.98828 8ZM4.98828 13C5.53828 13 5.98828 12.55 5.98828 12C5.98828 11.45 5.53828 11 4.98828 11C4.43828 11 3.98828 11.45 3.98828 12C3.98828 12.55 4.43828 13 4.98828 13ZM4.98828 17C5.53828 17 5.98828 16.55 5.98828 16C5.98828 15.45 5.53828 15 4.98828 15C4.43828 15 3.98828 15.45 3.98828 16C3.98828 16.55 4.43828 17 4.98828 17ZM4.98828 9C5.53828 9 5.98828 8.55 5.98828 8C5.98828 7.45 5.53828 7 4.98828 7C4.43828 7 3.98828 7.45 3.98828 8C3.98828 8.55 4.43828 9 4.98828 9ZM8.98828 13H20.9883C21.5383 13 21.9883 12.55 21.9883 12C21.9883 11.45 21.5383 11 20.9883 11H8.98828C8.43828 11 7.98828 11.45 7.98828 12C7.98828 12.55 8.43828 13 8.98828 13ZM8.98828 17H20.9883C21.5383 17 21.9883 16.55 21.9883 16C21.9883 15.45 21.5383 15 20.9883 15H8.98828C8.43828 15 7.98828 15.45 7.98828 16C7.98828 16.55 8.43828 17 8.98828 17ZM7.98828 8C7.98828 8.55 8.43828 9 8.98828 9H20.9883C21.5383 9 21.9883 8.55 21.9883 8C21.9883 7.45 21.5383 7 20.9883 7H8.98828C8.43828 7 7.98828 7.45 7.98828 8Z" fill="#191919"/>
</svg>
