<svg width="25" height="24" viewBox="0 0 25 24" fill="none" xmlns="http://www.w3.org/2000/svg">
<g clip-path="url(#clip0_1197_60308)">
<path d="M4.98828 5L11.9883 5C12.5383 5 12.9883 4.55 12.9883 4C12.9883 3.45 12.5383 3 11.9883 3L4.98828 3C3.88828 3 2.98828 3.9 2.98828 5L2.98828 19C2.98828 20.1 3.88828 21 4.98828 21L11.9883 21C12.5383 21 12.9883 20.55 12.9883 20C12.9883 19.45 12.5383 19 11.9883 19L4.98828 19L4.98828 5Z" fill="#191919"/>
<path d="M16.2873 14.9013C15.8973 15.2913 15.8973 15.9113 16.2873 16.3013C16.6773 16.6913 17.2973 16.6913 17.6873 16.3013L21.2773 12.7013C21.6673 12.3113 21.6673 11.6813 21.2773 11.2913L17.6873 7.70125C17.2973 7.31125 16.6773 7.31125 16.2873 7.70125C15.8973 8.09125 15.8973 8.71125 16.2873 9.10125L18.1873 11.0013L8.98726 11.0012C8.43726 11.0012 7.98726 11.4512 7.98726 12.0012C7.98726 12.5512 8.43726 13.0012 8.98726 13.0012L18.1873 13.0013L16.2873 14.9013Z" fill="#191919"/>
</g>
<defs>
<clipPath id="clip0_1197_60308">
<rect width="24" height="24" fill="white" transform="translate(0.988281)"/>
</clipPath>
</defs>
</svg>