<svg width="25" height="24" viewBox="0 0 25 24" fill="none" xmlns="http://www.w3.org/2000/svg">
<g clip-path="url(#clip0_75_8179)">
<path d="M12.9893 8C14.0893 8 14.9893 7.1 14.9893 6C14.9893 4.9 14.0893 4 12.9893 4C11.8893 4 10.9893 4.9 10.9893 6C10.9893 7.1 11.8893 8 12.9893 8ZM12.9893 10C11.8893 10 10.9893 10.9 10.9893 12C10.9893 13.1 11.8893 14 12.9893 14C14.0893 14 14.9893 13.1 14.9893 12C14.9893 10.9 14.0893 10 12.9893 10ZM12.9893 16C11.8893 16 10.9893 16.9 10.9893 18C10.9893 19.1 11.8893 20 12.9893 20C14.0893 20 14.9893 19.1 14.9893 18C14.9893 16.9 14.0893 16 12.9893 16Z" fill="#323232"/>
</g>
<defs>
<clipPath id="clip0_75_8179">
<rect width="24" height="24" fill="white" transform="translate(0.989258)"/>
</clipPath>
</defs>
</svg>
