<svg width="25" height="24" viewBox="0 0 25 24" fill="none" xmlns="http://www.w3.org/2000/svg">
<g clip-path="url(#clip0_315_15250)">
<path d="M21.9893 3H3.98926C2.88926 3 1.98926 3.9 1.98926 5V17C1.98926 18.1 2.88926 19 3.98926 19H8.98926V20C8.98926 20.55 9.43926 21 9.98926 21H15.9893C16.5393 21 16.9893 20.55 16.9893 20V19H21.9893C23.0893 19 23.9793 18.1 23.9793 17L23.9893 5C23.9893 3.89 23.0893 3 21.9893 3ZM20.9893 17H4.98926C4.43926 17 3.98926 16.55 3.98926 16V6C3.98926 5.45 4.43926 5 4.98926 5H20.9893C21.5393 5 21.9893 5.45 21.9893 6V16C21.9893 16.55 21.5393 17 20.9893 17Z" fill="#323232"/>
</g>
<defs>
<clipPath id="clip0_315_15250">
<rect width="24" height="24" fill="white" transform="translate(0.989258)"/>
</clipPath>
</defs>
</svg>
