<svg width="25" height="24" viewBox="0 0 25 24" fill="none" xmlns="http://www.w3.org/2000/svg">
<g clip-path="url(#clip0_315_15235)">
<path d="M19.9893 2H15.8093C15.3893 0.84 14.2893 0 12.9893 0C11.6893 0 10.5893 0.84 10.1693 2H5.98926C4.88926 2 3.98926 2.9 3.98926 4V20C3.98926 21.1 4.88926 22 5.98926 22H19.9893C21.0893 22 21.9893 21.1 21.9893 20V4C21.9893 2.9 21.0893 2 19.9893 2ZM12.9893 2C13.5393 2 13.9893 2.45 13.9893 3C13.9893 3.55 13.5393 4 12.9893 4C12.4393 4 11.9893 3.55 11.9893 3C11.9893 2.45 12.4393 2 12.9893 2ZM18.9893 20H6.98926C6.43926 20 5.98926 19.55 5.98926 19V5C5.98926 4.45 6.43926 4 6.98926 4H7.98926V5C7.98926 6.1 8.88926 7 9.98926 7H15.9893C17.0893 7 17.9893 6.1 17.9893 5V4H18.9893C19.5393 4 19.9893 4.45 19.9893 5V19C19.9893 19.55 19.5393 20 18.9893 20Z" fill="#323232"/>
</g>
<defs>
<clipPath id="clip0_315_15235">
<rect width="24" height="24" fill="white" transform="translate(0.989258)"/>
</clipPath>
</defs>
</svg>
