<svg width="25" height="24" viewBox="0 0 25 24" fill="none" xmlns="http://www.w3.org/2000/svg">
<g clip-path="url(#clip0_311_12580)">
<path fill-rule="evenodd" clip-rule="evenodd" d="M19.9893 12.87C19.9893 12.4 19.6493 12.02 19.1893 11.89C17.9193 11.54 16.9893 10.38 16.9893 9V4H17.9893C18.5393 4 18.9893 3.55 18.9893 3C18.9893 2.45 18.5393 2 17.9893 2H7.98926C7.43926 2 6.98926 2.45 6.98926 3C6.98926 3.55 7.43926 4 7.98926 4H8.98926V9C8.98926 10.38 8.05926 11.54 6.78926 11.89C6.32926 12.02 5.98926 12.4 5.98926 12.87V13C5.98926 13.55 6.43926 14 6.98926 14H11.9693L11.9893 21C11.9893 21.55 12.4393 22 12.9893 22C13.5393 22 13.9893 21.55 13.9893 21L13.9693 14H18.9893C19.5393 14 19.9893 13.55 19.9893 13V12.87Z" fill="#323232"/>
</g>
<defs>
<clipPath id="clip0_311_12580">
<rect width="24" height="24" fill="white" transform="translate(0.989258)"/>
</clipPath>
</defs>
</svg>
