<svg width="25" height="24" viewBox="0 0 25 24" fill="none" xmlns="http://www.w3.org/2000/svg">
<g clip-path="url(#clip0_315_15227)">
<path d="M12.9883 12C14.0883 12 14.9883 11.1 14.9883 10C14.9883 8.9 14.0883 8 12.9883 8C11.8883 8 10.9883 8.9 10.9883 10C10.9883 11.1 11.8883 12 12.9883 12ZM12.9883 2C17.1883 2 20.9883 5.22 20.9883 10.2C20.9883 13.38 18.5383 17.12 13.6483 21.43C13.2683 21.76 12.6983 21.76 12.3183 21.43C7.43828 17.12 4.98828 13.38 4.98828 10.2C4.98828 5.22 8.78828 2 12.9883 2Z" fill="#191919"/>
</g>
<defs>
<clipPath id="clip0_315_15227">
<rect width="24" height="24" fill="white" transform="translate(0.988281)"/>
</clipPath>
</defs>
</svg>
