<svg width="25" height="24" viewBox="0 0 25 24" fill="none" xmlns="http://www.w3.org/2000/svg">
<g clip-path="url(#clip0_75_8111)">
<path d="M12.9893 2C7.46926 2 2.98926 6.48 2.98926 12C2.98926 17.52 7.46926 22 12.9893 22C18.5093 22 22.9893 17.52 22.9893 12C22.9893 6.48 18.5093 2 12.9893 2ZM12.9893 5C14.6493 5 15.9893 6.34 15.9893 8C15.9893 9.66 14.6493 11 12.9893 11C11.3293 11 9.98926 9.66 9.98926 8C9.98926 6.34 11.3293 5 12.9893 5ZM12.9893 19.2C10.4893 19.2 8.27926 17.92 6.98926 15.98C7.01926 13.99 10.9893 12.9 12.9893 12.9C14.9793 12.9 18.9593 13.99 18.9893 15.98C17.6993 17.92 15.4893 19.2 12.9893 19.2Z" fill="#323232"/>
</g>
<defs>
<clipPath id="clip0_75_8111">
<rect width="24" height="24" fill="white" transform="translate(0.989258)"/>
</clipPath>
</defs>
</svg>
