<svg width="25" height="24" viewBox="0 0 25 24" fill="none" xmlns="http://www.w3.org/2000/svg">
<g clip-path="url(#clip0_686_22698)">
<path d="M12.9893 3.99954V2.20954C12.9893 1.75954 12.4493 1.53954 12.1393 1.85954L9.33926 4.64954C9.13926 4.84954 9.13926 5.15954 9.33926 5.35954L12.1293 8.14954C12.4493 8.45954 12.9893 8.23954 12.9893 7.78954V5.99954C16.2993 5.99954 18.9893 8.68954 18.9893 11.9995C18.9893 12.7895 18.8393 13.5595 18.5493 14.2495C18.3993 14.6095 18.5093 15.0195 18.7793 15.2895C19.2893 15.7995 20.1493 15.6195 20.4193 14.9495C20.7893 14.0395 20.9893 13.0395 20.9893 11.9995C20.9893 7.57954 17.4093 3.99954 12.9893 3.99954ZM12.9893 17.9995C9.67926 17.9995 6.98926 15.3095 6.98926 11.9995C6.98926 11.2095 7.13926 10.4395 7.42926 9.74954C7.57926 9.38954 7.46926 8.97954 7.19926 8.70954C6.68926 8.19954 5.82926 8.37954 5.55926 9.04954C5.18926 9.95954 4.98926 10.9595 4.98926 11.9995C4.98926 16.4195 8.56926 19.9995 12.9893 19.9995V21.7895C12.9893 22.2395 13.5293 22.4595 13.8393 22.1395L16.6293 19.3495C16.8293 19.1495 16.8293 18.8395 16.6293 18.6395L13.8393 15.8495C13.5293 15.5395 12.9893 15.7595 12.9893 16.2095V17.9995Z" fill="#323232"/>
</g>
<defs>
<clipPath id="clip0_686_22698">
<rect width="24" height="24" fill="white" transform="translate(0.989258)"/>
</clipPath>
</defs>
</svg>
