<svg width="25" height="24" viewBox="0 0 25 24" fill="none" xmlns="http://www.w3.org/2000/svg">
<g clip-path="url(#clip0_75_8201)">
<path d="M16.4889 13.9996H15.6989L15.4189 13.7296C16.6189 12.3296 17.2389 10.4196 16.8989 8.38965C16.4289 5.60965 14.1089 3.38965 11.3089 3.04965C7.07891 2.52965 3.51891 6.08965 4.03891 10.3196C4.37891 13.1196 6.59891 15.4396 9.37891 15.9096C11.4089 16.2496 13.3189 15.6296 14.7189 14.4296L14.9889 14.7096V15.4996L19.2389 19.7496C19.6489 20.1596 20.3189 20.1596 20.7289 19.7496C21.1389 19.3396 21.1389 18.6696 20.7289 18.2596L16.4889 13.9996ZM10.4889 13.9996C7.99891 13.9996 5.98891 11.9896 5.98891 9.49965C5.98891 7.00965 7.99891 4.99965 10.4889 4.99965C12.9789 4.99965 14.9889 7.00965 14.9889 9.49965C14.9889 11.9896 12.9789 13.9996 10.4889 13.9996Z" fill="#323232"/>
</g>
<defs>
<clipPath id="clip0_75_8201">
<rect width="24" height="24" fill="white" transform="translate(0.989258)"/>
</clipPath>
</defs>
</svg>
