<svg width="25" height="24" viewBox="0 0 25 24" fill="none" xmlns="http://www.w3.org/2000/svg">
<g clip-path="url(#clip0_75_8212)">
<path d="M20.4191 12.98C20.4591 12.66 20.4891 12.34 20.4891 12C20.4891 11.66 20.4591 11.34 20.4191 11.02L22.5291 9.37C22.7191 9.22 22.7691 8.95 22.6491 8.73L20.6491 5.27C20.5291 5.05 20.2591 4.97 20.0391 5.05L17.5491 6.05C17.0291 5.65 16.4691 5.32 15.8591 5.07L15.4791 2.42C15.4491 2.18 15.2391 2 14.9891 2H10.9891C10.7391 2 10.5291 2.18 10.4991 2.42L10.1191 5.07C9.5091 5.32 8.9491 5.66 8.4291 6.05L5.9391 5.05C5.7091 4.96 5.4491 5.05 5.3291 5.27L3.3291 8.73C3.1991 8.95 3.2591 9.22 3.4491 9.37L5.5591 11.02C5.5191 11.34 5.4891 11.67 5.4891 12C5.4891 12.33 5.5191 12.66 5.5591 12.98L3.4491 14.63C3.2591 14.78 3.2091 15.05 3.3291 15.27L5.3291 18.73C5.4491 18.95 5.7191 19.03 5.9391 18.95L8.4291 17.95C8.9491 18.35 9.5091 18.68 10.1191 18.93L10.4991 21.58C10.5291 21.82 10.7391 22 10.9891 22H14.9891C15.2391 22 15.4491 21.82 15.4791 21.58L15.8591 18.93C16.4691 18.68 17.0291 18.34 17.5491 17.95L20.0391 18.95C20.2691 19.04 20.5291 18.95 20.6491 18.73L22.6491 15.27C22.7691 15.05 22.7191 14.78 22.5291 14.63L20.4191 12.98ZM12.9891 15.5C11.0591 15.5 9.4891 13.93 9.4891 12C9.4891 10.07 11.0591 8.5 12.9891 8.5C14.9191 8.5 16.4891 10.07 16.4891 12C16.4891 13.93 14.9191 15.5 12.9891 15.5Z" fill="#323232"/>
</g>
<defs>
<clipPath id="clip0_75_8212">
<rect width="24" height="24" fill="white" transform="translate(0.989258)"/>
</clipPath>
</defs>
</svg>
