<svg width="25" height="24" viewBox="0 0 25 24" fill="none" xmlns="http://www.w3.org/2000/svg">
<g clip-path="url(#clip0_315_15140)">
<path d="M13.079 2.90995C11.069 0.899954 8.05902 0.489954 5.63902 1.66995L9.26902 5.29995C9.65902 5.68995 9.65902 6.31995 9.26902 6.70995L7.67902 8.29995C7.28902 8.69995 6.65902 8.69995 6.26902 8.29995L2.63902 4.66995C1.46902 7.09995 1.87902 10.09 3.88902 12.1C5.74902 13.96 8.46902 14.45 10.779 13.58L18.739 21.54C19.769 22.57 21.429 22.57 22.449 21.54C23.479 20.51 23.479 18.85 22.449 17.83L14.529 9.89995C15.449 7.55995 14.969 4.79995 13.079 2.90995Z" fill="#323232"/>
</g>
<defs>
<clipPath id="clip0_315_15140">
<rect width="24" height="24" fill="white" transform="translate(0.989258)"/>
</clipPath>
</defs>
</svg>
