<svg width="43" height="23" viewBox="0 0 43 23" fill="none" xmlns="http://www.w3.org/2000/svg">
<g clip-path="url(#clip0_1583_47531)">
<path d="M6.38848 7.34375H9.53426V4.84375C9.53426 3.46875 10.6667 2.34375 12.0509 2.34375L39.4677 2.34375C40.8519 2.34375 41.9844 3.46875 41.9844 4.84375V16.0938C41.9844 17.4688 40.8519 18.5938 39.4677 18.5938C39.4677 20.6688 37.7816 22.3438 35.6928 22.3438C33.604 22.3438 31.9179 20.6688 31.9179 18.5938H12.0509C12.0509 20.6688 10.3647 22.3438 8.27595 22.3438C6.18715 22.3438 4.50101 20.6688 4.50101 18.5938H3.24269C2.55062 18.5938 1.98438 18.0312 1.98438 17.3438V13.1813C1.98438 12.6438 2.16054 12.1188 2.4877 11.6813L5.38183 7.84375C5.62091 7.53125 5.99841 7.34375 6.38848 7.34375ZM35.6928 19.8438C36.3849 19.8438 36.9511 19.2812 36.9511 18.5938C36.9511 17.9063 36.3849 17.3438 35.6928 17.3438C35.0007 17.3438 34.4345 17.9063 34.4345 18.5938C34.4345 19.2812 35.0007 19.8438 35.6928 19.8438ZM6.38848 9.21875L3.92218 12.3438H9.53426V9.21875H6.38848ZM8.27595 19.8438C8.96802 19.8438 9.53426 19.2812 9.53426 18.5938C9.53426 17.9063 8.96802 17.3438 8.27595 17.3438C7.58388 17.3438 7.01764 17.9063 7.01764 18.5938C7.01764 19.2812 7.58388 19.8438 8.27595 19.8438Z" fill="#333333"/>
</g>
<defs>
<clipPath id="clip0_1583_47531">
<rect width="42" height="22" fill="white" transform="translate(0.984375 0.34375)"/>
</clipPath>
</defs>
</svg>
