<svg width="43" height="23" viewBox="0 0 43 23" fill="none" xmlns="http://www.w3.org/2000/svg">
<g clip-path="url(#clip0_1583_49552)">
<path d="M5.7088 7.34375H8.85458V4.84375C8.85458 3.46875 9.98705 2.34375 11.3712 2.34375L38.7881 2.34375C40.1722 2.34375 41.3047 3.46875 41.3047 4.84375V16.0938C41.3047 17.4688 40.1722 18.5938 38.7881 18.5938C38.7881 20.6688 37.1019 22.3438 35.0131 22.3438C32.9243 22.3438 31.2382 20.6688 31.2382 18.5938H11.3712C11.3712 20.6688 9.68506 22.3438 7.59626 22.3438C5.50746 22.3438 3.82132 20.6688 3.82132 18.5938H2.563C1.87093 18.5938 1.30469 18.0312 1.30469 17.3438V13.1813C1.30469 12.6438 1.48085 12.1188 1.80801 11.6813L4.70214 7.84375C4.94122 7.53125 5.31872 7.34375 5.7088 7.34375ZM35.0131 19.8438C35.7052 19.8438 36.2714 19.2812 36.2714 18.5938C36.2714 17.9063 35.7052 17.3438 35.0131 17.3438C34.321 17.3438 33.7548 17.9063 33.7548 18.5938C33.7548 19.2812 34.321 19.8438 35.0131 19.8438ZM5.7088 9.21875L3.2425 12.3438H8.85458V9.21875H5.7088ZM7.59626 19.8438C8.28833 19.8438 8.85458 19.2812 8.85458 18.5938C8.85458 17.9063 8.28833 17.3438 7.59626 17.3438C6.90419 17.3438 6.33795 17.9063 6.33795 18.5938C6.33795 19.2812 6.90419 19.8438 7.59626 19.8438Z" fill="#333333"/>
</g>
<path d="M20.5195 13.9609C18.5801 13.9609 17.1914 12.9414 17.1914 11.5586C17.1914 10.4922 18.0117 9.625 19.0664 9.46094V9.40234C18.1465 9.22656 17.5137 8.45898 17.5195 7.52734C17.5137 6.20898 18.7852 5.24219 20.5195 5.24219C22.2539 5.24219 23.5254 6.20898 23.5312 7.52734C23.5254 8.45898 22.875 9.22656 21.9844 9.40234V9.46094C23.0156 9.625 23.8477 10.4922 23.8477 11.5586C23.8477 12.9414 22.4531 13.9609 20.5195 13.9609ZM19.0312 11.3828C19.0254 12.1094 19.623 12.6191 20.5195 12.6133C21.416 12.6191 22.0137 12.1094 22.0078 11.3828C22.0137 10.6504 21.3809 10.1113 20.5195 10.1055C19.6582 10.1113 19.0254 10.6445 19.0312 11.3828ZM19.2422 7.70312C19.2363 8.38281 19.7695 8.85742 20.5195 8.86328C21.2637 8.85742 21.8027 8.38281 21.8086 7.70312C21.8027 7.04102 21.2754 6.57812 20.5195 6.57812C19.7578 6.57812 19.2363 7.04102 19.2422 7.70312ZM24.7734 6.8125V5.35938H31.7227V6.8125H29.1211V13.8438H27.375V6.8125H24.7734Z" fill="white"/>
<defs>
<clipPath id="clip0_1583_49552">
<rect width="42" height="22" fill="white" transform="translate(0.304688 0.34375)"/>
</clipPath>
</defs>
</svg>
