<svg width="43" height="23" viewBox="0 0 43 23" fill="none" xmlns="http://www.w3.org/2000/svg">
<g clip-path="url(#clip0_1583_49545)">
<path d="M5.7088 7.34375H8.85458V4.84375C8.85458 3.46875 9.98705 2.34375 11.3712 2.34375L38.7881 2.34375C40.1722 2.34375 41.3047 3.46875 41.3047 4.84375V16.0938C41.3047 17.4688 40.1722 18.5938 38.7881 18.5938C38.7881 20.6688 37.1019 22.3438 35.0131 22.3438C32.9243 22.3438 31.2382 20.6688 31.2382 18.5938H11.3712C11.3712 20.6688 9.68506 22.3438 7.59626 22.3438C5.50746 22.3438 3.82132 20.6688 3.82132 18.5938H2.563C1.87093 18.5938 1.30469 18.0312 1.30469 17.3438V13.1813C1.30469 12.6438 1.48085 12.1188 1.80801 11.6813L4.70214 7.84375C4.94122 7.53125 5.31872 7.34375 5.7088 7.34375ZM35.0131 19.8438C35.7052 19.8438 36.2714 19.2812 36.2714 18.5938C36.2714 17.9063 35.7052 17.3438 35.0131 17.3438C34.321 17.3438 33.7548 17.9063 33.7548 18.5938C33.7548 19.2812 34.321 19.8438 35.0131 19.8438ZM5.7088 9.21875L3.2425 12.3438H8.85458V9.21875H5.7088ZM7.59626 19.8438C8.28833 19.8438 8.85458 19.2812 8.85458 18.5938C8.85458 17.9063 8.28833 17.3438 7.59626 17.3438C6.90419 17.3438 6.33795 17.9063 6.33795 18.5938C6.33795 19.2812 6.90419 19.8438 7.59626 19.8438Z" fill="#333333"/>
</g>
<path d="M13.3867 13.8438L13.375 12.5664L16.4219 9.76562C17.2129 9.00977 17.6406 8.54102 17.6406 7.86719C17.6406 7.11133 17.0723 6.64258 16.293 6.64844C15.4961 6.64258 14.9746 7.14648 14.9805 7.96094H13.3047C13.2988 6.30273 14.5293 5.24219 16.3164 5.24219C18.1328 5.24219 19.3398 6.2793 19.3398 7.75C19.3398 8.7168 18.8711 9.50781 17.125 11.0898L15.8359 12.3438V12.3906H19.457V13.8438H13.3867ZM21.7422 13.9492C21.1914 13.9492 20.7461 13.5098 20.7578 12.9648C20.7461 12.4258 21.1914 11.9863 21.7422 11.9922C22.2637 11.9863 22.7148 12.4258 22.7148 12.9648C22.7148 13.5098 22.2637 13.9492 21.7422 13.9492ZM27.1445 13.9609C25.375 13.9609 24.0801 12.918 24.0508 11.4531H25.7617C25.8027 12.1152 26.4062 12.5723 27.1445 12.5664C28.0234 12.5723 28.6504 11.9512 28.6445 11.0664C28.6504 10.1641 28.0117 9.53711 27.1211 9.53125C26.4824 9.53125 26.0371 9.77148 25.7852 10.2461H24.1914L24.6484 5.35938H29.875V6.80078H26.1016L25.8672 8.94531H25.9375C26.248 8.5293 26.8926 8.22461 27.6367 8.23047C29.1953 8.22461 30.3555 9.39062 30.3555 11.0195C30.3555 12.7363 29.0547 13.9609 27.1445 13.9609ZM31.2695 6.8125V5.35938H38.2188V6.8125H35.6172V13.8438H33.8711V6.8125H31.2695Z" fill="white"/>
<defs>
<clipPath id="clip0_1583_49545">
<rect width="42" height="22" fill="white" transform="translate(0.304688 0.34375)"/>
</clipPath>
</defs>
</svg>
