<svg width="43" height="23" viewBox="0 0 43 23" fill="none" xmlns="http://www.w3.org/2000/svg">
<g clip-path="url(#clip0_1583_49550)">
<path d="M5.7088 7.34375H8.85458V4.84375C8.85458 3.46875 9.98705 2.34375 11.3712 2.34375L38.7881 2.34375C40.1722 2.34375 41.3047 3.46875 41.3047 4.84375V16.0938C41.3047 17.4688 40.1722 18.5938 38.7881 18.5938C38.7881 20.6688 37.1019 22.3438 35.0131 22.3438C32.9243 22.3438 31.2382 20.6688 31.2382 18.5938H11.3712C11.3712 20.6688 9.68506 22.3438 7.59626 22.3438C5.50746 22.3438 3.82132 20.6688 3.82132 18.5938H2.563C1.87093 18.5938 1.30469 18.0312 1.30469 17.3438V13.1813C1.30469 12.6438 1.48085 12.1188 1.80801 11.6813L4.70214 7.84375C4.94122 7.53125 5.31872 7.34375 5.7088 7.34375ZM35.0131 19.8438C35.7052 19.8438 36.2714 19.2812 36.2714 18.5938C36.2714 17.9063 35.7052 17.3438 35.0131 17.3438C34.321 17.3438 33.7548 17.9063 33.7548 18.5938C33.7548 19.2812 34.321 19.8438 35.0131 19.8438ZM5.7088 9.21875L3.2425 12.3438H8.85458V9.21875H5.7088ZM7.59626 19.8438C8.28833 19.8438 8.85458 19.2812 8.85458 18.5938C8.85458 17.9063 8.28833 17.3438 7.59626 17.3438C6.90419 17.3438 6.33795 17.9063 6.33795 18.5938C6.33795 19.2812 6.90419 19.8438 7.59626 19.8438Z" fill="#333333"/>
</g>
<path d="M15.7344 13.9609C13.8711 13.9609 12.5352 12.9355 12.5 11.4531H14.2812C14.3105 12.0859 14.9258 12.502 15.7461 12.5078C16.5898 12.502 17.1934 12.0332 17.1875 11.3477C17.1934 10.6562 16.5781 10.1699 15.582 10.1641H14.7969V8.86328H15.582C16.4199 8.86328 17.0059 8.40625 17 7.73828C17.0059 7.08789 16.5078 6.64258 15.7578 6.64844C15.0078 6.64258 14.3926 7.06445 14.3633 7.71484H12.6758C12.7051 6.25586 14.0176 5.24219 15.7578 5.24219C17.5273 5.24219 18.7051 6.29102 18.6992 7.63281C18.7051 8.58203 18.043 9.25586 17.0938 9.42578V9.49609C18.3418 9.64844 19.0273 10.4043 19.0156 11.4648C19.0273 12.918 17.6504 13.9609 15.7344 13.9609ZM21.043 13.9492C20.4922 13.9492 20.0469 13.5098 20.0586 12.9648C20.0469 12.4258 20.4922 11.9863 21.043 11.9922C21.5645 11.9863 22.0156 12.4258 22.0156 12.9648C22.0156 13.5098 21.5645 13.9492 21.043 13.9492ZM26.4453 13.9609C24.6758 13.9609 23.3809 12.918 23.3516 11.4531H25.0625C25.1035 12.1152 25.707 12.5723 26.4453 12.5664C27.3242 12.5723 27.9512 11.9512 27.9453 11.0664C27.9512 10.1641 27.3125 9.53711 26.4219 9.53125C25.7832 9.53125 25.3379 9.77148 25.0859 10.2461H23.4922L23.9492 5.35938H29.1758V6.80078H25.4023L25.168 8.94531H25.2383C25.5488 8.5293 26.1934 8.22461 26.9375 8.23047C28.4961 8.22461 29.6562 9.39062 29.6562 11.0195C29.6562 12.7363 28.3555 13.9609 26.4453 13.9609ZM30.5703 6.8125V5.35938H37.5195V6.8125H34.918V13.8438H33.1719V6.8125H30.5703Z" fill="white"/>
<defs>
<clipPath id="clip0_1583_49550">
<rect width="42" height="22" fill="white" transform="translate(0.304688 0.34375)"/>
</clipPath>
</defs>
</svg>
