<svg width="43" height="23" viewBox="0 0 43 23" fill="none" xmlns="http://www.w3.org/2000/svg">
<g clip-path="url(#clip0_1583_49547)">
<path d="M5.7088 7.34375H8.85458V4.84375C8.85458 3.46875 9.98705 2.34375 11.3712 2.34375L38.7881 2.34375C40.1722 2.34375 41.3047 3.46875 41.3047 4.84375V16.0938C41.3047 17.4688 40.1722 18.5938 38.7881 18.5938C38.7881 20.6688 37.1019 22.3438 35.0131 22.3438C32.9243 22.3438 31.2382 20.6688 31.2382 18.5938H11.3712C11.3712 20.6688 9.68506 22.3438 7.59626 22.3438C5.50746 22.3438 3.82132 20.6688 3.82132 18.5938H2.563C1.87093 18.5938 1.30469 18.0312 1.30469 17.3438V13.1813C1.30469 12.6438 1.48085 12.1188 1.80801 11.6813L4.70214 7.84375C4.94122 7.53125 5.31872 7.34375 5.7088 7.34375ZM35.0131 19.8438C35.7052 19.8438 36.2714 19.2812 36.2714 18.5938C36.2714 17.9063 35.7052 17.3438 35.0131 17.3438C34.321 17.3438 33.7548 17.9063 33.7548 18.5938C33.7548 19.2812 34.321 19.8438 35.0131 19.8438ZM5.7088 9.21875L3.2425 12.3438H8.85458V9.21875H5.7088ZM7.59626 19.8438C8.28833 19.8438 8.85458 19.2812 8.85458 18.5938C8.85458 17.9063 8.28833 17.3438 7.59626 17.3438C6.90419 17.3438 6.33795 17.9063 6.33795 18.5938C6.33795 19.2812 6.90419 19.8438 7.59626 19.8438Z" fill="#333333"/>
</g>
<path d="M18.2461 5.35938V13.8438H16.4766V7.03516H16.4297L14.4844 8.25391V6.69531L16.582 5.35938H18.2461ZM20.7891 13.9492C20.2383 13.9492 19.793 13.5098 19.8047 12.9648C19.793 12.4258 20.2383 11.9863 20.7891 11.9922C21.3105 11.9863 21.7617 12.4258 21.7617 12.9648C21.7617 13.5098 21.3105 13.9492 20.7891 13.9492ZM23.1445 13.8438L23.1328 12.5664L26.1797 9.76562C26.9707 9.00977 27.3984 8.54102 27.3984 7.86719C27.3984 7.11133 26.8301 6.64258 26.0508 6.64844C25.2539 6.64258 24.7324 7.14648 24.7383 7.96094H23.0625C23.0566 6.30273 24.2871 5.24219 26.0742 5.24219C27.8906 5.24219 29.0977 6.2793 29.0977 7.75C29.0977 8.7168 28.6289 9.50781 26.8828 11.0898L25.5938 12.3438V12.3906H29.2148V13.8438H23.1445ZM30.1875 6.8125V5.35938H37.1367V6.8125H34.5352V13.8438H32.7891V6.8125H30.1875Z" fill="white"/>
<defs>
<clipPath id="clip0_1583_49547">
<rect width="42" height="22" fill="white" transform="translate(0.304688 0.34375)"/>
</clipPath>
</defs>
</svg>
