<svg width="43" height="23" viewBox="0 0 43 23" fill="none" xmlns="http://www.w3.org/2000/svg">
<g clip-path="url(#clip0_1583_49543)">
<path d="M5.7088 7.34375H8.85458V4.84375C8.85458 3.46875 9.98705 2.34375 11.3712 2.34375L38.7881 2.34375C40.1722 2.34375 41.3047 3.46875 41.3047 4.84375V16.0938C41.3047 17.4688 40.1722 18.5938 38.7881 18.5938C38.7881 20.6688 37.1019 22.3438 35.0131 22.3438C32.9243 22.3438 31.2382 20.6688 31.2382 18.5938H11.3712C11.3712 20.6688 9.68506 22.3438 7.59626 22.3438C5.50746 22.3438 3.82132 20.6688 3.82132 18.5938H2.563C1.87093 18.5938 1.30469 18.0312 1.30469 17.3438V13.1813C1.30469 12.6438 1.48085 12.1188 1.80801 11.6813L4.70214 7.84375C4.94122 7.53125 5.31872 7.34375 5.7088 7.34375ZM35.0131 19.8438C35.7052 19.8438 36.2714 19.2812 36.2714 18.5938C36.2714 17.9063 35.7052 17.3438 35.0131 17.3438C34.321 17.3438 33.7548 17.9063 33.7548 18.5938C33.7548 19.2812 34.321 19.8438 35.0131 19.8438ZM5.7088 9.21875L3.2425 12.3438H8.85458V9.21875H5.7088ZM7.59626 19.8438C8.28833 19.8438 8.85458 19.2812 8.85458 18.5938C8.85458 17.9063 8.28833 17.3438 7.59626 17.3438C6.90419 17.3438 6.33795 17.9063 6.33795 18.5938C6.33795 19.2812 6.90419 19.8438 7.59626 19.8438Z" fill="#333333"/>
</g>
<path d="M21.2031 13.9609C19.4336 13.9609 18.1387 12.918 18.1094 11.4531H19.8203C19.8613 12.1152 20.4648 12.5723 21.2031 12.5664C22.082 12.5723 22.709 11.9512 22.7031 11.0664C22.709 10.1641 22.0703 9.53711 21.1797 9.53125C20.541 9.53125 20.0957 9.77148 19.8438 10.2461H18.25L18.707 5.35938H23.9336V6.80078H20.1602L19.9258 8.94531H19.9961C20.3066 8.5293 20.9512 8.22461 21.6953 8.23047C23.2539 8.22461 24.4141 9.39062 24.4141 11.0195C24.4141 12.7363 23.1133 13.9609 21.2031 13.9609ZM25.3281 6.8125V5.35938H32.2773V6.8125H29.6758V13.8438H27.9297V6.8125H25.3281Z" fill="white"/>
<defs>
<clipPath id="clip0_1583_49543">
<rect width="42" height="22" fill="white" transform="translate(0.304688 0.34375)"/>
</clipPath>
</defs>
</svg>
