<svg width="43" height="23" viewBox="0 0 43 23" fill="none" xmlns="http://www.w3.org/2000/svg">
<g clip-path="url(#clip0_1583_49555)">
<path d="M5.7088 7.34375H8.85458V4.84375C8.85458 3.46875 9.98705 2.34375 11.3712 2.34375L38.7881 2.34375C40.1722 2.34375 41.3047 3.46875 41.3047 4.84375V16.0938C41.3047 17.4688 40.1722 18.5938 38.7881 18.5938C38.7881 20.6688 37.1019 22.3438 35.0131 22.3438C32.9243 22.3438 31.2382 20.6688 31.2382 18.5938H11.3712C11.3712 20.6688 9.68506 22.3438 7.59626 22.3438C5.50746 22.3438 3.82132 20.6688 3.82132 18.5938H2.563C1.87093 18.5938 1.30469 18.0312 1.30469 17.3438V13.1813C1.30469 12.6438 1.48085 12.1188 1.80801 11.6813L4.70214 7.84375C4.94122 7.53125 5.31872 7.34375 5.7088 7.34375ZM35.0131 19.8438C35.7052 19.8438 36.2714 19.2812 36.2714 18.5938C36.2714 17.9063 35.7052 17.3438 35.0131 17.3438C34.321 17.3438 33.7548 17.9063 33.7548 18.5938C33.7548 19.2812 34.321 19.8438 35.0131 19.8438ZM5.7088 9.21875L3.2425 12.3438H8.85458V9.21875H5.7088ZM7.59626 19.8438C8.28833 19.8438 8.85458 19.2812 8.85458 18.5938C8.85458 17.9063 8.28833 17.3438 7.59626 17.3438C6.90419 17.3438 6.33795 17.9063 6.33795 18.5938C6.33795 19.2812 6.90419 19.8438 7.59626 19.8438Z" fill="#333333"/>
</g>
<path d="M17.3945 5.35938V13.8438H15.625V7.03516H15.5781L13.6328 8.25391V6.69531L15.7305 5.35938H17.3945ZM19.9375 13.9492C19.3867 13.9492 18.9414 13.5098 18.9531 12.9648C18.9414 12.4258 19.3867 11.9863 19.9375 11.9922C20.459 11.9863 20.9102 12.4258 20.9102 12.9648C20.9102 13.5098 20.459 13.9492 19.9375 13.9492ZM22.1523 12.3438V10.9492L25.7383 5.35938H27.9531V10.9258H29.0312V12.3438H27.9531V13.8438H26.2773V12.3438H22.1523ZM23.9336 10.9258H26.3008V7.29297H26.2188L23.9336 10.8555V10.9258ZM29.8984 6.8125V5.35938H36.8477V6.8125H34.2461V13.8438H32.5V6.8125H29.8984Z" fill="white"/>
<defs>
<clipPath id="clip0_1583_49555">
<rect width="42" height="22" fill="white" transform="translate(0.304688 0.34375)"/>
</clipPath>
</defs>
</svg>
