<svg width="25" height="24" viewBox="0 0 25 24" fill="none" xmlns="http://www.w3.org/2000/svg">
<g clip-path="url(#clip0_315_15142)">
<path d="M5.48926 8H7.98926V6C7.98926 4.9 8.88926 4 9.98926 4H21.9893C23.0893 4 23.9893 4.9 23.9893 6V15C23.9893 16.1 23.0893 17 21.9893 17C21.9893 18.66 20.6493 20 18.9893 20C17.3293 20 15.9893 18.66 15.9893 17H9.98926C9.98926 18.66 8.64926 20 6.98926 20C5.32926 20 3.98926 18.66 3.98926 17H2.98926C2.43926 17 1.98926 16.55 1.98926 16V12.67C1.98926 12.24 2.12926 11.82 2.38926 11.47L4.68926 8.4C4.87926 8.15 5.17926 8 5.48926 8ZM18.9893 18C19.5393 18 19.9893 17.55 19.9893 17C19.9893 16.45 19.5393 16 18.9893 16C18.4393 16 17.9893 16.45 17.9893 17C17.9893 17.55 18.4393 18 18.9893 18ZM5.48926 9.5L3.52926 12H7.98926V9.5H5.48926ZM6.98926 18C7.53926 18 7.98926 17.55 7.98926 17C7.98926 16.45 7.53926 16 6.98926 16C6.43926 16 5.98926 16.45 5.98926 17C5.98926 17.55 6.43926 18 6.98926 18Z" fill="#323232"/>
</g>
<defs>
<clipPath id="clip0_315_15142">
<rect width="24" height="24" fill="white" transform="translate(0.989258)"/>
</clipPath>
</defs>
</svg>
