<svg width="25" height="24" viewBox="0 0 25 24" fill="none" xmlns="http://www.w3.org/2000/svg">
<g clip-path="url(#clip0_506_17917)">
<path d="M6.98828 2C5.88828 2 4.99828 2.9 4.99828 4L4.98828 20C4.98828 21.1 5.87828 22 6.97828 22H18.9883C20.0883 22 20.9883 21.1 20.9883 20V8.83C20.9883 8.3 20.7783 7.79 20.3983 7.42L15.5683 2.59C15.1983 2.21 14.6883 2 14.1583 2H6.98828ZM13.9883 8V3.5L19.4883 9H14.9883C14.4383 9 13.9883 8.55 13.9883 8Z" fill="#191919"/>
<path d="M14.6413 14.3993L13.5635 13.3216V18.2919C13.5635 18.6073 13.3055 18.8652 12.9902 18.8652C12.6749 18.8652 12.4169 18.6073 12.4169 18.2919V13.3216L11.3334 14.3993C11.1099 14.6229 10.7487 14.6229 10.5251 14.3993C10.3015 14.1758 10.3015 13.8146 10.5251 13.591L12.5832 11.5329C12.8068 11.3093 13.168 11.3093 13.3915 11.5329L15.4496 13.591C15.6732 13.8146 15.6732 14.1758 15.4496 14.3993C15.226 14.6229 14.8649 14.6229 14.6413 14.3993Z" fill="white"/>
</g>
<defs>
<clipPath id="clip0_506_17917">
<rect width="24" height="24" fill="white" transform="translate(0.988281)"/>
</clipPath>
</defs>
</svg>
