<svg width="25" height="24" viewBox="0 0 25 24" fill="none" xmlns="http://www.w3.org/2000/svg">
<g clip-path="url(#clip0_315_15236)">
<path d="M10.9893 16V8C10.9893 6.9 11.8793 6 12.9893 6H21.9893V5C21.9893 3.9 21.0893 3 19.9893 3H5.98926C4.87926 3 3.98926 3.9 3.98926 5V19C3.98926 20.1 4.87926 21 5.98926 21H19.9893C21.0893 21 21.9893 20.1 21.9893 19V18H12.9893C11.8793 18 10.9893 17.1 10.9893 16ZM13.9893 8C13.4393 8 12.9893 8.45 12.9893 9V15C12.9893 15.55 13.4393 16 13.9893 16H22.9893V8H13.9893ZM16.9893 13.5C16.1593 13.5 15.4893 12.83 15.4893 12C15.4893 11.17 16.1593 10.5 16.9893 10.5C17.8193 10.5 18.4893 11.17 18.4893 12C18.4893 12.83 17.8193 13.5 16.9893 13.5Z" fill="#323232"/>
</g>
<defs>
<clipPath id="clip0_315_15236">
<rect width="24" height="24" fill="white" transform="translate(0.989258)"/>
</clipPath>
</defs>
</svg>
