<svg width="24" height="24" viewBox="0 0 24 24" fill="none" xmlns="http://www.w3.org/2000/svg">
<path d="M4.47012 19.9997H19.5301C21.0701 19.9997 22.0301 18.3297 21.2601 16.9997L13.7301 3.98969C12.9601 2.65969 11.0401 2.65969 10.2701 3.98969L2.74012 16.9997C1.97012 18.3297 2.93012 19.9997 4.47012 19.9997ZM12.0001 12.9997C11.4501 12.9997 11.0001 12.5497 11.0001 11.9997V9.99969C11.0001 9.44969 11.4501 8.99969 12.0001 8.99969C12.5501 8.99969 13.0001 9.44969 13.0001 9.99969V11.9997C13.0001 12.5497 12.5501 12.9997 12.0001 12.9997ZM13.0001 16.9997H11.0001V14.9997H13.0001V16.9997Z" fill="#323232"/>
</svg>
