<svg width="43" height="23" viewBox="0 0 43 23" fill="none" xmlns="http://www.w3.org/2000/svg">
<g clip-path="url(#clip0_1583_49546)">
<path d="M5.61683 7.34375H8.6961V4.49732C8.60549 2.34375 8.82783 2.34375 11.1595 2.34375H37.1548C27.9535 2.34375 38.6367 2.34379 38.6367 4.84375V16.0937C38.6367 17.4687 37.5282 18.5937 36.1733 18.5937C36.1733 20.6687 34.5228 22.3437 32.4782 22.3437C30.4335 22.3437 28.7831 20.6687 28.7831 18.5937H11.1595C11.1595 20.6687 9.50902 22.3437 7.46438 22.3437C5.41975 22.3437 3.76926 20.6687 3.76926 18.5937H2.53755C1.86011 18.5937 1.30584 18.0312 1.30584 17.3437V13.1812C1.30584 12.6437 1.47828 12.1187 1.79852 11.6812L4.63145 7.84375C4.86548 7.53125 5.235 7.34375 5.61683 7.34375ZM32.4782 19.8437C33.1556 19.8437 33.7099 19.2812 33.7099 18.5937C33.7099 17.9062 33.1556 17.3437 32.4782 17.3437C31.8007 17.3437 31.2465 17.9062 31.2465 18.5937C31.2465 19.2812 31.8007 19.8437 32.4782 19.8437ZM5.61683 9.21875L3.20267 12.3437H8.6961V9.21875H5.61683ZM7.46438 19.8437C8.14182 19.8437 8.6961 19.2812 8.6961 18.5937C8.6961 17.9062 8.14182 17.3437 7.46438 17.3437C6.78694 17.3437 6.23268 17.9062 6.23268 18.5937C6.23268 19.2812 6.78694 19.8437 7.46438 19.8437Z" fill="#333333"/>
<path d="M8.70956 3.68696C8.47116 3.03453 8.9542 2.34375 9.64882 2.34375H37.9255C38.3454 2.34375 38.7206 2.60611 38.8647 3.00054L40.8136 8.33402C41.052 8.98646 40.569 9.67723 39.8743 9.67723H11.5977C11.1778 9.67723 10.8026 9.41487 10.6584 9.02044L8.70956 3.68696Z" fill="#5272E0"/>
</g>
<path d="M20.6172 13.9609C18.6777 13.9609 17.2891 12.9414 17.2891 11.5586C17.2891 10.4922 18.1094 9.625 19.1641 9.46094V9.40234C18.2441 9.22656 17.6113 8.45898 17.6172 7.52734C17.6113 6.20898 18.8828 5.24219 20.6172 5.24219C22.3516 5.24219 23.623 6.20898 23.6289 7.52734C23.623 8.45898 22.9727 9.22656 22.082 9.40234V9.46094C23.1133 9.625 23.9453 10.4922 23.9453 11.5586C23.9453 12.9414 22.5508 13.9609 20.6172 13.9609ZM19.1289 11.3828C19.123 12.1094 19.7207 12.6191 20.6172 12.6133C21.5137 12.6191 22.1113 12.1094 22.1055 11.3828C22.1113 10.6504 21.4785 10.1113 20.6172 10.1055C19.7559 10.1113 19.123 10.6445 19.1289 11.3828ZM19.3398 7.70312C19.334 8.38281 19.8672 8.85742 20.6172 8.86328C21.3613 8.85742 21.9004 8.38281 21.9062 7.70312C21.9004 7.04102 21.373 6.57812 20.6172 6.57812C19.8555 6.57812 19.334 7.04102 19.3398 7.70312ZM24.8711 6.8125V5.35938H31.8203V6.8125H29.2188V13.8438H27.4727V6.8125H24.8711Z" fill="white"/>
<defs>
<clipPath id="clip0_1583_49546">
<rect width="42" height="22" fill="white" transform="translate(0.304688 0.34375)"/>
</clipPath>
</defs>
</svg>
