<svg width="43" height="23" viewBox="0 0 43 23" fill="none" xmlns="http://www.w3.org/2000/svg">
<g clip-path="url(#clip0_1583_49539)">
<path d="M5.61683 7.34375H8.6961V4.49732C8.60549 2.34375 8.82783 2.34375 11.1595 2.34375H37.1548C27.9535 2.34375 38.6367 2.34379 38.6367 4.84375V16.0937C38.6367 17.4687 37.5282 18.5937 36.1733 18.5937C36.1733 20.6687 34.5228 22.3437 32.4782 22.3437C30.4335 22.3437 28.7831 20.6687 28.7831 18.5937H11.1595C11.1595 20.6687 9.50902 22.3437 7.46438 22.3437C5.41975 22.3437 3.76926 20.6687 3.76926 18.5937H2.53755C1.86011 18.5937 1.30584 18.0312 1.30584 17.3437V13.1812C1.30584 12.6437 1.47828 12.1187 1.79852 11.6812L4.63145 7.84375C4.86548 7.53125 5.235 7.34375 5.61683 7.34375ZM32.4782 19.8437C33.1556 19.8437 33.7099 19.2812 33.7099 18.5937C33.7099 17.9062 33.1556 17.3437 32.4782 17.3437C31.8007 17.3437 31.2465 17.9062 31.2465 18.5937C31.2465 19.2812 31.8007 19.8437 32.4782 19.8437ZM5.61683 9.21875L3.20267 12.3437H8.6961V9.21875H5.61683ZM7.46438 19.8437C8.14182 19.8437 8.6961 19.2812 8.6961 18.5937C8.6961 17.9062 8.14182 17.3437 7.46438 17.3437C6.78694 17.3437 6.23268 17.9062 6.23268 18.5937C6.23268 19.2812 6.78694 19.8437 7.46438 19.8437Z" fill="#333333"/>
<path d="M8.70956 3.68696C8.47116 3.03453 8.9542 2.34375 9.64882 2.34375H37.9255C38.3454 2.34375 38.7206 2.60611 38.8647 3.00054L40.8136 8.33402C41.052 8.98646 40.569 9.67723 39.8743 9.67723H11.5977C11.1778 9.67723 10.8026 9.41487 10.6584 9.02044L8.70956 3.68696Z" fill="#5272E0"/>
</g>
<path d="M20.5469 13.9609C18.7773 13.9609 17.4824 12.918 17.4531 11.4531H19.1641C19.2051 12.1152 19.8086 12.5723 20.5469 12.5664C21.4258 12.5723 22.0527 11.9512 22.0469 11.0664C22.0527 10.1641 21.4141 9.53711 20.5234 9.53125C19.8848 9.53125 19.4395 9.77148 19.1875 10.2461H17.5938L18.0508 5.35938H23.2773V6.80078H19.5039L19.2695 8.94531H19.3398C19.6504 8.5293 20.2949 8.22461 21.0391 8.23047C22.5977 8.22461 23.7578 9.39062 23.7578 11.0195C23.7578 12.7363 22.457 13.9609 20.5469 13.9609ZM24.6719 6.8125V5.35938H31.6211V6.8125H29.0195V13.8438H27.2734V6.8125H24.6719Z" fill="white"/>
<defs>
<clipPath id="clip0_1583_49539">
<rect width="42" height="22" fill="white" transform="translate(0.304688 0.34375)"/>
</clipPath>
</defs>
</svg>
