<svg width="43" height="23" viewBox="0 0 43 23" fill="none" xmlns="http://www.w3.org/2000/svg">
<g clip-path="url(#clip0_1583_49560)">
<path d="M5.61683 7.34375H8.6961V4.49732C8.60549 2.34375 8.82783 2.34375 11.1595 2.34375H37.1548C27.9535 2.34375 38.6367 2.34379 38.6367 4.84375V16.0937C38.6367 17.4687 37.5282 18.5937 36.1733 18.5937C36.1733 20.6687 34.5228 22.3437 32.4782 22.3437C30.4335 22.3437 28.7831 20.6687 28.7831 18.5937H11.1595C11.1595 20.6687 9.50902 22.3437 7.46438 22.3437C5.41975 22.3437 3.76926 20.6687 3.76926 18.5937H2.53755C1.86011 18.5937 1.30584 18.0312 1.30584 17.3437V13.1812C1.30584 12.6437 1.47828 12.1187 1.79852 11.6812L4.63145 7.84375C4.86548 7.53125 5.235 7.34375 5.61683 7.34375ZM32.4782 19.8437C33.1556 19.8437 33.7099 19.2812 33.7099 18.5937C33.7099 17.9062 33.1556 17.3437 32.4782 17.3437C31.8007 17.3437 31.2465 17.9062 31.2465 18.5937C31.2465 19.2812 31.8007 19.8437 32.4782 19.8437ZM5.61683 9.21875L3.20267 12.3437H8.6961V9.21875H5.61683ZM7.46438 19.8437C8.14182 19.8437 8.6961 19.2812 8.6961 18.5937C8.6961 17.9062 8.14182 17.3437 7.46438 17.3437C6.78694 17.3437 6.23268 17.9062 6.23268 18.5937C6.23268 19.2812 6.78694 19.8437 7.46438 19.8437Z" fill="#333333"/>
<path d="M8.70956 3.68696C8.47116 3.03453 8.9542 2.34375 9.64882 2.34375H37.9255C38.3454 2.34375 38.7206 2.60611 38.8647 3.00054L40.8136 8.33402C41.052 8.98646 40.569 9.67723 39.8743 9.67723H11.5977C11.1778 9.67723 10.8026 9.41487 10.6584 9.02044L8.70956 3.68696Z" fill="#5272E0"/>
</g>
<path d="M16.5859 5.35938V13.8438H14.8164V7.03516H14.7695L12.8242 8.25391V6.69531L14.9219 5.35938H16.5859ZM19.1289 13.9492C18.5781 13.9492 18.1328 13.5098 18.1445 12.9648C18.1328 12.4258 18.5781 11.9863 19.1289 11.9922C19.6504 11.9863 20.1016 12.4258 20.1016 12.9648C20.1016 13.5098 19.6504 13.9492 19.1289 13.9492ZM21.3438 12.3438V10.9492L24.9297 5.35938H27.1445V10.9258H28.2227V12.3438H27.1445V13.8438H25.4688V12.3438H21.3438ZM23.125 10.9258H25.4922V7.29297H25.4102L23.125 10.8555V10.9258ZM29.0898 6.8125V5.35938H36.0391V6.8125H33.4375V13.8438H31.6914V6.8125H29.0898Z" fill="white"/>
<defs>
<clipPath id="clip0_1583_49560">
<rect width="42" height="22" fill="white" transform="translate(0.304688 0.34375)"/>
</clipPath>
</defs>
</svg>
