<svg width="42" height="23" viewBox="0 0 42 23" fill="none" xmlns="http://www.w3.org/2000/svg">
<g clip-path="url(#clip0_1583_47532)">
<path d="M5.31214 7.34375H8.39141V4.49732C8.3008 2.34375 8.52314 2.34375 10.8548 2.34375H36.8501C27.6488 2.34375 38.332 2.34379 38.332 4.84375V16.0937C38.332 17.4687 37.2235 18.5937 35.8686 18.5937C35.8686 20.6687 34.2181 22.3437 32.1735 22.3437C30.1289 22.3437 28.4784 20.6687 28.4784 18.5937H10.8548C10.8548 20.6687 9.20433 22.3437 7.15969 22.3437C5.11506 22.3437 3.46458 20.6687 3.46458 18.5937H2.23286C1.55542 18.5937 1.00115 18.0312 1.00115 17.3437V13.1812C1.00115 12.6437 1.17359 12.1187 1.49384 11.6812L4.32677 7.84375C4.56079 7.53125 4.93031 7.34375 5.31214 7.34375ZM32.1735 19.8437C32.8509 19.8437 33.4052 19.2812 33.4052 18.5937C33.4052 17.9062 32.8509 17.3437 32.1735 17.3437C31.4961 17.3437 30.9418 17.9062 30.9418 18.5937C30.9418 19.2812 31.4961 19.8437 32.1735 19.8437ZM5.31214 9.21875L2.89799 12.3437H8.39141V9.21875H5.31214ZM7.15969 19.8437C7.83714 19.8437 8.39141 19.2812 8.39141 18.5937C8.39141 17.9062 7.83714 17.3437 7.15969 17.3437C6.48226 17.3437 5.92799 17.9062 5.92799 18.5937C5.92799 19.2812 6.48226 19.8437 7.15969 19.8437Z" fill="#333333"/>
<path d="M8.40488 3.68696C8.16647 3.03453 8.64951 2.34375 9.34414 2.34375H37.6208C38.0407 2.34375 38.4159 2.60611 38.56 3.00054L40.5089 8.33402C40.7473 8.98646 40.2643 9.67723 39.5697 9.67723H11.293C10.8731 9.67723 10.4979 9.41487 10.3538 9.02044L8.40488 3.68696Z" fill="#5272E0"/>
</g>
<defs>
<clipPath id="clip0_1583_47532">
<rect width="42" height="22" fill="white" transform="translate(0 0.34375)"/>
</clipPath>
</defs>
</svg>
