<svg width="43" height="23" viewBox="0 0 43 23" fill="none" xmlns="http://www.w3.org/2000/svg">
<g clip-path="url(#clip0_1583_49551)">
<path d="M5.61683 7.34375H8.6961V4.49732C8.60549 2.34375 8.82783 2.34375 11.1595 2.34375H37.1548C27.9535 2.34375 38.6367 2.34379 38.6367 4.84375V16.0937C38.6367 17.4687 37.5282 18.5937 36.1733 18.5937C36.1733 20.6687 34.5228 22.3437 32.4782 22.3437C30.4335 22.3437 28.7831 20.6687 28.7831 18.5937H11.1595C11.1595 20.6687 9.50902 22.3437 7.46438 22.3437C5.41975 22.3437 3.76926 20.6687 3.76926 18.5937H2.53755C1.86011 18.5937 1.30584 18.0312 1.30584 17.3437V13.1812C1.30584 12.6437 1.47828 12.1187 1.79852 11.6812L4.63145 7.84375C4.86548 7.53125 5.235 7.34375 5.61683 7.34375ZM32.4782 19.8437C33.1556 19.8437 33.7099 19.2812 33.7099 18.5937C33.7099 17.9062 33.1556 17.3437 32.4782 17.3437C31.8007 17.3437 31.2465 17.9062 31.2465 18.5937C31.2465 19.2812 31.8007 19.8437 32.4782 19.8437ZM5.61683 9.21875L3.20267 12.3437H8.6961V9.21875H5.61683ZM7.46438 19.8437C8.14182 19.8437 8.6961 19.2812 8.6961 18.5937C8.6961 17.9062 8.14182 17.3437 7.46438 17.3437C6.78694 17.3437 6.23268 17.9062 6.23268 18.5937C6.23268 19.2812 6.78694 19.8437 7.46438 19.8437Z" fill="#333333"/>
<path d="M8.70956 3.68696C8.47116 3.03453 8.9542 2.34375 9.64882 2.34375H37.9255C38.3454 2.34375 38.7206 2.60611 38.8647 3.00054L40.8136 8.33402C41.052 8.98646 40.569 9.67723 39.8743 9.67723H11.5977C11.1778 9.67723 10.8026 9.41487 10.6584 9.02044L8.70956 3.68696Z" fill="#5272E0"/>
</g>
<path d="M15.0781 13.9609C13.2148 13.9609 11.8789 12.9355 11.8438 11.4531H13.625C13.6543 12.0859 14.2695 12.502 15.0898 12.5078C15.9336 12.502 16.5371 12.0332 16.5312 11.3477C16.5371 10.6562 15.9219 10.1699 14.9258 10.1641H14.1406V8.86328H14.9258C15.7637 8.86328 16.3496 8.40625 16.3438 7.73828C16.3496 7.08789 15.8516 6.64258 15.1016 6.64844C14.3516 6.64258 13.7363 7.06445 13.707 7.71484H12.0195C12.0488 6.25586 13.3613 5.24219 15.1016 5.24219C16.8711 5.24219 18.0488 6.29102 18.043 7.63281C18.0488 8.58203 17.3867 9.25586 16.4375 9.42578V9.49609C17.6855 9.64844 18.3711 10.4043 18.3594 11.4648C18.3711 12.918 16.9941 13.9609 15.0781 13.9609ZM20.3867 13.9492C19.8359 13.9492 19.3906 13.5098 19.4023 12.9648C19.3906 12.4258 19.8359 11.9863 20.3867 11.9922C20.9082 11.9863 21.3594 12.4258 21.3594 12.9648C21.3594 13.5098 20.9082 13.9492 20.3867 13.9492ZM25.7891 13.9609C24.0195 13.9609 22.7246 12.918 22.6953 11.4531H24.4062C24.4473 12.1152 25.0508 12.5723 25.7891 12.5664C26.668 12.5723 27.2949 11.9512 27.2891 11.0664C27.2949 10.1641 26.6562 9.53711 25.7656 9.53125C25.127 9.53125 24.6816 9.77148 24.4297 10.2461H22.8359L23.293 5.35938H28.5195V6.80078H24.7461L24.5117 8.94531H24.582C24.8926 8.5293 25.5371 8.22461 26.2812 8.23047C27.8398 8.22461 29 9.39062 29 11.0195C29 12.7363 27.6992 13.9609 25.7891 13.9609ZM29.9141 6.8125V5.35938H36.8633V6.8125H34.2617V13.8438H32.5156V6.8125H29.9141Z" fill="white"/>
<defs>
<clipPath id="clip0_1583_49551">
<rect width="42" height="22" fill="white" transform="translate(0.304688 0.34375)"/>
</clipPath>
</defs>
</svg>
