<svg width="43" height="23" viewBox="0 0 43 23" fill="none" xmlns="http://www.w3.org/2000/svg">
<g clip-path="url(#clip0_1583_49540)">
<path d="M5.61683 7.34375H8.6961V4.49732C8.60549 2.34375 8.82783 2.34375 11.1595 2.34375H37.1548C27.9535 2.34375 38.6367 2.34379 38.6367 4.84375V16.0937C38.6367 17.4687 37.5282 18.5937 36.1733 18.5937C36.1733 20.6687 34.5228 22.3437 32.4782 22.3437C30.4335 22.3437 28.7831 20.6687 28.7831 18.5937H11.1595C11.1595 20.6687 9.50902 22.3437 7.46438 22.3437C5.41975 22.3437 3.76926 20.6687 3.76926 18.5937H2.53755C1.86011 18.5937 1.30584 18.0312 1.30584 17.3437V13.1812C1.30584 12.6437 1.47828 12.1187 1.79852 11.6812L4.63145 7.84375C4.86548 7.53125 5.235 7.34375 5.61683 7.34375ZM32.4782 19.8437C33.1556 19.8437 33.7099 19.2812 33.7099 18.5937C33.7099 17.9062 33.1556 17.3437 32.4782 17.3437C31.8007 17.3437 31.2465 17.9062 31.2465 18.5937C31.2465 19.2812 31.8007 19.8437 32.4782 19.8437ZM5.61683 9.21875L3.20267 12.3437H8.6961V9.21875H5.61683ZM7.46438 19.8437C8.14182 19.8437 8.6961 19.2812 8.6961 18.5937C8.6961 17.9062 8.14182 17.3437 7.46438 17.3437C6.78694 17.3437 6.23268 17.9062 6.23268 18.5937C6.23268 19.2812 6.78694 19.8437 7.46438 19.8437Z" fill="#333333"/>
<path d="M8.70956 3.68696C8.47116 3.03453 8.9542 2.34375 9.64882 2.34375H37.9255C38.3454 2.34375 38.7206 2.60611 38.8647 3.00054L40.8136 8.33402C41.052 8.98646 40.569 9.67723 39.8743 9.67723H11.5977C11.1778 9.67723 10.8026 9.41487 10.6584 9.02044L8.70956 3.68696Z" fill="#5272E0"/>
</g>
<path d="M12.4297 13.8438L12.418 12.5664L15.4648 9.76562C16.2559 9.00977 16.6836 8.54102 16.6836 7.86719C16.6836 7.11133 16.1152 6.64258 15.3359 6.64844C14.5391 6.64258 14.0176 7.14648 14.0234 7.96094H12.3477C12.3418 6.30273 13.5723 5.24219 15.3594 5.24219C17.1758 5.24219 18.3828 6.2793 18.3828 7.75C18.3828 8.7168 17.9141 9.50781 16.168 11.0898L14.8789 12.3438V12.3906H18.5V13.8438H12.4297ZM20.7852 13.9492C20.2344 13.9492 19.7891 13.5098 19.8008 12.9648C19.7891 12.4258 20.2344 11.9863 20.7852 11.9922C21.3066 11.9863 21.7578 12.4258 21.7578 12.9648C21.7578 13.5098 21.3066 13.9492 20.7852 13.9492ZM26.1875 13.9609C24.418 13.9609 23.123 12.918 23.0938 11.4531H24.8047C24.8457 12.1152 25.4492 12.5723 26.1875 12.5664C27.0664 12.5723 27.6934 11.9512 27.6875 11.0664C27.6934 10.1641 27.0547 9.53711 26.1641 9.53125C25.5254 9.53125 25.0801 9.77148 24.8281 10.2461H23.2344L23.6914 5.35938H28.918V6.80078H25.1445L24.9102 8.94531H24.9805C25.291 8.5293 25.9355 8.22461 26.6797 8.23047C28.2383 8.22461 29.3984 9.39062 29.3984 11.0195C29.3984 12.7363 28.0977 13.9609 26.1875 13.9609ZM30.3125 6.8125V5.35938H37.2617V6.8125H34.6602V13.8438H32.9141V6.8125H30.3125Z" fill="white"/>
<defs>
<clipPath id="clip0_1583_49540">
<rect width="42" height="22" fill="white" transform="translate(0.304688 0.34375)"/>
</clipPath>
</defs>
</svg>
