<svg width="25" height="24" viewBox="0 0 25 24" fill="none" xmlns="http://www.w3.org/2000/svg">
<g clip-path="url(#clip0_414_16935)">
<path d="M19.289 5.70973C18.899 5.31973 18.269 5.31973 17.879 5.70973L12.989 10.5897L8.09898 5.69973C7.70898 5.30973 7.07898 5.30973 6.68898 5.69973C6.29898 6.08973 6.29898 6.71973 6.68898 7.10973L11.579 11.9997L6.68898 16.8897C6.29898 17.2797 6.29898 17.9097 6.68898 18.2997C7.07898 18.6897 7.70898 18.6897 8.09898 18.2997L12.989 13.4097L17.879 18.2997C18.269 18.6897 18.899 18.6897 19.289 18.2997C19.679 17.9097 19.679 17.2797 19.289 16.8897L14.399 11.9997L19.289 7.10973C19.669 6.72973 19.669 6.08973 19.289 5.70973Z" fill="#323232"/>
</g>
<defs>
<clipPath id="clip0_414_16935">
<rect width="24" height="24" fill="white" transform="translate(0.989258)"/>
</clipPath>
</defs>
</svg>
