<svg xmlns="http://www.w3.org/2000/svg" style="display: none;">
  <symbol viewBox="0 0 24 24" id="arrowDown">
    <path d="M8.12 9.29 12 13.17l3.88-3.88a.996.996 0 1 1 1.41 1.41l-4.59 4.59a.996.996 0 0 1-1.41 0L6.7 10.7a.996.996 0 0 1 0-1.41c.39-.38 1.03-.39 1.42 0Z" />
  </symbol>
  <symbol viewBox="0 0 25 24" id="arrowLargeDoubleLeft">
    <g clip-path="url(#aba)">
      <path d="M22.867 2.99a1.25 1.25 0 0 0-1.77 0l-8.31 8.31a.996.996 0 0 0 0 1.41l8.31 8.31c.49.49 1.28.49 1.77 0s.49-1.28 0-1.77L15.627 12l7.25-7.25c.48-.48.48-1.28-.01-1.76Z" />
      <path d="M12.125 2.99a1.25 1.25 0 0 0-1.77 0l-8.31 8.31a.996.996 0 0 0 0 1.41l8.31 8.31c.49.49 1.28.49 1.77 0s.49-1.28 0-1.77L4.885 12l7.25-7.25c.48-.48.48-1.28-.01-1.76Z" />
    </g>
    <defs>
      <clipPath id="aba">
        <path fill="#fff" transform="translate(.494)" d="M0 0h24v24H0z" />
      </clipPath>
    </defs>
  </symbol>
  <symbol viewBox="0 0 25 24" id="arrowLargeDoubleRight">
    <g clip-path="url(#aca)">
      <path d="M2.122 21.01c.49.49 1.28.49 1.77 0l8.31-8.31a.996.996 0 0 0 0-1.41l-8.31-8.31a1.25 1.25 0 0 0-1.77 0 1.25 1.25 0 0 0 0 1.77L9.362 12l-7.25 7.25c-.48.48-.48 1.28.01 1.76Z" />
      <path d="M12.863 21.01c.49.49 1.28.49 1.77 0l8.31-8.31a.996.996 0 0 0 0-1.41l-8.31-8.31a1.25 1.25 0 0 0-1.77 0 1.25 1.25 0 0 0 0 1.77l7.24 7.25-7.25 7.25c-.48.48-.48 1.28.01 1.76Z" />
    </g>
    <defs>
      <clipPath id="aca">
        <path fill="#fff" transform="rotate(180 12.247 12)" d="M0 0h24v24H0z" />
      </clipPath>
    </defs>
  </symbol>
  <symbol viewBox="0 0 25 24" id="arrowLargeLeft">
    <g clip-path="url(#ada)">
      <path d="M17.114 2.99a1.25 1.25 0 0 0-1.77 0l-8.31 8.31a.996.996 0 0 0 0 1.41l8.31 8.31c.49.49 1.28.49 1.77 0s.49-1.28 0-1.77L9.874 12l7.25-7.25c.48-.48.48-1.28-.01-1.76Z" />
    </g>
    <defs>
      <clipPath id="ada">
        <path fill="#fff" transform="translate(.494)" d="M0 0h24v24H0z" />
      </clipPath>
    </defs>
  </symbol>
  <symbol viewBox="0 0 25 24" id="arrowLargeRight">
    <g clip-path="url(#aea)">
      <path d="M7.875 21.01c.49.49 1.28.49 1.77 0l8.31-8.31a.996.996 0 0 0 0-1.41l-8.31-8.31a1.25 1.25 0 0 0-1.77 0 1.25 1.25 0 0 0 0 1.77l7.24 7.25-7.25 7.25c-.48.48-.48 1.28.01 1.76Z" />
    </g>
    <defs>
      <clipPath id="aea">
        <path fill="#fff" transform="rotate(180 12.247 12)" d="M0 0h24v24H0z" />
      </clipPath>
    </defs>
  </symbol>
  <symbol viewBox="0 0 24 24" id="arrowLeft">
    <path d="M14.71 15.88 10.83 12l3.88-3.88a.996.996 0 1 0-1.41-1.41L8.71 11.3a.996.996 0 0 0 0 1.41l4.59 4.59c.39.39 1.02.39 1.41 0 .38-.39.39-1.03 0-1.42Z" />
  </symbol>
  <symbol viewBox="0 0 24 24" id="arrowRight">
    <path d="M9.29 15.88 13.17 12 9.29 8.12a.996.996 0 1 1 1.41-1.41l4.59 4.59c.39.39.39 1.02 0 1.41L10.7 17.3a.996.996 0 0 1-1.41 0c-.38-.39-.39-1.03 0-1.42Z" />
  </symbol>
  <symbol viewBox="0 0 24 24" id="arrowUp">
    <path d="M8.12 14.71 12 10.83l3.88 3.88a.996.996 0 1 0 1.41-1.41L12.7 8.71a.996.996 0 0 0-1.41 0L6.7 13.3a.996.996 0 0 0 0 1.41c.39.38 1.03.39 1.42 0Z" />
  </symbol>
  <symbol viewBox="0 0 25 24" id="bell">
    <path
      fill-rule="evenodd"
      clip-rule="evenodd"
      d="M14.979 21.01c0 1.1-.89 1.99-1.99 1.99s-1.99-.89-1.99-1.99h3.98Zm5.01-4.01 1.29 1.29c.63.63.19 1.71-.71 1.71H5.399c-.89 0-1.33-1.08-.7-1.71L5.989 17v-6c0-3.35 2.36-6.15 5.5-6.83V3c0-.83.67-1.5 1.5-1.5s1.5.67 1.5 1.5v1.17c3.14.68 5.5 3.48 5.5 6.83v6Z"
    />
  </symbol>
  <symbol viewBox="0 0 43 23" id="cargo">
    <g clip-path="url(#aja)">
      <path
        d="M6.372 7.344H11.54c.24 0 .494.06.494.36v6.693h27.418c2.578 0 2.517-.08 2.517 1.77v.87c0 1.375-1.133 1.557-2.517 1.557 0 2.075-1.685 3.75-3.774 3.75s-3.775-1.675-3.775-3.75H12.034c0 2.075-1.686 3.75-3.774 3.75-2.089 0-3.775-1.675-3.775-3.75H3.227a1.258 1.258 0 0 1-1.258-1.25V13.18c0-.537.176-1.062.503-1.5l2.894-3.837c.239-.313.616-.5 1.006-.5Zm29.306 12.5c.692 0 1.258-.563 1.258-1.25a1.258 1.258 0 0 0-2.516 0c0 .687.566 1.25 1.258 1.25ZM6.372 9.219l-2.466 3.125h5.612V9.219H6.372ZM8.26 19.844c.692 0 1.258-.563 1.258-1.25a1.258 1.258 0 0 0-2.517 0c0 .687.567 1.25 1.259 1.25Z"
        fill="#333"
      />
    </g>
    <defs>
      <clipPath id="aja">
        <path fill="#fff" transform="translate(.969 .344)" d="M0 0h42v22H0z" />
      </clipPath>
    </defs>
  </symbol>
  <symbol viewBox="0 0 43 23" id="cargo_1.2T">
    <g clip-path="url(#aka)">
      <path
        d="M5.708 7.344H10.876c.24 0 .494.06.494.36v6.693h27.418c2.578 0 2.517-.08 2.517 1.77v.87c0 1.375-1.133 1.557-2.517 1.557 0 2.075-1.686 3.75-3.774 3.75-2.089 0-3.775-1.675-3.775-3.75H11.37c0 2.075-1.686 3.75-3.774 3.75-2.089 0-3.775-1.675-3.775-3.75H2.563a1.258 1.258 0 0 1-1.258-1.25V13.18c0-.537.176-1.062.503-1.5l2.894-3.837c.239-.313.616-.5 1.006-.5Zm29.306 12.5c.692 0 1.258-.563 1.258-1.25a1.258 1.258 0 0 0-2.516 0c0 .687.566 1.25 1.258 1.25ZM5.708 9.219l-2.466 3.125h5.612V9.219H5.708Zm1.888 10.625c.691 0 1.258-.563 1.258-1.25a1.258 1.258 0 0 0-2.517 0c0 .687.567 1.25 1.259 1.25Z"
        fill="#333"
      />
    </g>
    <path
      d="M18.129 12.344h-1.77V5.535h-.047l-1.945 1.219V5.195l2.098-1.336h1.664v8.485Zm2.543.105a.997.997 0 0 1-.498-.129 1.028 1.028 0 0 1-.363-.357.954.954 0 0 1-.123-.498.912.912 0 0 1 .123-.486.997.997 0 0 1 1.342-.357.98.98 0 0 1 .357.357.964.964 0 0 1 0 .984c-.09.148-.21.268-.358.357a.943.943 0 0 1-.48.13Zm2.344-1.383 3.047-2.8c.3-.29.533-.528.697-.715.168-.192.297-.381.386-.569a1.43 1.43 0 0 0 .135-.615c0-.246-.058-.46-.175-.644a1.09 1.09 0 0 0-.481-.428 1.576 1.576 0 0 0-.691-.147c-.403-.003-.723.114-.961.352-.239.234-.356.555-.352.96h-1.676c0-.542.125-1.019.375-1.429a2.515 2.515 0 0 1 1.06-.955c.458-.222.983-.334 1.577-.334.598 0 1.125.108 1.582.322.457.211.81.506 1.06.885.255.38.381.813.381 1.301 0 .336-.064.658-.193.967-.129.304-.353.644-.674 1.02-.316.374-.765.825-1.347 1.353l-1.29 1.254v.047h3.622v1.453h-6.07l-.012-1.278ZM30.07 3.86h6.95v1.454h-2.602v7.03h-1.746v-7.03H30.07V3.859Z"
      fill="#333"
    />
    <defs>
      <clipPath id="aka">
        <path fill="#fff" transform="translate(.305 .344)" d="M0 0h42v22H0z" />
      </clipPath>
    </defs>
  </symbol>
  <symbol viewBox="0 0 43 23" id="cargo_1.4T">
    <g clip-path="url(#ala)">
      <path
        d="M5.708 7.344H10.876c.24 0 .494.06.494.36v6.693h27.418c2.578 0 2.517-.08 2.517 1.77v.87c0 1.375-1.133 1.557-2.517 1.557 0 2.075-1.686 3.75-3.774 3.75-2.089 0-3.775-1.675-3.775-3.75H11.37c0 2.075-1.686 3.75-3.774 3.75-2.089 0-3.775-1.675-3.775-3.75H2.563a1.258 1.258 0 0 1-1.258-1.25V13.18c0-.537.176-1.062.503-1.5l2.894-3.837c.239-.313.616-.5 1.006-.5Zm29.306 12.5c.692 0 1.258-.563 1.258-1.25a1.258 1.258 0 0 0-2.516 0c0 .687.566 1.25 1.258 1.25ZM5.708 9.219l-2.466 3.125h5.612V9.219H5.708Zm1.888 10.625c.691 0 1.258-.563 1.258-1.25a1.258 1.258 0 0 0-2.517 0c0 .687.567 1.25 1.259 1.25Z"
        fill="#333"
      />
    </g>
    <path
      d="M18.129 12.344h-1.77V5.535h-.047l-1.945 1.219V5.195l2.098-1.336h1.664v8.485Zm2.543.105a.997.997 0 0 1-.498-.129 1.028 1.028 0 0 1-.363-.357.954.954 0 0 1-.123-.498.912.912 0 0 1 .123-.486.997.997 0 0 1 1.342-.357.98.98 0 0 1 .357.357.964.964 0 0 1 0 .984c-.09.148-.21.268-.358.357a.943.943 0 0 1-.48.13Zm2.215-3 3.586-5.59h2.215v5.567h1.078v1.418h-1.078v1.5h-1.676v-1.5h-4.125V9.449Zm4.148-.023V5.793h-.082l-2.285 3.562v.07h2.367Zm3.598-5.567h6.949v1.454H34.98v7.03h-1.746v-7.03h-2.601V3.859Z"
      fill="#333"
    />
    <defs>
      <clipPath id="ala">
        <path fill="#fff" transform="translate(.305 .344)" d="M0 0h42v22H0z" />
      </clipPath>
    </defs>
  </symbol>
  <symbol viewBox="0 0 43 23" id="cargo_11T">
    <g clip-path="url(#ama)">
      <path
        d="M5.708 7.344H10.876c.24 0 .494.06.494.36v6.693h27.418c2.578 0 2.517-.08 2.517 1.77v.87c0 1.375-1.133 1.557-2.517 1.557 0 2.075-1.686 3.75-3.774 3.75-2.089 0-3.775-1.675-3.775-3.75H11.37c0 2.075-1.686 3.75-3.774 3.75-2.089 0-3.775-1.675-3.775-3.75H2.563a1.258 1.258 0 0 1-1.258-1.25V13.18c0-.537.176-1.062.503-1.5l2.894-3.837c.239-.313.616-.5 1.006-.5Zm29.306 12.5c.692 0 1.258-.563 1.258-1.25a1.258 1.258 0 0 0-2.516 0c0 .687.566 1.25 1.258 1.25ZM5.708 9.219l-2.466 3.125h5.612V9.219H5.708Zm1.888 10.625c.691 0 1.258-.563 1.258-1.25a1.258 1.258 0 0 0-2.517 0c0 .687.567 1.25 1.259 1.25Z"
        fill="#333"
      />
    </g>
    <path
      d="M20.629 12.344h-1.77V5.535h-.047l-1.945 1.219V5.195l2.098-1.336h1.664v8.485Zm5.625 0h-1.77V5.535h-.047l-1.945 1.219V5.195L24.59 3.86h1.664v8.485Zm1.687-8.485h6.95v1.454h-2.602v7.03h-1.746v-7.03h-2.602V3.859Z"
      fill="#333"
    />
    <defs>
      <clipPath id="ama">
        <path fill="#fff" transform="translate(.305 .344)" d="M0 0h42v22H0z" />
      </clipPath>
    </defs>
  </symbol>
  <symbol viewBox="0 0 43 23" id="cargo_1T">
    <g clip-path="url(#ana)">
      <path
        d="M5.708 7.344H10.876c.24 0 .494.06.494.36v6.693h27.418c2.578 0 2.517-.08 2.517 1.77v.87c0 1.375-1.133 1.557-2.517 1.557 0 2.075-1.686 3.75-3.774 3.75-2.089 0-3.775-1.675-3.775-3.75H11.37c0 2.075-1.686 3.75-3.774 3.75-2.089 0-3.775-1.675-3.775-3.75H2.563a1.258 1.258 0 0 1-1.258-1.25V13.18c0-.537.176-1.062.503-1.5l2.894-3.837c.239-.313.616-.5 1.006-.5Zm29.306 12.5c.692 0 1.258-.563 1.258-1.25a1.258 1.258 0 0 0-2.516 0c0 .687.566 1.25 1.258 1.25ZM5.708 9.219l-2.466 3.125h5.612V9.219H5.708Zm1.888 10.625c.691 0 1.258-.563 1.258-1.25a1.258 1.258 0 0 0-2.517 0c0 .687.567 1.25 1.259 1.25Z"
        fill="#333"
      />
    </g>
    <path
      d="M20.629 12.344h-1.77V5.535h-.047l-1.945 1.219V5.195l2.098-1.336h1.664v8.485Zm1.687-8.485h6.95v1.454h-2.602v7.03h-1.746v-7.03h-2.602V3.859Z"
      fill="#333"
    />
    <defs>
      <clipPath id="ana">
        <path fill="#fff" transform="translate(.305 .344)" d="M0 0h42v22H0z" />
      </clipPath>
    </defs>
  </symbol>
  <symbol viewBox="0 0 43 23" id="cargo_2.5T">
    <g clip-path="url(#aoa)">
      <path
        d="M5.708 7.344H10.876c.24 0 .494.06.494.36v6.693h27.418c2.578 0 2.517-.08 2.517 1.77v.87c0 1.375-1.133 1.557-2.517 1.557 0 2.075-1.686 3.75-3.774 3.75-2.089 0-3.775-1.675-3.775-3.75H11.37c0 2.075-1.686 3.75-3.774 3.75-2.089 0-3.775-1.675-3.775-3.75H2.563a1.258 1.258 0 0 1-1.258-1.25V13.18c0-.537.176-1.062.503-1.5l2.894-3.837c.239-.313.616-.5 1.006-.5Zm29.306 12.5c.692 0 1.258-.563 1.258-1.25a1.258 1.258 0 0 0-2.516 0c0 .687.566 1.25 1.258 1.25ZM5.708 9.219l-2.466 3.125h5.612V9.219H5.708Zm1.888 10.625c.691 0 1.258-.563 1.258-1.25a1.258 1.258 0 0 0-2.517 0c0 .687.567 1.25 1.259 1.25Z"
        fill="#333"
      />
    </g>
    <path
      d="m14.46 11.066 3.048-2.8c.3-.29.533-.528.697-.715a2.53 2.53 0 0 0 .387-.569 1.43 1.43 0 0 0 .135-.615c0-.246-.059-.46-.176-.644a1.09 1.09 0 0 0-.48-.428 1.576 1.576 0 0 0-.692-.147c-.402-.003-.723.114-.961.352-.238.234-.355.555-.352.96h-1.675c0-.542.125-1.019.375-1.429a2.515 2.515 0 0 1 1.06-.955c.457-.222.983-.334 1.576-.334.598 0 1.125.108 1.582.322.457.211.81.506 1.06.885.255.38.382.813.382 1.301 0 .336-.065.658-.194.967-.128.304-.353.644-.673 1.02-.317.374-.766.825-1.348 1.353l-1.29 1.254v.047h3.622v1.453h-6.07l-.012-1.278Zm8.368 1.383a.997.997 0 0 1-.861-.486.953.953 0 0 1-.123-.498.911.911 0 0 1 .123-.486.997.997 0 0 1 1.342-.357.98.98 0 0 1 .357.357.963.963 0 0 1 0 .984c-.09.148-.209.268-.357.357a.943.943 0 0 1-.48.13Zm5.402.012a3.74 3.74 0 0 1-1.576-.322 2.717 2.717 0 0 1-1.101-.891 2.262 2.262 0 0 1-.416-1.295h1.71c.012.215.08.408.206.58.129.168.295.299.498.393.207.094.433.14.68.14.288 0 .546-.062.773-.187.23-.129.408-.307.533-.533.129-.227.194-.487.194-.78 0-.296-.065-.56-.194-.79a1.355 1.355 0 0 0-.545-.546c-.23-.132-.492-.199-.785-.199-.637 0-1.082.239-1.336.715h-1.594l.457-4.887h5.227v1.442h-3.773l-.235 2.144h.07c.157-.215.39-.386.698-.515.308-.133.646-.2 1.013-.2.512 0 .973.12 1.383.358.414.238.738.57.973.996.234.426.351.904.351 1.436 0 .566-.134 1.074-.404 1.523-.27.445-.648.793-1.137 1.043-.484.25-1.04.375-1.67.375Zm4.125-8.602h6.95v1.454h-2.602v7.03h-1.746v-7.03h-2.602V3.859Z"
      fill="#333"
    />
    <defs>
      <clipPath id="aoa">
        <path fill="#fff" transform="translate(.305 .344)" d="M0 0h42v22H0z" />
      </clipPath>
    </defs>
  </symbol>
  <symbol viewBox="0 0 43 23" id="cargo_3.5T">
    <g clip-path="url(#apa)">
      <path
        d="M5.708 7.344H10.876c.24 0 .494.06.494.36v6.693h27.418c2.578 0 2.517-.08 2.517 1.77v.87c0 1.375-1.133 1.557-2.517 1.557 0 2.075-1.686 3.75-3.774 3.75-2.089 0-3.775-1.675-3.775-3.75H11.37c0 2.075-1.686 3.75-3.774 3.75-2.089 0-3.775-1.675-3.775-3.75H2.563a1.258 1.258 0 0 1-1.258-1.25V13.18c0-.537.176-1.062.503-1.5l2.894-3.837c.239-.313.616-.5 1.006-.5Zm29.306 12.5c.692 0 1.258-.563 1.258-1.25a1.258 1.258 0 0 0-2.516 0c0 .687.566 1.25 1.258 1.25ZM5.708 9.219l-2.466 3.125h5.612V9.219H5.708Zm1.888 10.625c.691 0 1.258-.563 1.258-1.25a1.258 1.258 0 0 0-2.517 0c0 .687.567 1.25 1.259 1.25Z"
        fill="#333"
      />
    </g>
    <path
      d="M17.113 12.46c-.613 0-1.164-.105-1.652-.316a2.772 2.772 0 0 1-1.149-.884 2.268 2.268 0 0 1-.433-1.307h1.781a.91.91 0 0 0 .205.55 1.3 1.3 0 0 0 .522.37c.218.09.465.135.738.135.277 0 .525-.049.744-.147.223-.101.395-.238.516-.41.12-.176.181-.377.181-.603 0-.23-.064-.434-.193-.61a1.266 1.266 0 0 0-.557-.422 2.202 2.202 0 0 0-.855-.152h-.785v-1.3h.785c.277 0 .523-.048.738-.141.215-.094.381-.227.498-.399a.992.992 0 0 0 .182-.586c0-.215-.05-.404-.152-.568a1.008 1.008 0 0 0-.434-.38 1.4 1.4 0 0 0-.645-.142c-.25 0-.48.045-.691.135a1.24 1.24 0 0 0-.51.37.927.927 0 0 0-.205.562h-1.687c.008-.477.146-.902.416-1.277a2.673 2.673 0 0 1 1.107-.88 3.73 3.73 0 0 1 1.559-.316c.578 0 1.09.106 1.535.317.45.21.795.498 1.037.86.246.364.37.769.37 1.214 0 .308-.067.59-.2.844-.133.25-.322.457-.569.62a2.24 2.24 0 0 1-.837.329v.07c.617.074 1.093.287 1.43.639.335.351.5.795.492 1.33.003.476-.135.906-.416 1.289-.278.379-.666.676-1.166.89-.5.211-1.067.317-1.7.317Zm5.309-.01a.997.997 0 0 1-.498-.13 1.028 1.028 0 0 1-.363-.357.954.954 0 0 1-.123-.498.912.912 0 0 1 .123-.486.997.997 0 0 1 1.342-.357.98.98 0 0 1 .357.357.964.964 0 0 1 0 .984c-.09.148-.21.268-.358.357a.943.943 0 0 1-.48.13Zm5.402.01a3.74 3.74 0 0 1-1.576-.321 2.716 2.716 0 0 1-1.102-.891 2.262 2.262 0 0 1-.416-1.295h1.711c.012.215.08.408.206.58.128.168.294.299.498.393.207.094.433.14.68.14.288 0 .546-.062.773-.187.23-.129.408-.307.533-.533.129-.227.193-.487.193-.78 0-.296-.064-.56-.193-.79a1.355 1.355 0 0 0-.545-.546c-.23-.132-.492-.199-.785-.199-.637 0-1.082.239-1.336.715H24.87l.457-4.887h5.227v1.442H26.78l-.234 2.144h.07c.156-.215.389-.386.697-.515.309-.133.647-.2 1.014-.2.512 0 .973.12 1.383.358.414.238.738.57.973.996.234.426.351.904.351 1.436 0 .566-.135 1.074-.404 1.523-.27.445-.649.793-1.137 1.043-.484.25-1.04.375-1.67.375Zm4.125-8.6h6.95v1.453h-2.602v7.03H34.55v-7.03h-2.602V3.859Z"
      fill="#333"
    />
    <defs>
      <clipPath id="apa">
        <path fill="#fff" transform="translate(.305 .344)" d="M0 0h42v22H0z" />
      </clipPath>
    </defs>
  </symbol>
  <symbol viewBox="0 0 43 23" id="cargo_5T">
    <g clip-path="url(#aqa)">
      <path
        d="M5.708 7.344H10.876c.24 0 .494.06.494.36v6.693h27.418c2.578 0 2.517-.08 2.517 1.77v.87c0 1.375-1.133 1.557-2.517 1.557 0 2.075-1.686 3.75-3.774 3.75-2.089 0-3.775-1.675-3.775-3.75H11.37c0 2.075-1.686 3.75-3.774 3.75-2.089 0-3.775-1.675-3.775-3.75H2.563a1.258 1.258 0 0 1-1.258-1.25V13.18c0-.537.176-1.062.503-1.5l2.894-3.837c.239-.313.616-.5 1.006-.5Zm29.306 12.5c.692 0 1.258-.563 1.258-1.25a1.258 1.258 0 0 0-2.516 0c0 .687.566 1.25 1.258 1.25ZM5.708 9.219l-2.466 3.125h5.612V9.219H5.708Zm1.888 10.625c.691 0 1.258-.563 1.258-1.25a1.258 1.258 0 0 0-2.517 0c0 .687.567 1.25 1.259 1.25Z"
        fill="#333"
      />
    </g>
    <path
      d="M20.09 12.46a3.74 3.74 0 0 1-1.576-.321 2.716 2.716 0 0 1-1.102-.891 2.262 2.262 0 0 1-.416-1.295h1.711c.012.215.08.408.205.58.129.168.295.299.498.393.207.094.434.14.68.14.289 0 .547-.062.773-.187.23-.129.409-.307.534-.533.128-.227.193-.487.193-.78 0-.296-.065-.56-.194-.79a1.356 1.356 0 0 0-.544-.546c-.23-.132-.493-.199-.786-.199-.636 0-1.082.239-1.335.715h-1.594l.457-4.887h5.226v1.442h-3.773l-.235 2.144h.07c.157-.215.39-.386.698-.515.309-.133.647-.2 1.014-.2.511 0 .972.12 1.383.358.414.238.738.57.972.996.235.426.352.904.352 1.436 0 .566-.135 1.074-.404 1.523-.27.445-.649.793-1.137 1.043-.485.25-1.041.375-1.67.375Zm4.125-8.6h6.95v1.453h-2.602v7.03h-1.747v-7.03h-2.601V3.859Z"
      fill="#333"
    />
    <defs>
      <clipPath id="aqa">
        <path fill="#fff" transform="translate(.305 .344)" d="M0 0h42v22H0z" />
      </clipPath>
    </defs>
  </symbol>
  <symbol viewBox="0 0 43 23" id="cargo_8T">
    <g clip-path="url(#ara)">
      <path
        d="M5.708 7.344H10.876c.24 0 .494.06.494.36v6.693h27.418c2.578 0 2.517-.08 2.517 1.77v.87c0 1.375-1.133 1.557-2.517 1.557 0 2.075-1.686 3.75-3.774 3.75-2.089 0-3.775-1.675-3.775-3.75H11.37c0 2.075-1.686 3.75-3.774 3.75-2.089 0-3.775-1.675-3.775-3.75H2.563a1.258 1.258 0 0 1-1.258-1.25V13.18c0-.537.176-1.062.503-1.5l2.894-3.837c.239-.313.616-.5 1.006-.5Zm29.306 12.5c.692 0 1.258-.563 1.258-1.25a1.258 1.258 0 0 0-2.516 0c0 .687.566 1.25 1.258 1.25ZM5.708 9.219l-2.466 3.125h5.612V9.219H5.708Zm1.888 10.625c.691 0 1.258-.563 1.258-1.25a1.258 1.258 0 0 0-2.517 0c0 .687.567 1.25 1.259 1.25Z"
        fill="#333"
      />
    </g>
    <path
      d="M20.16 12.46c-.637 0-1.209-.103-1.717-.31-.504-.207-.898-.492-1.183-.855a1.965 1.965 0 0 1-.428-1.236 2 2 0 0 1 .246-.973c.164-.3.389-.549.674-.744.289-.2.607-.326.955-.381v-.059a1.937 1.937 0 0 1-.809-.351 1.86 1.86 0 0 1-.544-.662 1.947 1.947 0 0 1-.194-.862c0-.433.13-.824.387-1.172.258-.347.615-.619 1.072-.814.457-.2.97-.299 1.541-.299.57 0 1.084.1 1.541.299.457.195.817.467 1.078.814a1.9 1.9 0 0 1 .393 1.172c0 .305-.069.59-.205.856a1.903 1.903 0 0 1-.551.668 1.933 1.933 0 0 1-.791.351v.059c.344.055.656.182.938.38.285.196.51.444.673.745.168.3.252.625.252.973 0 .457-.142.869-.427 1.236-.286.363-.682.648-1.19.855-.504.207-1.074.31-1.71.31Zm-1.488-2.577c0 .238.06.451.181.639.125.187.301.333.528.439.226.101.486.152.78.152.292 0 .552-.05.778-.152.227-.106.4-.252.522-.44.125-.187.187-.4.187-.638 0-.242-.064-.46-.193-.65a1.259 1.259 0 0 0-.527-.458 1.692 1.692 0 0 0-.768-.17c-.285 0-.54.057-.767.17a1.3 1.3 0 0 0-.534.457 1.163 1.163 0 0 0-.187.65Zm.21-3.68c0 .223.053.422.159.598.11.176.262.314.457.416.195.097.416.146.662.146.246 0 .467-.049.662-.146a1.15 1.15 0 0 0 .457-.416 1.08 1.08 0 0 0 .17-.598c0-.219-.056-.412-.17-.58a1.084 1.084 0 0 0-.457-.398 1.437 1.437 0 0 0-.662-.147c-.25 0-.473.049-.668.147a1.045 1.045 0 0 0-.61.978Zm5.532-2.344h6.95v1.454h-2.602v7.03h-1.746v-7.03h-2.602V3.859Z"
      fill="#333"
    />
    <defs>
      <clipPath id="ara">
        <path fill="#fff" transform="translate(.305 .344)" d="M0 0h42v22H0z" />
      </clipPath>
    </defs>
  </symbol>
  <symbol viewBox="0 0 25 24" id="chart">
    <g clip-path="url(#asa)">
      <path d="M19.99 3h-14c-1.1 0-2 .9-2 2v14c0 1.1.9 2 2 2h14c1.1 0 2-.9 2-2V5c0-1.1-.9-2-2-2Zm-11 14c-.55 0-1-.45-1-1v-5c0-.55.45-1 1-1s1 .45 1 1v5c0 .55-.45 1-1 1Zm4 0c-.55 0-1-.45-1-1V8c0-.55.45-1 1-1s1 .45 1 1v8c0 .55-.45 1-1 1Zm4 0c-.55 0-1-.45-1-1v-2c0-.55.45-1 1-1s1 .45 1 1v2c0 .55-.45 1-1 1Z" />
    </g>
    <defs>
      <clipPath id="asa">
        <path fill="#fff" transform="translate(.99)" d="M0 0h24v24H0z" />
      </clipPath>
    </defs>
  </symbol>
  <symbol viewBox="0 0 25 24" id="check">
    <g clip-path="url(#ata)">
      <path d="m9.99 16.2-3.5-3.5a.984.984 0 0 0-1.4 0 .984.984 0 0 0 0 1.4l4.19 4.19c.39.39 1.02.39 1.41 0L21.29 7.7a.984.984 0 0 0 0-1.4.984.984 0 0 0-1.4 0l-9.9 9.9Z" />
    </g>
    <defs>
      <clipPath id="ata">
        <path fill="#fff" transform="translate(.99)" d="M0 0h24v24H0z" />
      </clipPath>
    </defs>
  </symbol>
  <symbol viewBox="0 0 24 24" id="checkBox">
    <g clip-path="url(#aua)">
      <path d="M18 19H6c-.55 0-1-.45-1-1V6c0-.55.45-1 1-1h12c.55 0 1 .45 1 1v12c0 .55-.45 1-1 1Zm1-16H5c-1.1 0-2 .9-2 2v14c0 1.1.9 2 2 2h14c1.1 0 2-.9 2-2V5c0-1.1-.9-2-2-2Z" />
    </g>
    <defs>
      <clipPath id="aua">
        <path fill="#fff" d="M0 0h24v24H0z" />
      </clipPath>
    </defs>
  </symbol>
  <symbol viewBox="0 0 24 24" id="checkBoxFill">
    <g clip-path="url(#ava)">
      <path d="M19 3H5c-1.1 0-2 .9-2 2v14c0 1.1.9 2 2 2h14c1.1 0 2-.9 2-2V5c0-1.1-.9-2-2-2Zm-8.29 13.29a.996.996 0 0 1-1.41 0L5.71 12.7a.996.996 0 1 1 1.41-1.41L10 14.17l6.88-6.88a.996.996 0 1 1 1.41 1.41l-7.58 7.59Z" />
    </g>
    <defs>
      <clipPath id="ava">
        <path fill="#fff" d="M0 0h24v24H0z" />
      </clipPath>
    </defs>
  </symbol>
  <symbol viewBox="0 0 24 24" id="circle">
    <g clip-path="url(#awa)">
      <path d="M12 2C6.48 2 2 6.48 2 12s4.48 10 10 10 10-4.48 10-10S17.52 2 12 2Zm0 18c-4.42 0-8-3.58-8-8s3.58-8 8-8 8 3.58 8 8-3.58 8-8 8Z" />
    </g>
    <defs>
      <clipPath id="awa">
        <path fill="#fff" d="M0 0h24v24H0z" />
      </clipPath>
    </defs>
  </symbol>
  <symbol viewBox="0 0 24 24" id="circleAlert">
    <path d="M12 7c.55 0 1 .45 1 1v4c0 .55-.45 1-1 1s-1-.45-1-1V8c0-.55.45-1 1-1Zm-.01-5C6.47 2 2 6.48 2 12s4.47 10 9.99 10C17.52 22 22 17.52 22 12S17.52 2 11.99 2ZM12 20c-4.42 0-8-3.58-8-8s3.58-8 8-8 8 3.58 8 8-3.58 8-8 8Zm1-3h-2v-2h2v2Z" />
  </symbol>
  <symbol viewBox="0 0 24 24" id="circleAlertFill">
    <path d="M12 2C6.48 2 2 6.48 2 12s4.48 10 10 10 10-4.48 10-10S17.52 2 12 2Zm0 11c-.55 0-1-.45-1-1V8c0-.55.45-1 1-1s1 .45 1 1v4c0 .55-.45 1-1 1Zm1 4h-2v-2h2v2Z" />
  </symbol>
  <symbol viewBox="0 0 25 24" id="circleCancelFill">
    <g clip-path="url(#aza)">
      <path d="M12.99 2c-5.53 0-10 4.47-10 10s4.47 10 10 10 10-4.47 10-10-4.47-10-10-10Zm4.3 14.3a.996.996 0 0 1-1.41 0l-2.89-2.89-2.89 2.89a.996.996 0 1 1-1.41-1.41L11.58 12 8.69 9.11A.996.996 0 1 1 10.1 7.7l2.89 2.89 2.89-2.89a.996.996 0 1 1 1.41 1.41L14.4 12l2.89 2.89c.38.38.38 1.02 0 1.41Z" />
    </g>
    <defs>
      <clipPath id="aza">
        <path fill="#fff" transform="translate(.99)" d="M0 0h24v24H0z" />
      </clipPath>
    </defs>
  </symbol>
  <symbol viewBox="0 0 24 24" id="circleCheck">
    <g clip-path="url(#baa)">
      <path d="M12 2C6.48 2 2 6.48 2 12s4.48 10 10 10 10-4.48 10-10S17.52 2 12 2Zm0 18c-4.41 0-8-3.59-8-8s3.59-8 8-8 8 3.59 8 8-3.59 8-8 8Zm3.88-11.71L10 14.17l-1.88-1.88a.996.996 0 1 0-1.41 1.41l2.59 2.59c.39.39 1.02.39 1.41 0L17.3 9.7a.996.996 0 0 0 0-1.41c-.39-.39-1.03-.39-1.42 0Z" />
    </g>
    <defs>
      <clipPath id="baa">
        <path fill="#fff" d="M0 0h24v24H0z" />
      </clipPath>
    </defs>
  </symbol>
  <symbol viewBox="0 0 24 24" id="circleCheckFill">
    <g clip-path="url(#bba)">
      <path d="M12 2C6.48 2 2 6.48 2 12s4.48 10 10 10 10-4.48 10-10S17.52 2 12 2ZM9.29 16.29 5.7 12.7a.996.996 0 1 1 1.41-1.41L10 14.17l6.88-6.88a.996.996 0 1 1 1.41 1.41l-7.59 7.59a.996.996 0 0 1-1.41 0Z" />
    </g>
    <defs>
      <clipPath id="bba">
        <path fill="#fff" d="M0 0h24v24H0z" />
      </clipPath>
    </defs>
  </symbol>
  <symbol viewBox="0 0 24 24" id="circleDashFill">
    <g clip-path="url(#bca)">
      <path d="M12 2C6.48 2 2 6.48 2 12s4.48 10 10 10 10-4.48 10-10S17.52 2 12 2Zm4 11H8c-.55 0-1-.45-1-1s.45-1 1-1h8c.55 0 1 .45 1 1s-.45 1-1 1Z" />
    </g>
    <defs>
      <clipPath id="bca">
        <path fill="#fff" d="M0 0h24v24H0z" />
      </clipPath>
    </defs>
  </symbol>
  <symbol viewBox="0 0 24 24" id="circleFill">
    <g clip-path="url(#bda)">
      <path d="M12 22c5.523 0 10-4.477 10-10S17.523 2 12 2 2 6.477 2 12s4.477 10 10 10Z" />
    </g>
    <defs>
      <clipPath id="bda">
        <path fill="#fff" d="M0 0h24v24H0z" />
      </clipPath>
    </defs>
  </symbol>
  <symbol viewBox="0 0 25 24" id="clock">
    <g clip-path="url(#bea)">
      <path d="M12.98 2C7.46 2 2.99 6.48 2.99 12s4.47 10 9.99 10c5.53 0 10.01-4.48 10.01-10S18.51 2 12.98 2Zm.01 18c-4.42 0-8-3.58-8-8s3.58-8 8-8 8 3.58 8 8-3.58 8-8 8Zm-.22-13h-.06c-.4 0-.72.32-.72.72v4.72c0 .35.18.68.49.86l4.15 2.49c.34.2.78.1.98-.24a.71.71 0 0 0-.25-.99l-3.87-2.3V7.72c0-.4-.32-.72-.72-.72Z" />
    </g>
    <defs>
      <clipPath id="bea">
        <path fill="#fff" transform="translate(.99)" d="M0 0h24v24H0z" />
      </clipPath>
    </defs>
  </symbol>
  <symbol viewBox="0 0 25 24" id="copy">
    <g clip-path="url(#bfa)">
      <path d="M15.99 1h-11c-1.1 0-2 .9-2 2v13c0 .55.45 1 1 1s1-.45 1-1V4c0-.55.45-1 1-1h10c.55 0 1-.45 1-1s-.45-1-1-1Zm4 4h-11c-1.1 0-2 .9-2 2v14c0 1.1.9 2 2 2h11c1.1 0 2-.9 2-2V7c0-1.1-.9-2-2-2Zm-1 16h-9c-.55 0-1-.45-1-1V8c0-.55.45-1 1-1h9c.55 0 1 .45 1 1v12c0 .55-.45 1-1 1Z" />
    </g>
    <defs>
      <clipPath id="bfa">
        <path fill="#fff" transform="translate(.99)" d="M0 0h24v24H0z" />
      </clipPath>
    </defs>
  </symbol>
  <symbol viewBox="0 0 25 24" id="delete">
    <g clip-path="url(#bga)">
      <path d="M6.99 19c0 1.1.9 2 2 2h8c1.1 0 2-.9 2-2V9c0-1.1-.9-2-2-2h-8c-1.1 0-2 .9-2 2v10Zm12-15h-2.5l-.71-.71c-.18-.18-.44-.29-.7-.29H10.9c-.26 0-.52.11-.7.29L9.49 4h-2.5c-.55 0-1 .45-1 1s.45 1 1 1h12c.55 0 1-.45 1-1s-.45-1-1-1Z" />
    </g>
    <defs>
      <clipPath id="bga">
        <path fill="#fff" transform="translate(.99)" d="M0 0h24v24H0z" />
      </clipPath>
    </defs>
  </symbol>
  <symbol viewBox="0 0 25 24" id="home">
    <g clip-path="url(#bha)">
      <path d="M10.987 19.328v-5h4v5c0 .55.45 1 1 1h3c.55 0 1-.45 1-1v-7h1.7c.46 0 .68-.57.33-.87l-8.36-7.53c-.38-.34-.96-.34-1.34 0l-8.36 7.53c-.34.3-.13.87.33.87h1.7v7c0 .55.45 1 1 1h3c.55 0 1-.45 1-1Z" />
    </g>
    <defs>
      <clipPath id="bha">
        <path fill="#fff" transform="translate(.99)" d="M0 0h24v24H0z" />
      </clipPath>
    </defs>
  </symbol>
  <symbol viewBox="0 0 25 24" id="menuKebab">
    <g clip-path="url(#bia)">
      <path d="M12.99 8c1.1 0 2-.9 2-2s-.9-2-2-2-2 .9-2 2 .9 2 2 2Zm0 2c-1.1 0-2 .9-2 2s.9 2 2 2 2-.9 2-2-.9-2-2-2Zm0 6c-1.1 0-2 .9-2 2s.9 2 2 2 2-.9 2-2-.9-2-2-2Z" />
    </g>
    <defs>
      <clipPath id="bia">
        <path fill="#fff" transform="translate(.99)" d="M0 0h24v24H0z" />
      </clipPath>
    </defs>
  </symbol>
  <symbol viewBox="0 0 25 24" id="monitor">
    <g clip-path="url(#bja)">
      <path d="M21.99 3h-18c-1.1 0-2 .9-2 2v12c0 1.1.9 2 2 2h5v1c0 .55.45 1 1 1h6c.55 0 1-.45 1-1v-1h5c1.1 0 1.99-.9 1.99-2l.01-12a2 2 0 0 0-2-2Zm-1 14h-16c-.55 0-1-.45-1-1V6c0-.55.45-1 1-1h16c.55 0 1 .45 1 1v10c0 .55-.45 1-1 1Z" />
    </g>
    <defs>
      <clipPath id="bja">
        <path fill="#fff" transform="translate(.99)" d="M0 0h24v24H0z" />
      </clipPath>
    </defs>
  </symbol>
  <symbol viewBox="0 0 25 24" id="order">
    <g clip-path="url(#bka)">
      <path d="M19.99 2h-4.18c-.42-1.16-1.52-2-2.82-2-1.3 0-2.4.84-2.82 2H5.99c-1.1 0-2 .9-2 2v16c0 1.1.9 2 2 2h14c1.1 0 2-.9 2-2V4c0-1.1-.9-2-2-2Zm-7 0c.55 0 1 .45 1 1s-.45 1-1 1-1-.45-1-1 .45-1 1-1Zm6 18h-12c-.55 0-1-.45-1-1V5c0-.55.45-1 1-1h1v1c0 1.1.9 2 2 2h6c1.1 0 2-.9 2-2V4h1c.55 0 1 .45 1 1v14c0 .55-.45 1-1 1Z" />
    </g>
    <defs>
      <clipPath id="bka">
        <path fill="#fff" transform="translate(.99)" d="M0 0h24v24H0z" />
      </clipPath>
    </defs>
  </symbol>
  <symbol viewBox="0 0 25 24" id="pencil">
    <g clip-path="url(#bla)">
      <path d="M3.99 17.46v3.04c0 .28.22.5.5.5h3.04c.13 0 .26-.05.35-.15L18.8 9.94l-3.75-3.75L4.14 17.1c-.1.1-.15.22-.15.36ZM21.7 7.04a.996.996 0 0 0 0-1.41l-2.34-2.34a.996.996 0 0 0-1.41 0l-1.83 1.83 3.75 3.75 1.83-1.83Z" />
    </g>
    <defs>
      <clipPath id="bla">
        <path fill="#fff" transform="translate(.99)" d="M0 0h24v24H0z" />
      </clipPath>
    </defs>
  </symbol>
  <symbol viewBox="0 0 25 24" id="pin">
    <g clip-path="url(#bma)">
      <path
        fill-rule="evenodd"
        clip-rule="evenodd"
        d="M19.99 12.87c0-.47-.34-.85-.8-.98A2.997 2.997 0 0 1 16.99 9V4h1c.55 0 1-.45 1-1s-.45-1-1-1h-10c-.55 0-1 .45-1 1s.45 1 1 1h1v5c0 1.38-.93 2.54-2.2 2.89-.46.13-.8.51-.8.98V13c0 .55.45 1 1 1h4.98l.02 7c0 .55.45 1 1 1s1-.45 1-1l-.02-7h5.02c.55 0 1-.45 1-1v-.13Z"
      />
    </g>
    <defs>
      <clipPath id="bma">
        <path fill="#fff" transform="translate(.99)" d="M0 0h24v24H0z" />
      </clipPath>
    </defs>
  </symbol>
  <symbol viewBox="0 0 25 24" id="profile">
    <g clip-path="url(#bna)">
      <path d="M12.99 2c-5.52 0-10 4.48-10 10s4.48 10 10 10 10-4.48 10-10-4.48-10-10-10Zm0 3c1.66 0 3 1.34 3 3s-1.34 3-3 3-3-1.34-3-3 1.34-3 3-3Zm0 14.2a7.2 7.2 0 0 1-6-3.22c.03-1.99 4-3.08 6-3.08 1.99 0 5.97 1.09 6 3.08a7.2 7.2 0 0 1-6 3.22Z" />
    </g>
    <defs>
      <clipPath id="bna">
        <path fill="#fff" transform="translate(.99)" d="M0 0h24v24H0z" />
      </clipPath>
    </defs>
  </symbol>
  <symbol viewBox="0 0 25 24" id="restart">
    <g clip-path="url(#boa)">
      <path d="M12.99 4V2.21c0-.45-.54-.67-.85-.35l-2.8 2.79c-.2.2-.2.51 0 .71l2.79 2.79c.32.31.86.09.86-.36V6c3.31 0 6 2.69 6 6 0 .79-.15 1.56-.44 2.25-.15.36-.04.77.23 1.04.51.51 1.37.33 1.64-.34.37-.91.57-1.91.57-2.95 0-4.42-3.58-8-8-8Zm0 14c-3.31 0-6-2.69-6-6 0-.79.15-1.56.44-2.25.15-.36.04-.77-.23-1.04-.51-.51-1.37-.33-1.64.34-.37.91-.57 1.91-.57 2.95 0 4.42 3.58 8 8 8v1.79c0 .45.54.67.85.35l2.79-2.79c.2-.2.2-.51 0-.71l-2.79-2.79a.5.5 0 0 0-.85.36V18Z" />
    </g>
    <defs>
      <clipPath id="boa">
        <path fill="#fff" transform="translate(.99)" d="M0 0h24v24H0z" />
      </clipPath>
    </defs>
  </symbol>
  <symbol viewBox="0 0 25 24" id="search">
    <g clip-path="url(#bpa)">
      <path d="M16.489 14h-.79l-.28-.27a6.5 6.5 0 0 0 1.48-5.34c-.47-2.78-2.79-5-5.59-5.34a6.505 6.505 0 0 0-7.27 7.27c.34 2.8 2.56 5.12 5.34 5.59a6.5 6.5 0 0 0 5.34-1.48l.27.28v.79l4.25 4.25c.41.41 1.08.41 1.49 0 .41-.41.41-1.08 0-1.49L16.489 14Zm-6 0c-2.49 0-4.5-2.01-4.5-4.5s2.01-4.5 4.5-4.5 4.5 2.01 4.5 4.5-2.01 4.5-4.5 4.5Z" />
    </g>
    <defs>
      <clipPath id="bpa">
        <path fill="#fff" transform="translate(.99)" d="M0 0h24v24H0z" />
      </clipPath>
    </defs>
  </symbol>
  <symbol viewBox="0 0 25 24" id="setting">
    <g clip-path="url(#bqa)">
      <path d="M20.42 12.98c.04-.32.07-.64.07-.98 0-.34-.03-.66-.07-.98l2.11-1.65c.19-.15.24-.42.12-.64l-2-3.46c-.12-.22-.39-.3-.61-.22l-2.49 1c-.52-.4-1.08-.73-1.69-.98l-.38-2.65a.488.488 0 0 0-.49-.42h-4c-.25 0-.46.18-.49.42l-.38 2.65c-.61.25-1.17.59-1.69.98l-2.49-1c-.23-.09-.49 0-.61.22l-2 3.46c-.13.22-.07.49.12.64l2.11 1.65c-.04.32-.07.65-.07.98 0 .33.03.66.07.98l-2.11 1.65c-.19.15-.24.42-.12.64l2 3.46c.12.22.39.3.61.22l2.49-1c.52.4 1.08.73 1.69.98l.38 2.65c.03.24.24.42.49.42h4c.25 0 .46-.18.49-.42l.38-2.65c.61-.25 1.17-.59 1.69-.98l2.49 1c.23.09.49 0 .61-.22l2-3.46c.12-.22.07-.49-.12-.64l-2.11-1.65Zm-7.43 2.52c-1.93 0-3.5-1.57-3.5-3.5s1.57-3.5 3.5-3.5 3.5 1.57 3.5 3.5-1.57 3.5-3.5 3.5Z" />
    </g>
    <defs>
      <clipPath id="bqa">
        <path fill="#fff" transform="translate(.99)" d="M0 0h24v24H0z" />
      </clipPath>
    </defs>
  </symbol>
  <symbol viewBox="0 0 25 24" id="speaker">
    <g clip-path="url(#bra)">
      <path
        fill-rule="evenodd"
        clip-rule="evenodd"
        d="M6.777 7.423h5.231L18.547 3.5v15.692l-6.539-3.923h-1.307v3.923c0 .72-.589 1.308-1.308 1.308-.72 0-1.308-.588-1.308-1.308V15.27H6.777a2.623 2.623 0 0 1-2.615-2.615v-2.615a2.623 2.623 0 0 1 2.615-2.616Zm13.078-.458a5.858 5.858 0 0 1 1.961 4.381 5.81 5.81 0 0 1-1.961 4.368V6.965Z"
      />
    </g>
    <defs>
      <clipPath id="bra">
        <path fill="#fff" transform="translate(.99)" d="M0 0h24v24H0z" />
      </clipPath>
    </defs>
  </symbol>
  <symbol viewBox="0 0 24 24" id="star">
    <g clip-path="url(#bsa)">
      <path d="m19.65 9.04-4.84-.42-1.89-4.45c-.34-.81-1.5-.81-1.84 0L9.19 8.63l-4.83.41c-.88.07-1.24 1.17-.57 1.75l3.67 3.18-1.1 4.72c-.2.86.73 1.54 1.49 1.08l4.15-2.5 4.15 2.51c.76.46 1.69-.22 1.49-1.08l-1.1-4.73 3.67-3.18c.67-.58.32-1.68-.56-1.75ZM12 15.4l-3.76 2.27 1-4.28-3.32-2.88 4.38-.38L12 6.1l1.71 4.04 4.38.38-3.32 2.88 1 4.28L12 15.4Z" />
    </g>
    <defs>
      <clipPath id="bsa">
        <path fill="#fff" d="M0 0h24v24H0z" />
      </clipPath>
    </defs>
  </symbol>
  <symbol viewBox="0 0 24 24" id="starFill">
    <g clip-path="url(#bta)">
      <path d="m12 17.27 4.15 2.51c.76.46 1.69-.22 1.49-1.08l-1.1-4.72 3.67-3.18c.67-.58.31-1.68-.57-1.75l-4.83-.41-1.89-4.46c-.34-.81-1.5-.81-1.84 0L9.19 8.63l-4.83.41c-.88.07-1.24 1.17-.57 1.75l3.67 3.18-1.1 4.72c-.2.86.73 1.54 1.49 1.08l4.15-2.5Z" />
    </g>
    <defs>
      <clipPath id="bta">
        <path fill="#fff" d="M0 0h24v24H0z" />
      </clipPath>
    </defs>
  </symbol>
  <symbol viewBox="0 0 24 24" id="toggleOff">
    <g clip-path="url(#bua)">
      <path d="M17 7H7c-2.76 0-5 2.24-5 5s2.24 5 5 5h10c2.76 0 5-2.24 5-5s-2.24-5-5-5Zm0 8c-1.66 0-3-1.34-3-3s1.34-3 3-3 3 1.34 3 3-1.34 3-3 3Z" />
    </g>
    <defs>
      <clipPath id="bua">
        <path fill="#fff" d="M0 0h24v24H0z" />
      </clipPath>
    </defs>
  </symbol>
  <symbol viewBox="0 0 24 24" id="toggleOn">
    <g clip-path="url(#bva)">
      <path d="M17 7H7c-2.76 0-5 2.24-5 5s2.24 5 5 5h10c2.76 0 5-2.24 5-5s-2.24-5-5-5ZM7 15c-1.66 0-3-1.34-3-3s1.34-3 3-3 3 1.34 3 3-1.34 3-3 3Z" />
    </g>
    <defs>
      <clipPath id="bva">
        <path fill="#fff" d="M0 0h24v24H0z" />
      </clipPath>
    </defs>
  </symbol>
  <symbol viewBox="0 0 25 24" id="tool">
    <g clip-path="url(#bwa)">
      <path d="M13.079 2.91C11.069.9 8.059.49 5.639 1.67l3.63 3.63c.39.39.39 1.02 0 1.41L7.679 8.3c-.39.4-1.02.4-1.41 0l-3.63-3.63c-1.17 2.43-.76 5.42 1.25 7.43a6.507 6.507 0 0 0 6.89 1.48l7.96 7.96a2.613 2.613 0 0 0 3.71 0 2.613 2.613 0 0 0 0-3.71l-7.92-7.93c.92-2.34.44-5.1-1.45-6.99Z" />
    </g>
    <defs>
      <clipPath id="bwa">
        <path fill="#fff" transform="translate(.99)" d="M0 0h24v24H0z" />
      </clipPath>
    </defs>
  </symbol>
  <symbol viewBox="0 0 43 23" id="top">
    <g clip-path="url(#bxa)">
      <path
        d="M6.388 7.344h3.146v-2.5c0-1.375 1.133-2.5 2.517-2.5h27.417c1.384 0 2.516 1.125 2.516 2.5v11.25c0 1.375-1.132 2.5-2.516 2.5 0 2.075-1.686 3.75-3.775 3.75s-3.775-1.675-3.775-3.75H12.05c0 2.075-1.686 3.75-3.775 3.75S4.5 20.669 4.5 18.594H3.243a1.258 1.258 0 0 1-1.259-1.25V13.18c0-.537.177-1.062.504-1.5l2.894-3.837c.239-.313.616-.5 1.006-.5Zm29.305 12.5c.692 0 1.258-.563 1.258-1.25a1.258 1.258 0 0 0-2.517 0c0 .687.567 1.25 1.259 1.25ZM6.388 9.219l-2.466 3.125h5.612V9.219H6.388Zm1.888 10.625c.692 0 1.258-.563 1.258-1.25a1.258 1.258 0 0 0-2.516 0c0 .687.566 1.25 1.258 1.25Z"
        fill="#333"
      />
    </g>
    <defs>
      <clipPath id="bxa">
        <path fill="#fff" transform="translate(.984 .344)" d="M0 0h42v22H0z" />
      </clipPath>
    </defs>
  </symbol>
  <symbol viewBox="0 0 43 23" id="top_1.2T">
    <g clip-path="url(#bya)">
      <path
        d="M5.709 7.344h3.146v-2.5c0-1.375 1.132-2.5 2.516-2.5h27.417c1.384 0 2.517 1.125 2.517 2.5v11.25c0 1.375-1.133 2.5-2.517 2.5 0 2.075-1.686 3.75-3.775 3.75s-3.775-1.675-3.775-3.75H11.371c0 2.075-1.686 3.75-3.775 3.75s-3.775-1.675-3.775-3.75H2.563a1.258 1.258 0 0 1-1.258-1.25V13.18c0-.537.176-1.062.503-1.5l2.894-3.837c.24-.313.617-.5 1.007-.5Zm29.304 12.5c.692 0 1.258-.563 1.258-1.25a1.258 1.258 0 0 0-2.516 0c0 .687.566 1.25 1.258 1.25ZM5.71 9.219l-2.466 3.125h5.612V9.219H5.709Zm1.887 10.625c.692 0 1.259-.563 1.259-1.25a1.258 1.258 0 0 0-2.517 0c0 .687.566 1.25 1.258 1.25Z"
        fill="#333"
      />
    </g>
    <path
      d="M18.246 5.36v8.484h-1.77V7.035h-.046l-1.946 1.219V6.695l2.098-1.336h1.664Zm2.543 8.59a.972.972 0 0 1-.984-.985.962.962 0 0 1 .984-.973.978.978 0 0 1 .973.973.988.988 0 0 1-.973.984Zm2.355-.106-.011-1.278 3.047-2.8c.79-.756 1.218-1.225 1.218-1.899 0-.756-.568-1.224-1.347-1.219-.797-.005-1.319.498-1.313 1.313h-1.675c-.006-1.658 1.224-2.719 3.011-2.719 1.817 0 3.024 1.037 3.024 2.508 0 .967-.47 1.758-2.215 3.34l-1.29 1.254v.047h3.622v1.453h-6.07Zm7.044-7.031V5.359h6.949v1.454h-2.602v7.03H32.79v-7.03h-2.602Z"
      fill="#fff"
    />
    <defs>
      <clipPath id="bya">
        <path fill="#fff" transform="translate(.305 .344)" d="M0 0h42v22H0z" />
      </clipPath>
    </defs>
  </symbol>
  <symbol viewBox="0 0 43 23" id="top_1.4T">
    <g clip-path="url(#bza)">
      <path
        d="M5.709 7.344h3.146v-2.5c0-1.375 1.132-2.5 2.516-2.5h27.417c1.384 0 2.517 1.125 2.517 2.5v11.25c0 1.375-1.133 2.5-2.517 2.5 0 2.075-1.686 3.75-3.775 3.75s-3.775-1.675-3.775-3.75H11.371c0 2.075-1.686 3.75-3.775 3.75s-3.775-1.675-3.775-3.75H2.563a1.258 1.258 0 0 1-1.258-1.25V13.18c0-.537.176-1.062.503-1.5l2.894-3.837c.24-.313.617-.5 1.007-.5Zm29.304 12.5c.692 0 1.258-.563 1.258-1.25a1.258 1.258 0 0 0-2.516 0c0 .687.566 1.25 1.258 1.25ZM5.71 9.219l-2.466 3.125h5.612V9.219H5.709Zm1.887 10.625c.692 0 1.259-.563 1.259-1.25a1.258 1.258 0 0 0-2.517 0c0 .687.566 1.25 1.258 1.25Z"
        fill="#333"
      />
    </g>
    <path
      d="M17.395 5.36v8.484h-1.77V7.035h-.047l-1.945 1.219V6.695L15.73 5.36h1.664Zm2.543 8.59a.972.972 0 0 1-.985-.985.962.962 0 0 1 .985-.973.978.978 0 0 1 .972.973.988.988 0 0 1-.973.984Zm2.214-1.606v-1.395l3.586-5.59h2.215v5.567h1.078v1.418h-1.078v1.5h-1.676v-1.5h-4.125Zm1.782-1.418H26.3V7.293h-.082l-2.285 3.562v.07Zm5.964-4.114V5.36h6.95v1.454h-2.602v7.03H32.5v-7.03h-2.602Z"
      fill="#fff"
    />
    <defs>
      <clipPath id="bza">
        <path fill="#fff" transform="translate(.305 .344)" d="M0 0h42v22H0z" />
      </clipPath>
    </defs>
  </symbol>
  <symbol viewBox="0 0 43 23" id="top_11T">
    <g clip-path="url(#caa)">
      <path
        d="M5.709 7.344h3.146v-2.5c0-1.375 1.132-2.5 2.516-2.5h27.417c1.384 0 2.517 1.125 2.517 2.5v11.25c0 1.375-1.133 2.5-2.517 2.5 0 2.075-1.686 3.75-3.775 3.75s-3.775-1.675-3.775-3.75H11.371c0 2.075-1.686 3.75-3.775 3.75s-3.775-1.675-3.775-3.75H2.563a1.258 1.258 0 0 1-1.258-1.25V13.18c0-.537.176-1.062.503-1.5l2.894-3.837c.24-.313.617-.5 1.007-.5Zm29.304 12.5c.692 0 1.258-.563 1.258-1.25a1.258 1.258 0 0 0-2.516 0c0 .687.566 1.25 1.258 1.25ZM5.71 9.219l-2.466 3.125h5.612V9.219H5.709Zm1.887 10.625c.692 0 1.259-.563 1.259-1.25a1.258 1.258 0 0 0-2.517 0c0 .687.566 1.25 1.258 1.25Z"
        fill="#333"
      />
    </g>
    <path
      d="M20.242 5.36v8.484h-1.77V7.035h-.046L16.48 8.254V6.695l2.097-1.336h1.664Zm5.625 0v8.484h-1.77V7.035h-.046l-1.945 1.219V6.695l2.097-1.336h1.664Zm1.688 1.452V5.36h6.949v1.454h-2.602v7.03h-1.746v-7.03h-2.601Z"
      fill="#fff"
    />
    <defs>
      <clipPath id="caa">
        <path fill="#fff" transform="translate(.305 .344)" d="M0 0h42v22H0z" />
      </clipPath>
    </defs>
  </symbol>
  <symbol viewBox="0 0 43 23" id="top_1T">
    <g clip-path="url(#cba)">
      <path
        d="M5.709 7.344h3.146v-2.5c0-1.375 1.132-2.5 2.516-2.5h27.417c1.384 0 2.517 1.125 2.517 2.5v11.25c0 1.375-1.133 2.5-2.517 2.5 0 2.075-1.686 3.75-3.775 3.75s-3.775-1.675-3.775-3.75H11.371c0 2.075-1.686 3.75-3.775 3.75s-3.775-1.675-3.775-3.75H2.563a1.258 1.258 0 0 1-1.258-1.25V13.18c0-.537.176-1.062.503-1.5l2.894-3.837c.24-.313.617-.5 1.007-.5Zm29.304 12.5c.692 0 1.258-.563 1.258-1.25a1.258 1.258 0 0 0-2.516 0c0 .687.566 1.25 1.258 1.25ZM5.71 9.219l-2.466 3.125h5.612V9.219H5.709Zm1.887 10.625c.692 0 1.259-.563 1.259-1.25a1.258 1.258 0 0 0-2.517 0c0 .687.566 1.25 1.258 1.25Z"
        fill="#333"
      />
    </g>
    <path
      d="M23 5.36v8.484h-1.77V7.035h-.046l-1.946 1.219V6.695l2.098-1.336H23Zm1.688 1.452V5.36h6.949v1.454h-2.602v7.03H27.29v-7.03h-2.602Z"
      fill="#fff"
    />
    <defs>
      <clipPath id="cba">
        <path fill="#fff" transform="translate(.305 .344)" d="M0 0h42v22H0z" />
      </clipPath>
    </defs>
  </symbol>
  <symbol viewBox="0 0 43 23" id="top_2.5T">
    <g clip-path="url(#cca)">
      <path
        d="M5.709 7.344h3.146v-2.5c0-1.375 1.132-2.5 2.516-2.5h27.417c1.384 0 2.517 1.125 2.517 2.5v11.25c0 1.375-1.133 2.5-2.517 2.5 0 2.075-1.686 3.75-3.775 3.75s-3.775-1.675-3.775-3.75H11.371c0 2.075-1.686 3.75-3.775 3.75s-3.775-1.675-3.775-3.75H2.563a1.258 1.258 0 0 1-1.258-1.25V13.18c0-.537.176-1.062.503-1.5l2.894-3.837c.24-.313.617-.5 1.007-.5Zm29.304 12.5c.692 0 1.258-.563 1.258-1.25a1.258 1.258 0 0 0-2.516 0c0 .687.566 1.25 1.258 1.25ZM5.71 9.219l-2.466 3.125h5.612V9.219H5.709Zm1.887 10.625c.692 0 1.259-.563 1.259-1.25a1.258 1.258 0 0 0-2.517 0c0 .687.566 1.25 1.258 1.25Z"
        fill="#333"
      />
    </g>
    <path
      d="m13.387 13.844-.012-1.278 3.047-2.8c.79-.756 1.219-1.225 1.219-1.899 0-.756-.569-1.224-1.348-1.219-.797-.005-1.318.498-1.313 1.313h-1.675c-.006-1.658 1.224-2.719 3.011-2.719 1.817 0 3.024 1.037 3.024 2.508 0 .967-.469 1.758-2.215 3.34l-1.29 1.254v.047h3.622v1.453h-6.07Zm8.355.105a.972.972 0 0 1-.984-.984.962.962 0 0 1 .984-.973.978.978 0 0 1 .973.973.988.988 0 0 1-.973.984Zm5.402.012c-1.769 0-3.064-1.043-3.093-2.508h1.71c.042.662.645 1.12 1.384 1.113.878.006 1.505-.615 1.5-1.5.005-.902-.633-1.529-1.524-1.535-.639 0-1.084.24-1.336.715h-1.594l.457-4.887h5.227v1.442h-3.773l-.235 2.144h.07c.311-.416.956-.72 1.7-.715 1.558-.005 2.718 1.16 2.718 2.79 0 1.716-1.3 2.94-3.21 2.94Zm4.126-7.149V5.36h6.949v1.454h-2.602v7.03h-1.746v-7.03H31.27Z"
      fill="#fff"
    />
    <defs>
      <clipPath id="cca">
        <path fill="#fff" transform="translate(.305 .344)" d="M0 0h42v22H0z" />
      </clipPath>
    </defs>
  </symbol>
  <symbol viewBox="0 0 43 23" id="top_3.5T">
    <g clip-path="url(#cda)">
      <path
        d="M5.709 7.344h3.146v-2.5c0-1.375 1.132-2.5 2.516-2.5h27.417c1.384 0 2.517 1.125 2.517 2.5v11.25c0 1.375-1.133 2.5-2.517 2.5 0 2.075-1.686 3.75-3.775 3.75s-3.775-1.675-3.775-3.75H11.371c0 2.075-1.686 3.75-3.775 3.75s-3.775-1.675-3.775-3.75H2.563a1.258 1.258 0 0 1-1.258-1.25V13.18c0-.537.176-1.062.503-1.5l2.894-3.837c.24-.313.617-.5 1.007-.5Zm29.304 12.5c.692 0 1.258-.563 1.258-1.25a1.258 1.258 0 0 0-2.516 0c0 .687.566 1.25 1.258 1.25ZM5.71 9.219l-2.466 3.125h5.612V9.219H5.709Zm1.887 10.625c.692 0 1.259-.563 1.259-1.25a1.258 1.258 0 0 0-2.517 0c0 .687.566 1.25 1.258 1.25Z"
        fill="#333"
      />
    </g>
    <path
      d="M15.734 13.96c-1.863 0-3.199-1.025-3.234-2.507h1.781c.03.633.645 1.049 1.465 1.055.844-.006 1.447-.475 1.441-1.16.006-.692-.609-1.178-1.605-1.184h-.785v-1.3h.785c.838 0 1.424-.458 1.418-1.126.006-.65-.492-1.095-1.242-1.09-.75-.005-1.365.416-1.395 1.067h-1.687c.03-1.46 1.342-2.473 3.082-2.473 1.77 0 2.947 1.049 2.941 2.39.006.95-.656 1.624-1.605 1.794v.07c1.248.152 1.933.908 1.922 1.969.011 1.453-1.366 2.496-3.282 2.496Zm5.309-.01a.972.972 0 0 1-.984-.985.962.962 0 0 1 .984-.973.978.978 0 0 1 .973.973.988.988 0 0 1-.973.984Zm5.402.01c-1.77 0-3.064-1.042-3.093-2.507h1.71c.041.662.645 1.12 1.383 1.113.88.006 1.506-.615 1.5-1.5.006-.902-.633-1.529-1.523-1.535-.639 0-1.084.24-1.336.715h-1.594l.457-4.887h5.227v1.442h-3.774l-.234 2.144h.07c.31-.416.955-.72 1.7-.715 1.558-.005 2.718 1.16 2.718 2.79 0 1.716-1.3 2.94-3.21 2.94Zm4.125-7.148V5.36h6.95v1.454h-2.602v7.03h-1.746v-7.03H30.57Z"
      fill="#fff"
    />
    <defs>
      <clipPath id="cda">
        <path fill="#fff" transform="translate(.305 .344)" d="M0 0h42v22H0z" />
      </clipPath>
    </defs>
  </symbol>
  <symbol viewBox="0 0 43 23" id="top_5T">
    <g clip-path="url(#cea)">
      <path
        d="M5.709 7.344h3.146v-2.5c0-1.375 1.132-2.5 2.516-2.5h27.417c1.384 0 2.517 1.125 2.517 2.5v11.25c0 1.375-1.133 2.5-2.517 2.5 0 2.075-1.686 3.75-3.775 3.75s-3.775-1.675-3.775-3.75H11.371c0 2.075-1.686 3.75-3.775 3.75s-3.775-1.675-3.775-3.75H2.563a1.258 1.258 0 0 1-1.258-1.25V13.18c0-.537.176-1.062.503-1.5l2.894-3.837c.24-.313.617-.5 1.007-.5Zm29.304 12.5c.692 0 1.258-.563 1.258-1.25a1.258 1.258 0 0 0-2.516 0c0 .687.566 1.25 1.258 1.25ZM5.71 9.219l-2.466 3.125h5.612V9.219H5.709Zm1.887 10.625c.692 0 1.259-.563 1.259-1.25a1.258 1.258 0 0 0-2.517 0c0 .687.566 1.25 1.258 1.25Z"
        fill="#333"
      />
    </g>
    <path
      d="M21.203 13.96c-1.77 0-3.064-1.042-3.094-2.507h1.711c.041.662.645 1.12 1.383 1.113.879.006 1.506-.615 1.5-1.5.006-.902-.633-1.529-1.523-1.535-.639 0-1.084.24-1.336.715H18.25l.457-4.887h5.227v1.442H20.16l-.234 2.144h.07c.31-.416.955-.72 1.7-.715 1.558-.005 2.718 1.16 2.718 2.79 0 1.716-1.3 2.94-3.21 2.94Zm4.125-7.148V5.36h6.95v1.454h-2.602v7.03H27.93v-7.03h-2.602Z"
      fill="#fff"
    />
    <defs>
      <clipPath id="cea">
        <path fill="#fff" transform="translate(.305 .344)" d="M0 0h42v22H0z" />
      </clipPath>
    </defs>
  </symbol>
  <symbol viewBox="0 0 43 23" id="top_8T">
    <g clip-path="url(#cfa)">
      <path
        d="M5.709 7.344h3.146v-2.5c0-1.375 1.132-2.5 2.516-2.5h27.417c1.384 0 2.517 1.125 2.517 2.5v11.25c0 1.375-1.133 2.5-2.517 2.5 0 2.075-1.686 3.75-3.775 3.75s-3.775-1.675-3.775-3.75H11.371c0 2.075-1.686 3.75-3.775 3.75s-3.775-1.675-3.775-3.75H2.563a1.258 1.258 0 0 1-1.258-1.25V13.18c0-.537.176-1.062.503-1.5l2.894-3.837c.24-.313.617-.5 1.007-.5Zm29.304 12.5c.692 0 1.258-.563 1.258-1.25a1.258 1.258 0 0 0-2.516 0c0 .687.566 1.25 1.258 1.25ZM5.71 9.219l-2.466 3.125h5.612V9.219H5.709Zm1.887 10.625c.692 0 1.259-.563 1.259-1.25a1.258 1.258 0 0 0-2.517 0c0 .687.566 1.25 1.258 1.25Z"
        fill="#333"
      />
    </g>
    <path
      d="M20.52 13.96c-1.94 0-3.329-1.019-3.329-2.401 0-1.067.82-1.934 1.875-2.098v-.059a1.872 1.872 0 0 1-1.546-1.875c-.006-1.318 1.265-2.285 3-2.285 1.734 0 3.005.967 3.011 2.285a1.91 1.91 0 0 1-1.547 1.875v.059c1.032.164 1.864 1.031 1.864 2.098 0 1.382-1.395 2.402-3.328 2.402Zm-1.489-2.577c-.006.726.592 1.236 1.489 1.23.896.006 1.494-.504 1.488-1.23.006-.733-.627-1.272-1.488-1.277-.862.005-1.495.539-1.489 1.277Zm.211-3.68c-.006.68.527 1.154 1.277 1.16.745-.006 1.284-.48 1.29-1.16-.006-.662-.534-1.125-1.29-1.125-.761 0-1.283.463-1.277 1.125Zm5.531-.89V5.359h6.95v1.454H29.12v7.03h-1.746v-7.03h-2.602Z"
      fill="#fff"
    />
    <defs>
      <clipPath id="cfa">
        <path fill="#fff" transform="translate(.305 .344)" d="M0 0h42v22H0z" />
      </clipPath>
    </defs>
  </symbol>
  <symbol viewBox="0 0 24 24" id="triangleDown">
    <path d="M11.34 17.142a.833.833 0 0 0 1.32 0l5.235-6.8A.833.833 0 0 0 17.235 9H6.765a.833.833 0 0 0-.66 1.342l5.235 6.8Z" />
  </symbol>
  <symbol viewBox="0 0 24 24" id="triangleUp">
    <path d="M11.472 6.686a.667.667 0 0 1 1.056 0l5.574 7.24A.667.667 0 0 1 17.574 15H6.426a.667.667 0 0 1-.528-1.073l5.574-7.24Z" />
  </symbol>
  <symbol viewBox="0 0 25 24" id="truck">
    <g clip-path="url(#cia)">
      <path d="M5.49 8h2.5V6c0-1.1.9-2 2-2h12c1.1 0 2 .9 2 2v9c0 1.1-.9 2-2 2 0 1.66-1.34 3-3 3s-3-1.34-3-3h-6c0 1.66-1.34 3-3 3s-3-1.34-3-3h-1c-.55 0-1-.45-1-1v-3.33c0-.43.14-.85.4-1.2l2.3-3.07c.19-.25.49-.4.8-.4Zm13.5 10c.55 0 1-.45 1-1s-.45-1-1-1-1 .45-1 1 .45 1 1 1ZM5.49 9.5 3.53 12h4.46V9.5h-2.5Zm1.5 8.5c.55 0 1-.45 1-1s-.45-1-1-1-1 .45-1 1 .45 1 1 1Z" />
    </g>
    <defs>
      <clipPath id="cia">
        <path fill="#fff" transform="translate(.99)" d="M0 0h24v24H0z" />
      </clipPath>
    </defs>
  </symbol>
  <symbol viewBox="0 0 25 24" id="wallet">
    <g clip-path="url(#cja)">
      <path d="M10.99 16V8a2 2 0 0 1 2-2h9V5c0-1.1-.9-2-2-2h-14a2 2 0 0 0-2 2v14a2 2 0 0 0 2 2h14c1.1 0 2-.9 2-2v-1h-9a2 2 0 0 1-2-2Zm3-8c-.55 0-1 .45-1 1v6c0 .55.45 1 1 1h9V8h-9Zm3 5.5c-.83 0-1.5-.67-1.5-1.5s.67-1.5 1.5-1.5 1.5.67 1.5 1.5-.67 1.5-1.5 1.5Z" />
    </g>
    <defs>
      <clipPath id="cja">
        <path fill="#fff" transform="translate(.99)" d="M0 0h24v24H0z" />
      </clipPath>
    </defs>
  </symbol>
  <symbol viewBox="0 0 24 24" id="warning">
    <path d="M12 4.99 19.53 18H4.47L12 4.99ZM2.74 17c-.77 1.33.19 3 1.73 3h15.06c1.54 0 2.5-1.67 1.73-3L13.73 3.99c-.77-1.33-2.69-1.33-3.46 0L2.74 17ZM11 10v2c0 .55.45 1 1 1s1-.45 1-1v-2c0-.55-.45-1-1-1s-1 .45-1 1Zm0 5h2v2h-2v-2Z" />
  </symbol>
  <symbol viewBox="0 0 24 24" id="warningFill">
    <path d="M4.47 20h15.06c1.54 0 2.5-1.67 1.73-3L13.73 3.99c-.77-1.33-2.69-1.33-3.46 0L2.74 17c-.77 1.33.19 3 1.73 3ZM12 13c-.55 0-1-.45-1-1v-2c0-.55.45-1 1-1s1 .45 1 1v2c0 .55-.45 1-1 1Zm1 4h-2v-2h2v2Z" />
  </symbol>
  <symbol viewBox="0 0 42 23" id="wing">
    <g clip-path="url(#cma)">
      <path
        d="M5.312 7.344h3.08V4.497c-.091-2.153.131-2.153 2.463-2.153H36.85c-9.201 0 1.482 0 1.482 2.5v11.25c0 1.375-1.108 2.5-2.463 2.5 0 2.075-1.65 3.75-3.696 3.75-2.044 0-3.695-1.675-3.695-3.75H10.855c0 2.075-1.65 3.75-3.695 3.75s-3.695-1.675-3.695-3.75H2.233A1.245 1.245 0 0 1 1 17.344V13.18c0-.537.173-1.062.493-1.5l2.833-3.837c.234-.313.603-.5.985-.5Zm26.861 12.5c.678 0 1.232-.563 1.232-1.25 0-.688-.554-1.25-1.232-1.25-.677 0-1.231.562-1.231 1.25 0 .687.554 1.25 1.231 1.25ZM5.313 9.219l-2.415 3.125h5.493V9.219H5.312ZM7.16 19.844c.677 0 1.231-.563 1.231-1.25 0-.688-.554-1.25-1.231-1.25-.678 0-1.232.562-1.232 1.25 0 .687.554 1.25 1.232 1.25Z"
        fill="#333"
      />
      <path
        d="M8.405 3.687a1 1 0 0 1 .94-1.343H37.62A1 1 0 0 1 38.56 3l1.949 5.333a1 1 0 0 1-.94 1.343H11.294a1 1 0 0 1-.94-.657L8.406 3.687Z"
        fill="#5272E0"
      />
    </g>
    <defs>
      <clipPath id="cma">
        <path fill="#fff" transform="translate(0 .344)" d="M0 0h42v22H0z" />
      </clipPath>
    </defs>
  </symbol>
  <symbol viewBox="0 0 43 23" id="wing_1.2T">
    <g clip-path="url(#cna)">
      <path
        d="M5.617 7.344h3.08V4.497c-.092-2.153.13-2.153 2.463-2.153h25.995c-9.202 0 1.482 0 1.482 2.5v11.25c0 1.375-1.109 2.5-2.464 2.5 0 2.075-1.65 3.75-3.695 3.75s-3.695-1.675-3.695-3.75H11.16c0 2.075-1.65 3.75-3.695 3.75-2.044 0-3.695-1.675-3.695-3.75H2.538a1.245 1.245 0 0 1-1.232-1.25V13.18c0-.537.172-1.062.493-1.5L4.63 7.844c.234-.313.604-.5.986-.5Zm26.861 12.5c.678 0 1.232-.563 1.232-1.25 0-.688-.554-1.25-1.232-1.25-.677 0-1.232.562-1.232 1.25 0 .687.555 1.25 1.232 1.25ZM5.617 9.219l-2.414 3.125h5.493V9.219h-3.08Zm1.847 10.625c.678 0 1.232-.563 1.232-1.25 0-.688-.554-1.25-1.232-1.25-.677 0-1.231.562-1.231 1.25 0 .687.554 1.25 1.231 1.25Z"
        fill="#333"
      />
      <path
        d="M8.71 3.687a1 1 0 0 1 .939-1.343h28.276a1 1 0 0 1 .94.657l1.949 5.333a1 1 0 0 1-.94 1.343H11.598a1 1 0 0 1-.94-.657L8.71 3.687Z"
        fill="#5272E0"
      />
    </g>
    <path
      d="M17.086 5.36v8.484h-1.77V7.035h-.046l-1.946 1.219V6.695l2.098-1.336h1.664Zm2.543 8.59a.972.972 0 0 1-.985-.985.962.962 0 0 1 .985-.973.978.978 0 0 1 .973.973.988.988 0 0 1-.973.984Zm2.355-.106-.011-1.278 3.047-2.8c.79-.756 1.218-1.225 1.218-1.899 0-.756-.568-1.224-1.347-1.219-.797-.005-1.319.498-1.313 1.313h-1.676c-.006-1.658 1.225-2.719 3.012-2.719 1.816 0 3.023 1.037 3.023 2.508 0 .967-.468 1.758-2.214 3.34l-1.29 1.254v.047h3.622v1.453h-6.07Zm7.043-7.031V5.359h6.95v1.454h-2.602v7.03h-1.746v-7.03h-2.602Z"
      fill="#fff"
    />
    <defs>
      <clipPath id="cna">
        <path fill="#fff" transform="translate(.305 .344)" d="M0 0h42v22H0z" />
      </clipPath>
    </defs>
  </symbol>
  <symbol viewBox="0 0 43 23" id="wing_1.4T">
    <g clip-path="url(#coa)">
      <path
        d="M5.617 7.344h3.08V4.497c-.092-2.153.13-2.153 2.463-2.153h25.995c-9.202 0 1.482 0 1.482 2.5v11.25c0 1.375-1.109 2.5-2.464 2.5 0 2.075-1.65 3.75-3.695 3.75s-3.695-1.675-3.695-3.75H11.16c0 2.075-1.65 3.75-3.695 3.75-2.044 0-3.695-1.675-3.695-3.75H2.538a1.245 1.245 0 0 1-1.232-1.25V13.18c0-.537.172-1.062.493-1.5L4.63 7.844c.234-.313.604-.5.986-.5Zm26.861 12.5c.678 0 1.232-.563 1.232-1.25 0-.688-.554-1.25-1.232-1.25-.677 0-1.232.562-1.232 1.25 0 .687.555 1.25 1.232 1.25ZM5.617 9.219l-2.414 3.125h5.493V9.219h-3.08Zm1.847 10.625c.678 0 1.232-.563 1.232-1.25 0-.688-.554-1.25-1.232-1.25-.677 0-1.231.562-1.231 1.25 0 .687.554 1.25 1.231 1.25Z"
        fill="#333"
      />
      <path
        d="M8.71 3.687a1 1 0 0 1 .939-1.343h28.276a1 1 0 0 1 .94.657l1.949 5.333a1 1 0 0 1-.94 1.343H11.598a1 1 0 0 1-.94-.657L8.71 3.687Z"
        fill="#5272E0"
      />
    </g>
    <path
      d="M16.586 5.36v8.484h-1.77V7.035h-.046l-1.946 1.219V6.695l2.098-1.336h1.664Zm2.543 8.59a.972.972 0 0 1-.985-.985.962.962 0 0 1 .985-.973.978.978 0 0 1 .973.973.988.988 0 0 1-.973.984Zm2.215-1.606v-1.395l3.586-5.59h2.215v5.567h1.078v1.418h-1.078v1.5h-1.676v-1.5h-4.125Zm1.781-1.418h2.367V7.293h-.082l-2.285 3.562v.07Zm5.965-4.114V5.36h6.95v1.454h-2.602v7.03H31.69v-7.03H29.09Z"
      fill="#fff"
    />
    <defs>
      <clipPath id="coa">
        <path fill="#fff" transform="translate(.305 .344)" d="M0 0h42v22H0z" />
      </clipPath>
    </defs>
  </symbol>
  <symbol viewBox="0 0 43 23" id="wing_11T">
    <g clip-path="url(#cpa)">
      <path
        d="M5.617 7.344h3.08V4.497c-.092-2.153.13-2.153 2.463-2.153h25.995c-9.202 0 1.482 0 1.482 2.5v11.25c0 1.375-1.109 2.5-2.464 2.5 0 2.075-1.65 3.75-3.695 3.75s-3.695-1.675-3.695-3.75H11.16c0 2.075-1.65 3.75-3.695 3.75-2.044 0-3.695-1.675-3.695-3.75H2.538a1.245 1.245 0 0 1-1.232-1.25V13.18c0-.537.172-1.062.493-1.5L4.63 7.844c.234-.313.604-.5.986-.5Zm26.861 12.5c.678 0 1.232-.563 1.232-1.25 0-.688-.554-1.25-1.232-1.25-.677 0-1.232.562-1.232 1.25 0 .687.555 1.25 1.232 1.25ZM5.617 9.219l-2.414 3.125h5.493V9.219h-3.08Zm1.847 10.625c.678 0 1.232-.563 1.232-1.25 0-.688-.554-1.25-1.232-1.25-.677 0-1.231.562-1.231 1.25 0 .687.554 1.25 1.231 1.25Z"
        fill="#333"
      />
      <path
        d="M8.71 3.687a1 1 0 0 1 .939-1.343h28.276a1 1 0 0 1 .94.657l1.949 5.333a1 1 0 0 1-.94 1.343H11.598a1 1 0 0 1-.94-.657L8.71 3.687Z"
        fill="#5272E0"
      />
    </g>
    <path
      d="M19.586 5.36v8.484h-1.77V7.035h-.046l-1.946 1.219V6.695l2.098-1.336h1.664Zm5.625 0v8.484h-1.77V7.035h-.046l-1.946 1.219V6.695l2.098-1.336h1.664Zm1.687 1.452V5.36h6.95v1.454h-2.602v7.03H29.5v-7.03h-2.602Z"
      fill="#fff"
    />
    <defs>
      <clipPath id="cpa">
        <path fill="#fff" transform="translate(.305 .344)" d="M0 0h42v22H0z" />
      </clipPath>
    </defs>
  </symbol>
  <symbol viewBox="0 0 43 23" id="wing_1T">
    <g clip-path="url(#cqa)">
      <path
        d="M5.617 7.344h3.08V4.497c-.092-2.153.13-2.153 2.463-2.153h25.995c-9.202 0 1.482 0 1.482 2.5v11.25c0 1.375-1.109 2.5-2.464 2.5 0 2.075-1.65 3.75-3.695 3.75s-3.695-1.675-3.695-3.75H11.16c0 2.075-1.65 3.75-3.695 3.75-2.044 0-3.695-1.675-3.695-3.75H2.538a1.245 1.245 0 0 1-1.232-1.25V13.18c0-.537.172-1.062.493-1.5L4.63 7.844c.234-.313.604-.5.986-.5Zm26.861 12.5c.678 0 1.232-.563 1.232-1.25 0-.688-.554-1.25-1.232-1.25-.677 0-1.232.562-1.232 1.25 0 .687.555 1.25 1.232 1.25ZM5.617 9.219l-2.414 3.125h5.493V9.219h-3.08Zm1.847 10.625c.678 0 1.232-.563 1.232-1.25 0-.688-.554-1.25-1.232-1.25-.677 0-1.231.562-1.231 1.25 0 .687.554 1.25 1.231 1.25Z"
        fill="#333"
      />
      <path
        d="M8.71 3.687a1 1 0 0 1 .939-1.343h28.276a1 1 0 0 1 .94.657l1.949 5.333a1 1 0 0 1-.94 1.343H11.598a1 1 0 0 1-.94-.657L8.71 3.687Z"
        fill="#5272E0"
      />
    </g>
    <path
      d="M22.086 5.36v8.484h-1.77V7.035h-.046l-1.946 1.219V6.695l2.098-1.336h1.664Zm1.687 1.452V5.36h6.95v1.454H28.12v7.03h-1.746v-7.03h-2.602Z"
      fill="#fff"
    />
    <defs>
      <clipPath id="cqa">
        <path fill="#fff" transform="translate(.305 .344)" d="M0 0h42v22H0z" />
      </clipPath>
    </defs>
  </symbol>
  <symbol viewBox="0 0 43 23" id="wing_2.5T">
    <g clip-path="url(#cra)">
      <path
        d="M5.617 7.344h3.08V4.497c-.092-2.153.13-2.153 2.463-2.153h25.995c-9.202 0 1.482 0 1.482 2.5v11.25c0 1.375-1.109 2.5-2.464 2.5 0 2.075-1.65 3.75-3.695 3.75s-3.695-1.675-3.695-3.75H11.16c0 2.075-1.65 3.75-3.695 3.75-2.044 0-3.695-1.675-3.695-3.75H2.538a1.245 1.245 0 0 1-1.232-1.25V13.18c0-.537.172-1.062.493-1.5L4.63 7.844c.234-.313.604-.5.986-.5Zm26.861 12.5c.678 0 1.232-.563 1.232-1.25 0-.688-.554-1.25-1.232-1.25-.677 0-1.232.562-1.232 1.25 0 .687.555 1.25 1.232 1.25ZM5.617 9.219l-2.414 3.125h5.493V9.219h-3.08Zm1.847 10.625c.678 0 1.232-.563 1.232-1.25 0-.688-.554-1.25-1.232-1.25-.677 0-1.231.562-1.231 1.25 0 .687.554 1.25 1.231 1.25Z"
        fill="#333"
      />
      <path
        d="M8.71 3.687a1 1 0 0 1 .939-1.343h28.276a1 1 0 0 1 .94.657l1.949 5.333a1 1 0 0 1-.94 1.343H11.598a1 1 0 0 1-.94-.657L8.71 3.687Z"
        fill="#5272E0"
      />
    </g>
    <path
      d="m12.43 13.844-.012-1.278 3.047-2.8c.79-.756 1.219-1.225 1.219-1.899 0-.756-.569-1.224-1.348-1.219-.797-.005-1.318.498-1.313 1.313h-1.675c-.006-1.658 1.224-2.719 3.011-2.719 1.817 0 3.024 1.037 3.024 2.508 0 .967-.469 1.758-2.215 3.34l-1.29 1.254v.047H18.5v1.453h-6.07Zm8.355.105a.972.972 0 0 1-.984-.984.962.962 0 0 1 .984-.973.978.978 0 0 1 .973.973.988.988 0 0 1-.973.984Zm5.402.012c-1.769 0-3.064-1.043-3.093-2.508h1.71c.042.662.645 1.12 1.384 1.113.878.006 1.505-.615 1.5-1.5.005-.902-.633-1.529-1.524-1.535-.639 0-1.084.24-1.336.715h-1.594l.457-4.887h5.227v1.442h-3.773l-.235 2.144h.07c.311-.416.956-.72 1.7-.715 1.558-.005 2.718 1.16 2.718 2.79 0 1.716-1.3 2.94-3.21 2.94Zm4.125-7.149V5.36h6.95v1.454H34.66v7.03h-1.746v-7.03h-2.602Z"
      fill="#fff"
    />
    <defs>
      <clipPath id="cra">
        <path fill="#fff" transform="translate(.305 .344)" d="M0 0h42v22H0z" />
      </clipPath>
    </defs>
  </symbol>
  <symbol viewBox="0 0 43 23" id="wing_3.5T">
    <g clip-path="url(#csa)">
      <path
        d="M5.617 7.344h3.08V4.497c-.092-2.153.13-2.153 2.463-2.153h25.995c-9.202 0 1.482 0 1.482 2.5v11.25c0 1.375-1.109 2.5-2.464 2.5 0 2.075-1.65 3.75-3.695 3.75s-3.695-1.675-3.695-3.75H11.16c0 2.075-1.65 3.75-3.695 3.75-2.044 0-3.695-1.675-3.695-3.75H2.538a1.245 1.245 0 0 1-1.232-1.25V13.18c0-.537.172-1.062.493-1.5L4.63 7.844c.234-.313.604-.5.986-.5Zm26.861 12.5c.678 0 1.232-.563 1.232-1.25 0-.688-.554-1.25-1.232-1.25-.677 0-1.232.562-1.232 1.25 0 .687.555 1.25 1.232 1.25ZM5.617 9.219l-2.414 3.125h5.493V9.219h-3.08Zm1.847 10.625c.678 0 1.232-.563 1.232-1.25 0-.688-.554-1.25-1.232-1.25-.677 0-1.231.562-1.231 1.25 0 .687.554 1.25 1.231 1.25Z"
        fill="#333"
      />
      <path
        d="M8.71 3.687a1 1 0 0 1 .939-1.343h28.276a1 1 0 0 1 .94.657l1.949 5.333a1 1 0 0 1-.94 1.343H11.598a1 1 0 0 1-.94-.657L8.71 3.687Z"
        fill="#5272E0"
      />
    </g>
    <path
      d="M15.078 13.96c-1.863 0-3.2-1.025-3.234-2.507h1.781c.03.633.645 1.049 1.465 1.055.844-.006 1.447-.475 1.441-1.16.006-.692-.61-1.178-1.605-1.184h-.785v-1.3h.785c.838 0 1.424-.458 1.418-1.126.006-.65-.492-1.095-1.242-1.09-.75-.005-1.366.416-1.395 1.067h-1.688c.03-1.46 1.342-2.473 3.083-2.473 1.77 0 2.947 1.049 2.941 2.39.006.95-.656 1.624-1.605 1.794v.07c1.248.152 1.933.908 1.921 1.969.012 1.453-1.365 2.496-3.28 2.496Zm5.309-.01a.972.972 0 0 1-.985-.985.962.962 0 0 1 .985-.973.978.978 0 0 1 .972.973.988.988 0 0 1-.972.984Zm5.402.01c-1.77 0-3.064-1.042-3.094-2.507h1.711c.041.662.645 1.12 1.383 1.113.879.006 1.506-.615 1.5-1.5.006-.902-.633-1.529-1.523-1.535-.639 0-1.084.24-1.336.715h-1.594l.457-4.887h5.227v1.442h-3.774l-.234 2.144h.07c.31-.416.955-.72 1.7-.715C27.84 8.225 29 9.39 29 11.02c0 1.716-1.3 2.94-3.21 2.94Zm4.125-7.148V5.36h6.95v1.454h-2.602v7.03h-1.746v-7.03h-2.602Z"
      fill="#fff"
    />
    <defs>
      <clipPath id="csa">
        <path fill="#fff" transform="translate(.305 .344)" d="M0 0h42v22H0z" />
      </clipPath>
    </defs>
  </symbol>
  <symbol viewBox="0 0 43 23" id="wing_5T">
    <g clip-path="url(#cta)">
      <path
        d="M5.617 7.344h3.08V4.497c-.092-2.153.13-2.153 2.463-2.153h25.995c-9.202 0 1.482 0 1.482 2.5v11.25c0 1.375-1.109 2.5-2.464 2.5 0 2.075-1.65 3.75-3.695 3.75s-3.695-1.675-3.695-3.75H11.16c0 2.075-1.65 3.75-3.695 3.75-2.044 0-3.695-1.675-3.695-3.75H2.538a1.245 1.245 0 0 1-1.232-1.25V13.18c0-.537.172-1.062.493-1.5L4.63 7.844c.234-.313.604-.5.986-.5Zm26.861 12.5c.678 0 1.232-.563 1.232-1.25 0-.688-.554-1.25-1.232-1.25-.677 0-1.232.562-1.232 1.25 0 .687.555 1.25 1.232 1.25ZM5.617 9.219l-2.414 3.125h5.493V9.219h-3.08Zm1.847 10.625c.678 0 1.232-.563 1.232-1.25 0-.688-.554-1.25-1.232-1.25-.677 0-1.231.562-1.231 1.25 0 .687.554 1.25 1.231 1.25Z"
        fill="#333"
      />
      <path
        d="M8.71 3.687a1 1 0 0 1 .939-1.343h28.276a1 1 0 0 1 .94.657l1.949 5.333a1 1 0 0 1-.94 1.343H11.598a1 1 0 0 1-.94-.657L8.71 3.687Z"
        fill="#5272E0"
      />
    </g>
    <path
      d="M20.547 13.96c-1.77 0-3.065-1.042-3.094-2.507h1.711c.041.662.645 1.12 1.383 1.113.879.006 1.506-.615 1.5-1.5.006-.902-.633-1.529-1.524-1.535-.638 0-1.084.24-1.335.715h-1.594l.457-4.887h5.226v1.442h-3.773l-.235 2.144h.07c.311-.416.956-.72 1.7-.715 1.559-.005 2.719 1.16 2.719 2.79 0 1.716-1.301 2.94-3.211 2.94Zm4.125-7.148V5.36h6.95v1.454H29.02v7.03h-1.747v-7.03h-2.601Z"
      fill="#fff"
    />
    <defs>
      <clipPath id="cta">
        <path fill="#fff" transform="translate(.305 .344)" d="M0 0h42v22H0z" />
      </clipPath>
    </defs>
  </symbol>
  <symbol viewBox="0 0 43 23" id="wing_8T">
    <g clip-path="url(#cua)">
      <path
        d="M5.617 7.344h3.08V4.497c-.092-2.153.13-2.153 2.463-2.153h25.995c-9.202 0 1.482 0 1.482 2.5v11.25c0 1.375-1.109 2.5-2.464 2.5 0 2.075-1.65 3.75-3.695 3.75s-3.695-1.675-3.695-3.75H11.16c0 2.075-1.65 3.75-3.695 3.75-2.044 0-3.695-1.675-3.695-3.75H2.538a1.245 1.245 0 0 1-1.232-1.25V13.18c0-.537.172-1.062.493-1.5L4.63 7.844c.234-.313.604-.5.986-.5Zm26.861 12.5c.678 0 1.232-.563 1.232-1.25 0-.688-.554-1.25-1.232-1.25-.677 0-1.232.562-1.232 1.25 0 .687.555 1.25 1.232 1.25ZM5.617 9.219l-2.414 3.125h5.493V9.219h-3.08Zm1.847 10.625c.678 0 1.232-.563 1.232-1.25 0-.688-.554-1.25-1.232-1.25-.677 0-1.231.562-1.231 1.25 0 .687.554 1.25 1.231 1.25Z"
        fill="#333"
      />
      <path
        d="M8.71 3.687a1 1 0 0 1 .939-1.343h28.276a1 1 0 0 1 .94.657l1.949 5.333a1 1 0 0 1-.94 1.343H11.598a1 1 0 0 1-.94-.657L8.71 3.687Z"
        fill="#5272E0"
      />
    </g>
    <path
      d="M20.617 13.96c-1.94 0-3.328-1.019-3.328-2.401 0-1.067.82-1.934 1.875-2.098v-.059a1.872 1.872 0 0 1-1.547-1.875c-.006-1.318 1.266-2.285 3-2.285 1.735 0 3.006.967 3.012 2.285a1.91 1.91 0 0 1-1.547 1.875v.059c1.031.164 1.863 1.031 1.863 2.098 0 1.382-1.394 2.402-3.328 2.402Zm-1.488-2.577c-.006.726.592 1.236 1.488 1.23.897.006 1.494-.504 1.488-1.23.006-.733-.627-1.272-1.488-1.277-.861.005-1.494.539-1.488 1.277Zm.21-3.68c-.005.68.528 1.154 1.278 1.16.744-.006 1.283-.48 1.29-1.16-.007-.662-.534-1.125-1.29-1.125-.762 0-1.283.463-1.277 1.125Zm5.532-.89V5.359h6.95v1.454h-2.602v7.03h-1.746v-7.03H24.87Z"
      fill="#fff"
    />
    <defs>
      <clipPath id="cua">
        <path fill="#fff" transform="translate(.305 .344)" d="M0 0h42v22H0z" />
      </clipPath>
    </defs>
  </symbol>
  <symbol viewBox="0 0 25 24" id="x">
    <g clip-path="url(#cva)">
      <path d="M19.289 5.71a.996.996 0 0 0-1.41 0l-4.89 4.88-4.89-4.89a.996.996 0 1 0-1.41 1.41l4.89 4.89-4.89 4.89a.996.996 0 1 0 1.41 1.41l4.89-4.89 4.89 4.89a.996.996 0 1 0 1.41-1.41L14.399 12l4.89-4.89c.38-.38.38-1.02 0-1.4Z" />
    </g>
    <defs>
      <clipPath id="cva">
        <path fill="#fff" transform="translate(.99)" d="M0 0h24v24H0z" />
      </clipPath>
    </defs>
  </symbol>
  <symbol viewBox="0 0 25 24" id="calendar">
    <g clip-path="url(#cva)">
      <path d="M18.9883 2H17.9883V1C17.9883 0.45 17.5383 0 16.9883 0C16.4383 0 15.9883 0.45 15.9883 1V2H5.98828V1C5.98828 0.45 5.53828 0 4.98828 0C4.43828 0 3.98828 0.45 3.98828 1V2H2.98828C1.88828 2 0.988281 2.9 0.988281 4V20C0.988281 21.1 1.88828 22 2.98828 22H18.9883C20.0883 22 20.9883 21.1 20.9883 20V4C20.9883 2.9 20.0883 2 18.9883 2ZM17.9883 20H3.98828C3.43828 20 2.98828 19.55 2.98828 19V7H18.9883V19C18.9883 19.55 18.5383 20 17.9883 20Z"/>
    </g>
    <defs>
      <clipPath id="cva">
        <path fill="#fff" transform="translate(.99)" d="M0 0h24v24H0z" />
      </clipPath>
    </defs>
  </symbol>
  <symbol viewBox="0 0 19 18" id="download">
    <path d="M16.9883 10V15C16.9883 15.55 16.5383 16 15.9883 16H3.98828C3.43828 16 2.98828 15.55 2.98828 15V10C2.98828 9.45 2.53828 9 1.98828 9C1.43828 9 0.988281 9.45 0.988281 10V16C0.988281 17.1 1.88828 18 2.98828 18H16.9883C18.0883 18 18.9883 17.1 18.9883 16V10C18.9883 9.45 18.5383 9 17.9883 9C17.4383 9 16.9883 9.45 16.9883 10ZM10.9883 9.67L12.8683 7.79C13.2583 7.4 13.8883 7.4 14.2783 7.79C14.6683 8.18 14.6683 8.81 14.2783 9.2L10.6883 12.79C10.2983 13.18 9.66828 13.18 9.27828 12.79L5.68828 9.2C5.29828 8.81 5.29828 8.18 5.68828 7.79C6.07828 7.4 6.70828 7.4 7.09828 7.79L8.98828 9.67V1C8.98828 0.45 9.43828 0 9.98828 0C10.5383 0 10.9883 0.45 10.9883 1V9.67Z"/>
  <symbol/>
  <symbol viewBox="0 0 24 24" fill="none" id="flagFilled">
    <g clip-path="url(#clip0_810_92764)">
      <path d="M14.4 6L14.16 4.8C14.07 4.34 13.66 4 13.18 4H6C5.45 4 5 4.45 5 5V20C5 20.55 5.45 21 6 21C6.55 21 7 20.55 7 20V14H12.6L12.84 15.2C12.93 15.67 13.34 16 13.82 16H19C19.55 16 20 15.55 20 15V7C20 6.45 19.55 6 19 6H14.4Z" fill="#191919"/>
    </g>
    <defs>
      <clipPath id="clip0_810_92764">
        <rect fill="white"/>
      </clipPath>
    </defs>
  </symbol>
  <symbol viewBox="0 0 24 24" fill="none" id="flagOutlined">
    <g clip-path="url(#clip0_810_92767)">
      <path d="M14 6L13.28 4.55C13.11 4.21 12.76 4 12.38 4H6C5.45 4 5 4.45 5 5V20C5 20.55 5.45 21 6 21C6.55 21 7 20.55 7 20V14H12L12.72 15.45C12.89 15.79 13.24 16 13.61 16H19C19.55 16 20 15.55 20 15V7C20 6.45 19.55 6 19 6H14ZM18 14H14L13 12H7V6H12L13 8H18V14Z" fill="#333333"/>
    </g>
    <defs>
      <clipPath id="clip0_810_92767">
        <rect fill="white"/>
      </clipPath>
    </defs>
  </symbol>
  <symbol viewBox="0 0 25 24" id="logout">
    <g clip-path="url(#cwa)">
      <path d="M4.98828 5L11.9883 5C12.5383 5 12.9883 4.55 12.9883 4C12.9883 3.45 12.5383 3 11.9883 3L4.98828 3C3.88828 3 2.98828 3.9 2.98828 5L2.98828 19C2.98828 20.1 3.88828 21 4.98828 21L11.9883 21C12.5383 21 12.9883 20.55 12.9883 20C12.9883 19.45 12.5383 19 11.9883 19L4.98828 19L4.98828 5Z"/>
      <path d="M16.2873 14.9013C15.8973 15.2913 15.8973 15.9113 16.2873 16.3013C16.6773 16.6913 17.2973 16.6913 17.6873 16.3013L21.2773 12.7013C21.6673 12.3113 21.6673 11.6813 21.2773 11.2913L17.6873 7.70125C17.2973 7.31125 16.6773 7.31125 16.2873 7.70125C15.8973 8.09125 15.8973 8.71125 16.2873 9.10125L18.1873 11.0013L8.98726 11.0012C8.43726 11.0012 7.98726 11.4512 7.98726 12.0012C7.98726 12.5512 8.43726 13.0012 8.98726 13.0012L18.1873 13.0013L16.2873 14.9013Z" />
    </g>
    <defs>
      <clipPath id="cwa">
        <rect width="24" height="24" fill="white" transform="translate(0.988281)"/>
      </clipPath>
    </defs>
  </symbol>
  <symbol viewBox="0 0 25 24" id="arrowBack">
    <g clip-path="url(#clip0_301_155)">
      <path d="M19.9883 10.9997L8.81826 10.9997L13.6983 6.11973C14.0883 5.72973 14.0883 5.08973 13.6983 4.69973C13.3083 4.30973 12.6783 4.30973 12.2883 4.69973L5.69826 11.2897C5.30826 11.6797 5.30826 12.3097 5.69826 12.6997L12.2883 19.2897C12.6783 19.6797 13.3083 19.6797 13.6983 19.2897C14.0883 18.8997 14.0883 18.2697 13.6983 17.8797L8.81826 12.9997L19.9883 12.9997C20.5383 12.9997 20.9883 12.5497 20.9883 11.9997C20.9883 11.4497 20.5383 10.9997 19.9883 10.9997Z" />
    </g>
    <defs>
      <clipPath id="clip0_301_155">
        <rect width="24" height="24" fill="white" transform="translate(0.988281)" />
      </clipPath>
    </defs>
  </symbol>
  <symbol viewBox="0 0 25 24" id="arrowFront">
    <path d="M5.9883 13.0003L17.1583 13.0003L12.2783 17.8803C11.8883 18.2703 11.8883 18.9103 12.2783 19.3003C12.6683 19.6903 13.2983 19.6903 13.6883 19.3003L20.2783 12.7103C20.6683 12.3203 20.6683 11.6903 20.2783 11.3003L13.6883 4.71027C13.2983 4.32027 12.6683 4.32027 12.2783 4.71027C11.8883 5.10027 11.8883 5.73027 12.2783 6.12027L17.1583 11.0003L5.9883 11.0003C5.4383 11.0003 4.9883 11.4503 4.9883 12.0003C4.9883 12.5503 5.4383 13.0003 5.9883 13.0003Z" />
  </symbol>
  <symbol viewBox="0 0 24 24" id="place">
    <g clip-path="url(#clip0_315_15227)">
      <path d="M12.9883 12C14.0883 12 14.9883 11.1 14.9883 10C14.9883 8.9 14.0883 8 12.9883 8C11.8883 8 10.9883 8.9 10.9883 10C10.9883 11.1 11.8883 12 12.9883 12ZM12.9883 2C17.1883 2 20.9883 5.22 20.9883 10.2C20.9883 13.38 18.5383 17.12 13.6483 21.43C13.2683 21.76 12.6983 21.76 12.3183 21.43C7.43828 17.12 4.98828 13.38 4.98828 10.2C4.98828 5.22 8.78828 2 12.9883 2Z"/>
    </g>
    <defs>
      <clipPath id="clip0_315_15227">
        <rect width="24" height="24" fill="white" transform="translate(0.988281)"/>
      </clipPath>
    </defs>
  </symbol>
  <symbol viewBox="0 0 25 24" id="upload">
    <g clip-path="url(#clip0_506_17917)">
      <path d="M6.98828 2C5.88828 2 4.99828 2.9 4.99828 4L4.98828 20C4.98828 21.1 5.87828 22 6.97828 22H18.9883C20.0883 22 20.9883 21.1 20.9883 20V8.83C20.9883 8.3 20.7783 7.79 20.3983 7.42L15.5683 2.59C15.1983 2.21 14.6883 2 14.1583 2H6.98828ZM13.9883 8V3.5L19.4883 9H14.9883C14.4383 9 13.9883 8.55 13.9883 8Z" />
      <path
        d="M14.6413 14.3993L13.5635 13.3216V18.2919C13.5635 18.6073 13.3055 18.8652 12.9902 18.8652C12.6749 18.8652 12.4169 18.6073 12.4169 18.2919V13.3216L11.3334 14.3993C11.1099 14.6229 10.7487 14.6229 10.5251 14.3993C10.3015 14.1758 10.3015 13.8146 10.5251 13.591L12.5832 11.5329C12.8068 11.3093 13.168 11.3093 13.3915 11.5329L15.4496 13.591C15.6732 13.8146 15.6732 14.1758 15.4496 14.3993C15.226 14.6229 14.8649 14.6229 14.6413 14.3993Z"
        fill="white"
      />
    </g>
    <defs>
      <clipPath id="clip0_506_17917">
        <rect width="24" height="24" fill="white" transform="translate(0.988281)" />
      </clipPath>
    </defs>
  </symbol>
  <symbol viewBox="0 0 25 24" id="download">
    <path d="M19.9883 13V18C19.9883 18.55 19.5383 19 18.9883 19H6.98828C6.43828 19 5.98828 18.55 5.98828 18V13C5.98828 12.45 5.53828 12 4.98828 12C4.43828 12 3.98828 12.45 3.98828 13V19C3.98828 20.1 4.88828 21 5.98828 21H19.9883C21.0883 21 21.9883 20.1 21.9883 19V13C21.9883 12.45 21.5383 12 20.9883 12C20.4383 12 19.9883 12.45 19.9883 13ZM13.9883 12.67L15.8683 10.79C16.2583 10.4 16.8883 10.4 17.2783 10.79C17.6683 11.18 17.6683 11.81 17.2783 12.2L13.6883 15.79C13.2983 16.18 12.6683 16.18 12.2783 15.79L8.68828 12.2C8.29828 11.81 8.29828 11.18 8.68828 10.79C9.07828 10.4 9.70828 10.4 10.0983 10.79L11.9883 12.67V4C11.9883 3.45 12.4383 3 12.9883 3C13.5383 3 13.9883 3.45 13.9883 4V12.67Z" />
  </symbol>
  <symbol viewBox="0 0 40 40" id="circleLoading">
    <g clip-path="url(#clip0_3209_77195)">
      <path
        d="M40 20C40 31.0457 31.0457 40 20 40C8.9543 40 0 31.0457 0 20C0 8.9543 8.9543 0 20 0C31.0457 0 40 8.9543 40 20ZM4 20C4 28.8366 11.1634 36 20 36C28.8366 36 36 28.8366 36 20C36 11.1634 28.8366 4 20 4C11.1634 4 4 11.1634 4 20Z"
        fill="#CCCCCC"
      />
      <path
        d="M35.5885 29C36.545 29.5523 36.8807 30.7826 36.2356 31.6792C35.0962 33.2632 33.7289 34.6749 32.1752 35.8671C30.0915 37.4659 27.7133 38.6387 25.1764 39.3185C22.6394 39.9983 19.9934 40.1717 17.3895 39.8289C14.7855 39.4861 12.2746 38.6337 10 37.3205C7.72544 36.0073 5.7318 34.2589 4.13293 32.1752C2.53406 30.0915 1.36125 27.7133 0.681483 25.1764C0.00171096 22.6394 -0.171716 19.9934 0.171103 17.3895C0.426726 15.4478 0.965644 13.5579 1.76768 11.7791C2.22171 10.7722 3.45496 10.4477 4.41154 11C5.36813 11.5523 5.68301 12.772 5.2543 13.79C4.7005 15.105 4.32391 16.491 4.13688 17.9116C3.86263 19.9948 4.00137 22.1115 4.54519 24.1411C5.089 26.1707 6.02725 28.0732 7.30634 29.7402C8.58544 31.4071 10.1803 32.8058 12 33.8564C13.8196 34.907 15.8284 35.5889 17.9116 35.8631C19.9948 36.1374 22.1115 35.9986 24.1411 35.4548C26.1707 34.911 28.0732 33.9728 29.7402 32.6937C30.8769 31.8214 31.889 30.8023 32.7509 29.6651C33.4181 28.7849 34.6319 28.4477 35.5885 29Z"
        fill="#323232"
      />
    </g>
    <defs>
      <clipPath id="clip0_3209_77195">
        <rect width="40" height="40" fill="white" />
      </clipPath>
    </defs>
  </symbol>
  <symbol viewBox="0 0 20 20" id="event">
    <g clip-path="url(#clip0_3312_95902)">
      <path d="M13.3333 8.33203H6.66667C6.20833 8.33203 5.83333 8.70703 5.83333 9.16536C5.83333 9.6237 6.20833 9.9987 6.66667 9.9987H13.3333C13.7917 9.9987 14.1667 9.6237 14.1667 9.16536C14.1667 8.70703 13.7917 8.33203 13.3333 8.33203ZM15.8333 2.4987H15V1.66536C15 1.20703 14.625 0.832031 14.1667 0.832031C13.7083 0.832031 13.3333 1.20703 13.3333 1.66536V2.4987H6.66667V1.66536C6.66667 1.20703 6.29167 0.832031 5.83333 0.832031C5.375 0.832031 5 1.20703 5 1.66536V2.4987H4.16667C3.24167 2.4987 2.5 3.2487 2.5 4.16536V15.832C2.5 16.7487 3.24167 17.4987 4.16667 17.4987H15.8333C16.75 17.4987 17.5 16.7487 17.5 15.832V4.16536C17.5 3.2487 16.75 2.4987 15.8333 2.4987ZM15 15.832H5C4.54167 15.832 4.16667 15.457 4.16667 14.9987V6.66536H15.8333V14.9987C15.8333 15.457 15.4583 15.832 15 15.832ZM10.8333 11.6654H6.66667C6.20833 11.6654 5.83333 12.0404 5.83333 12.4987C5.83333 12.957 6.20833 13.332 6.66667 13.332H10.8333C11.2917 13.332 11.6667 12.957 11.6667 12.4987C11.6667 12.0404 11.2917 11.6654 10.8333 11.6654Z" />
    </g>
    <defs>
      <clipPath id="clip0_3312_95902">
        <rect width="20" height="20" fill="white" />
      </clipPath>
    </defs>
  </symbol>
  <symbol viewBox="0 0 25 24" id="coffee">
    <g clip-path="url(#clip0_3771_116217)">
     <path d="M20.9883 3H6.98828C5.88828 3 4.98828 3.9 4.98828 5V13C4.98828 15.21 6.77828 17 8.98828 17H14.9883C17.1983 17 18.9883 15.21 18.9883 13V10H20.9883C22.0983 10 22.9883 9.1 22.9883 8V5C22.9883 3.9 22.0883 3 20.9883 3ZM20.9883 8H18.9883V5H20.9883V8ZM5.98828 19H19.9883C20.5383 19 20.9883 19.45 20.9883 20C20.9883 20.55 20.5383 21 19.9883 21H5.98828C5.43828 21 4.98828 20.55 4.98828 20C4.98828 19.45 5.43828 19 5.98828 19Z"/>
    </g>
    <defs>
      <clipPath id="clip0_3771_116217">
        <rect width="24" height="24" fill="white" transform="translate(0.988281)"/>
      </clipPath>
    </defs>
  </symbol>
  <symbol viewBox="0 0 25 24" id="list">
    <path d="M4.98828 13C5.53828 13 5.98828 12.55 5.98828 12C5.98828 11.45 5.53828 11 4.98828 11C4.43828 11 3.98828 11.45 3.98828 12C3.98828 12.55 4.43828 13 4.98828 13ZM4.98828 17C5.53828 17 5.98828 16.55 5.98828 16C5.98828 15.45 5.53828 15 4.98828 15C4.43828 15 3.98828 15.45 3.98828 16C3.98828 16.55 4.43828 17 4.98828 17ZM4.98828 9C5.53828 9 5.98828 8.55 5.98828 8C5.98828 7.45 5.53828 7 4.98828 7C4.43828 7 3.98828 7.45 3.98828 8C3.98828 8.55 4.43828 9 4.98828 9ZM8.98828 13H20.9883C21.5383 13 21.9883 12.55 21.9883 12C21.9883 11.45 21.5383 11 20.9883 11H8.98828C8.43828 11 7.98828 11.45 7.98828 12C7.98828 12.55 8.43828 13 8.98828 13ZM8.98828 17H20.9883C21.5383 17 21.9883 16.55 21.9883 16C21.9883 15.45 21.5383 15 20.9883 15H8.98828C8.43828 15 7.98828 15.45 7.98828 16C7.98828 16.55 8.43828 17 8.98828 17ZM7.98828 8C7.98828 8.55 8.43828 9 8.98828 9H20.9883C21.5383 9 21.9883 8.55 21.9883 8C21.9883 7.45 21.5383 7 20.9883 7H8.98828C8.43828 7 7.98828 7.45 7.98828 8ZM4.98828 13C5.53828 13 5.98828 12.55 5.98828 12C5.98828 11.45 5.53828 11 4.98828 11C4.43828 11 3.98828 11.45 3.98828 12C3.98828 12.55 4.43828 13 4.98828 13ZM4.98828 17C5.53828 17 5.98828 16.55 5.98828 16C5.98828 15.45 5.53828 15 4.98828 15C4.43828 15 3.98828 15.45 3.98828 16C3.98828 16.55 4.43828 17 4.98828 17ZM4.98828 9C5.53828 9 5.98828 8.55 5.98828 8C5.98828 7.45 5.53828 7 4.98828 7C4.43828 7 3.98828 7.45 3.98828 8C3.98828 8.55 4.43828 9 4.98828 9ZM8.98828 13H20.9883C21.5383 13 21.9883 12.55 21.9883 12C21.9883 11.45 21.5383 11 20.9883 11H8.98828C8.43828 11 7.98828 11.45 7.98828 12C7.98828 12.55 8.43828 13 8.98828 13ZM8.98828 17H20.9883C21.5383 17 21.9883 16.55 21.9883 16C21.9883 15.45 21.5383 15 20.9883 15H8.98828C8.43828 15 7.98828 15.45 7.98828 16C7.98828 16.55 8.43828 17 8.98828 17ZM7.98828 8C7.98828 8.55 8.43828 9 8.98828 9H20.9883C21.5383 9 21.9883 8.55 21.9883 8C21.9883 7.45 21.5383 7 20.9883 7H8.98828C8.43828 7 7.98828 7.45 7.98828 8Z"/>
  </symbol>
</svg>
